<mxfile host="app.diagrams.net" modified="2024-06-02T21:10:11.411Z" agent="Mozilla/5.0 (Windows NT 10.0; Win64; x64) AppleWebKit/537.36 (KHTML, like Gecko) Chrome/122.0.0.0 Safari/537.36 Herring/90.1.1137.2" etag="qyrlzPjcBcl8T2yzAGAl" version="24.4.13" type="github">
  <diagram name="Page-1" id="MR9uj410cj12cX_QO7eb">
    <mxGraphModel dx="1050" dy="522" grid="1" gridSize="10" guides="1" tooltips="1" connect="1" arrows="1" fold="1" page="1" pageScale="1" pageWidth="827" pageHeight="1169" math="0" shadow="0">
      <root>
        <mxCell id="0" />
        <mxCell id="1" parent="0" />
        <mxCell id="KMJezZxSTb--gamxne1N-1" value="" style="shape=image;verticalLabelPosition=bottom;labelBackgroundColor=default;verticalAlign=top;aspect=fixed;imageAspect=0;image=data:image/png,iVBORw0KGgoAAAANSUhEUgAAAzwAAAG7CAIAAACJvgfwAAAgAElEQVR4Aey9h1cU2fb+PX/W+/3de2fGEZ3sOOYwcyfeyQINCCg5KCqIGDGQYwcyEgwgggERE0iSnEND51B5v+tUdRdFNIBK2L2eVZ6urjp16lOnm8d90gejjS3mjv7Bxy39z1pH27uHO7qHXpDtRFv3VItLk63dsibaOmWNtXeikAASQAJIAAkgASSABN4BgQ/MHf1g58HBAwPAAnAAvLhlACi3aABZLA8oJIAEkAASQAJIAAkggXdL4IPBxy3EsXEKx8aLvm2hrcADCgkgASSABJAAEkACSODdEvig/1mrFGNjjVagGIFmOGbRF0sxKCSABJAAEkACSAAJIIF3S+CD0fZuV6soxQAnCILAARErSkrP3HIcvLGkzN/4dPlEVyHFgsk7F0ng8YvA4V7/+SJP5KkkgPVBSWNuGvnMZaLcg3yUNOamkc9cJso964vPB8Md3VI/NoFmJMcm2TU0bW4ro6wcC6XXV6Vxk5HueiEmyv3IR0ljbhr5zGWi3IN8lDTmppHPXCbKPchHSWNuGvnMZaLcs7L4fDD0opuMPOCBYxgpwOYEgQYScgN+HgkCtwSRbJdwunxpKZ9Xzw2Pl9HNm0A+82KRdyIfGcW8CeQzLxZ5J/KRUcybQD7zYpF3Ih8ZxbyJ9cVnOtLGuE0bLTaMEtPGzRGxcdwSJLnApeQgnat0k6+SGx6/OCXkg3yUBLA+KGnMTSOfuUyUe5CPksbcNPKZy0S5B/koacxOfzDR1k0GIvDAMIzUJCq71rmRNvGjea3ujJ1zT1TukfN/aW7SWTOPn/tOeem5n5I9yqvPdJzko5e9pvPH8szHCvnMR2V6H/KZZjFfCvnMR2V6H/KZZjFfCvnMR2V6H/KZZjFfavXx+WCqpZvMwaYwbcSacAu6GeUohIUaOmeapFmeaQY3KbfF81GeMLM3ldTSPN32rDxSmZ5ZHqVvnX2bUv7Kc5Vlm2vasDzIR1lbsP4s/p8i5IN8lN8XKY2/z+6/g3PZkD3IB/lINUP6/fxgsnXatEm7SBVB0zb99VnMiUvEZm7RRCrYiSORkY9kbdH0SzVhun6QFH6/pnkgHzS107XBnULThqZNqgvS78MCpm3hRkMJnxvi9A/u3B/fmVVt+r8L7qpI/n2VfGYerxzHgZG2+SOFaJLQJCm/5Mpv0NzvqfLTmTUHv1/4/SJ1YOZr+jcf/xOCJhtN9sxvB3k30/ksf8vePKZNuurcokh7lmbaSDusMuc3M23KHF43PRPo/D/KC+X5aj9S07Zy8XzmlmSh/BfPR/npfH90sTzThJDPNAv3j4tyD/JR0ljo+7gQJeW5yvRC3/SF8leeq0wvdDyWR6KEfKSaoKwzyjTyWRt80LQpa7XL38zYpXiDlX5tVHr8IydVaqzPWJ+lOqDcKn7w8PdwVtQE/5NPaoeytsxNY/2Zy0S5Z+l8ZowelX/CFhlTiZG2udDRBEhMpKqJfJQElGnkI//CKLHIaeSDfJR/3haqD3KFmZVY6Hj8fZZAIZ+18f1C0zbji782Hir+SOGPlEQA6zOagBk/cOKbuUyUe5THY/1RkpHSyGcuE+Ue5KOkMTe9dD4zTJs8T9usKykvo+zI/GrpmWe/zXdSsZVXWPxHR3kkppEAEkACSAAJIAEksJIJTJs2mp2eXBdN20p+Zlg2JIAEkAASQAJIYB0S+GCsvRtYMqgTTds6fPx4y0gACSABJIAEkMBqIYCmbbU8KSwnEkACSAAJIAEksK4JzGPapNkUlS2kMwlNT664cJ+2mWcs9ztl2eamlVfDPm1KGphGAkgACSABJIAEVi8BNG2r99lhyZEAEkACSAAJIIF1ROCD0Tl92jDSto6eP94qEkACSAAJIAEksEoIoGlbJQ8Ki4kEkAASQAJIAAmsbwJLNG3rGx7ePRJAAkgACSABJIAE3hUBNG3vijReBwkgASSABJAAEkACSyCApm0J8PBUJIAEkAASQAJIAAm8KwJo2t4VabwOEkACSAAJIAEkgASWQODtmDYeBFlLKNxynaqcy2258sR8kAASQAJIAAkgASTwLgmgaXuXtPFaSAAJIAEkgASQABJ4QwJo2t4QHJ6GBJAAEkACSAAJIIF3SQBN27ukjddCAkgACSABJIAEkMAbEngl04Z9wt6QLp6GBJAAEkACSAAJIIFlIoCmbZlAYjZIAAkgASSABJAAEnibBNC0vU26mDcSQAJIAAkgASSABJaJwLRpYxiGBYEFV8bKJlFlepmui9kgASSABJAAEkACSAAJvAaBD8bau4EF4IFhGA4ETjRtSpc2K/0aeeOhSAAJIAEkgASQABJAAstEQDRtDJq2ZcKJ2SABJIAEkAASQAJI4O0QWNC0vZ3LYa5IAAkgASSABJAAEkACb0IATdubUMNzkAASQAJIAAkgASTwjgmgaXvHwPFyK4EAJwivpZVQZiwDEkACSAAJrHcCaNrWew1Yl/f/Wo6NW5eI8KaRABJAAkhgxRFYzLRJg0lnbVfcHWCBkMBrE0DT9trI8AQkgASQABJ47wTQtL33R4AFePcE0LS9e+Z4RSSABJAAElgqgcVM21LzxvPXMYFZAVr57cpAsphpk4o6s9Pbyig1lgIJIAEkgATWNwE0bev7+b+1u5dd2qzEW7vga2WMpu21cOHBSAAJIAEksCIIoGlbEY9h7RVilleT366MO0XTtjKeA5YCCSABJIAEXocAmrbXoYXHvioBjgNGFEfsmgBErmVtOeCVEmatk/Y6b5X5LJSezv9Vyq4wl0pj9yqn4jFIAAkgASSABN4uATRtb5fvOsxd9D0MBzZRDCcAwwggvuxWMwgM8G5xDHCcS0on53J5ktebs5WOJCcy80jO3JWYZeYEnuVYiuZoTuBJmTgBWN4lyVnKvs3tMtfhM8RbRgJIAAkggZVIAE3bSnwqq7pMs00bCLTbtEnWDQRwiSeL3hJJe+SEfMCshHz8IgnlKa7ruf8RyKXkFy86NloAWSwACyQiKGtVPwgsPBJAAkgACawxAmja1tgDff+3IzoeV/MoCxRL2knBTnMWOzgoMJqnNWUGIgtMWqc1YQMi62xNWkCW60Tp9Dlb+bBJi5iJlCHZCpNWYcrOGxxgosDKgp0HB7hECUADEYum7f1XIiwBEkACSAAJzEMATds8UHDXUghIYSoegOE4FhgWmN7RoYZnLTdqHl+/9fxadVtFdYekslsdotqu1rRcvd189XZzSa2o2y0lRG3Tqukoqem4eqtTlnxu2a02pa7WtMlyny7mJuZ89fazq7VPtJX3yuoe323ubeods7tNmwPA6TJt08G2pXDAc5EAEkACSAAJLC+BBU3bQv3Bl/fymNvaI0BMm9iHjaJJa6TeYtKVlJxISDwSm3LkRFb0CXVkrDYiblphJ9VhJ3NC4rNC4rOCT0nKCT6VExyvVkgbHK8NOZknKyxOS0TOnaGQeLUs1+mnxNyknBMyghMyAuNSQk6nB8YlJedf75sw2VjewQlOQaCANJVKXdzkFlLs2bb2qijeERJAAkhglRJA07ZKH9zKLbZk2jgBnCwwAN2DY2HRcacvZFXVtd+83Vlzf+BW/UDVg2ndbOi72dB3/SFRZaNbDwcqZ2i48uHw9YZRt4ZvPhi+2TAwV9cbBmS5cpDzbOypFFV8t63iYfel/Fthp1Ku3XlgcjoBwMowUuc2NG0rt25hyZAAEkAC65vAgqZtfWPBu39zAlKMimY5DoDiofZBq3/wqWvVzTYKjBYw2ImmFNI7QO+AcSfR2KIad4BLTnLKvJLyceVGwZhS4iXGnaB3wiQNd5uGQ44npmsLTAwNAA6Omxtpe3MKeCYSQAJIAAkggeUmgKZtuYmu+/wk0+agKRbAZIeSyoag8MSbtzusTjDZoH+c7Z1ge/R8lx669NAzAT16XnrbqYfFNEmOd4vv0vNdk+wi6pxiOyd5SR1T0DFJRK6o580cTNjhWaf5+LlsXem1CbNZGlU6N9K27h8mAkACSAAJIIEVRABN2wp6GGupKBTj5AAsNJTebPQPPXP7XifNgt4Etxon4tPvHEt/kKB7fiL7cVx2Y0JmfULWvZNZjXHi27jsRkknsxtE1Z/Mrj+VVZ+Qc/90LtnGpt8+llJ1LKXqaOqN+VR1NJXoSNq0olLrYnKeh1x6EJlYVVzT3dxvHHNAbdNU2Mmc3MLKsckpVpx4RDk93Fp6FngvSAAJIAEksDYIoGlbG89xxd0FzVH8tGlLuH2/QzJteVV9njGl+4J0u4MLtx/K2x2o/t4/43v/jD0B6p2B2t2Bardy9gSICszaE5i1LyBrf2DmvoCM3QdTt6subfW88I0X0dfes3Txa6/LX3slzdJXXmlbfPK++if7O5/0M1m1TQPGUSfUNBtD4tW5hZUTk1OcOIUbmrYVV42wQEgACSABJKAgsJhpUw6gk9OKczGJBBYkIJk2EwMlVY1+YQm36l2mreTemPfJyt1B2m8DdTtDCvcE674Pyv4+KHt3iG5HaL6knSH5O0N1LoXkk7finu2H1Fv9s770Tf/UO/lT7+TNojxUyQqle3jlenhpZmmzp2bT37kev17Z8VfiyaRrzwcN4xTUPjeEx2s0BZV6/ZS0OoLAg8CLK24JriW3Frw9/AAJIAEkgASQwDsngKbtnSNfHxdcyLTl1Q56xlfuiyzaE122LbRwZ6juu+DsfcHZO0J1W8PzZW0LyycKLRRVvC2U6MsA7ecH1RtVmR8dSPuPp0v/9kpTKOPfnup/H8ibpY/+1m4LKP/6r4xtv52JOJ3/fHASTdv6qIZ4l0gACSCBNUVgMdO2pm4Ub+bdEmBY0jw6N9KmuzP0y7GirUHq3UfLd0SV7o4s/C5C812EZldEwfbIEknbwovcKtkaVrw1rHRrWOmXwUWfBug2+qk/VOX8xyv7Q1XORz65H/oS/ccnyyVVzn9U6rn62Eu96YB6q2fO9j/Onk2rbh0wjDtdkTZ1fvnYxCTrDrDJLaTvlhZeDQkgASSABJDAywmgaXs5IzziDQgwLAVinzapefT2/Q6WgXEzaO8M/XSs6OsQ9a6Y8m3RpTuiC/eJpm1PeMGu8JJd4SU7Ikq2hxcRhZVsDyvZFkpM2zchJV8eyv/0oHaDKvsjr+zZpo14tcX0sXeOy7T9fl4ybXon1DWT5lE0bW/wcPEUJIAEkAASeC8E0LS9F+xr/6ILmTb13aEfjxd9GaLecaz82+jSbdGFeyNJpG1/aMH+0JL9oSV7Q0v2hBTJ2h1cuDO4eNuhgq981Z95Z23yzNjoJUqVuVGVuUGVvUGV/bF3lkI5H3vnfOylVmqDl3rzP9qtB9TbiWmraRs0TlJwp8UYcUqLpm3t10W8QySABJDAWiGApm2tPMkVdh8vNW3bj5d/c2SGafsuhJi2/aEl+4KL9gWX7Akh2h1cvOtw0TcBuk+9Mj/1ytx8IEPybR7emR7exLdtVGVv8MpyK2eDlySladNu8NTONW11LcbwBG1OATaPrrCqg8VBAkgACSCBBQigaVsADO5eGgGOI8sMWBkorX7kG3qq5l47Q8OYCTR1gz8cK/gqKHd7TNnWqJLtkQV7InL3hufuDSvaE3ZV0q7wq7vCyiXtCCndeqjoCz/tZq/sTaocD+9sD+/sjSqXPHxyPFTqDapctzQbVC59pNJ8pNJJ2uCt23RAu8VTvfO38+dSazoGSKRNNm2j+kmy5Ci4xo26urWBgCOml1YF8GwkgASQABJYZgJo2pYZKGYnEVjEtP0YM8O0EccWnrsnvIh4NVE7wstlbQ0q/jIgb7OPmtg1ldpDpd7onStL2iMbtQ3EqE3rQx+dJDRtWC2RABJAAkhgDRBA07YGHuJKvIVZpo1MrkuRgQiausEfYwq+DsrdebTs28iSHZEFe8Nz98umTQywyY5tR3j5N4dLPvfL8/DK/eSAy7RJRk25fS3TdiGl5kW/0eCcjrSNTU5hpG0l1iEsExJAAkgACcwkgKZtJg98t0wElKbNJyT+9v0OykmWsdLWiqbtsMZl2iKK5pq27WFXZX3pX7DZR+vhlbvhnyylUVOmX8W0bXQ3jypNW+hpbVZB+bjBIK06Ks/3QRLYPLpMNQGzQQJIAAkggeUisKBpA16YV8t1YcxnbROYZdpq6184HMS0aW4P/HSk8KtDuTuiy7eS2T0K9oSp94Wq94SVSJ3YdoYSx7YttPTbkJKtQcWf+eo8vHI3euaQpQ7E5tG52098dLKUzaPKPm0LmbacosoJs5kGkHybvEXTtrbrJ94dEkACSGA1EkDTthqf2iooM8fRAoCZJQMRVMFxtxu6bPZ5TNu2iHlMm+TYvjlc9FVgvuzYNi3g2DxUatmxfeKje0XTNknB7VZj8BltVlGl3mKhAZyCIDs2GiNtq6CKYRGRABJAAuuOwIKmbd2RwBteVgIM7zJtxbceeQXH1T3stthgwjIj0rYlsmRbRMGucPWesBmRtm9DSiTH9pmvRoqxbVKp5zVtn/ioRek+9nVpZlPp9OjRDZ7ar71mjB6VTduk1YqmbVkfPmaGBJAAEkACb4UAmra3ghUzZXiaLGPFgWTabjd2m+1K06bZEV2+JbJka0TRznD1LqLp5tGtQcVfHyr83E9L5vjwypUc2yKmTXZsH/vqFjdt2393Tfmhp6GmzRVpQ9OG1RUJIAEkgARWBQE0baviMa2+Qsqmrajm0YGQOIVpG/o5unhLoGZHdOWWiKuiadPuCtOSBazCy7eHXd0aVPzN4aIvA/Ik07bJRyt1YpOn+ZCmZHPH2FyRNrmFVGnaNnjrpuWp/dJ7ekUEybQFic2jaNpWX/XCEiMBJIAE1iUBNG3r8rG/5ZvmQKAEmgUw8CCatvhbj7qNDhi3gq5mHtO2M1xLlhwVHdtXgflf+Os+89Vs9lGTSNvMidk2ervm0X0z07btD9cyVuM0VLcb0bS95YqA2SMBJIAEkMByEljMtCkH0Mnp5bw45rVGCShNW0HNk39C42819sqm7deoGZG27RHaneHa7eFFW4OKvwrMn7Zr0uIHiql0pWCbMtL2sa/6Y98ZAxEWirR97KX9wlu97Y/zp9NrWoeMkmk7dJYMRMBI2xqthnhbSAAJIIG1RgBN21p7oivhfl5u2gJ0UvPolsgSybRtDc6XHJu0UJW8lVtF5cRSTNvWP9G0rYQKgmVAAkgACSCBNyGwmGl7k/zwnHVGQA7BzkrIzaOzIm15t0Z+jSrdQkzb9S0RZCzC9vC8neFaybS5lqsSY2yuZUaXEGnb6KWTJUXa0LSts+qJt4sEkAASWFME0LStqcf57m9mlleT38qmrejWswPBCdUPe0xOqU/bvKYtb2tw4bJH2mTHttFLN8u0jTJws8MoNY8aLFYWgOKn52ljeVwR4d1XJbwiEkACSAAJvIQAmraXAMKPFycguzQxwXHASXsk02Ziobj6mXfImZqGPpMTRi2gqxn5WRFpExdFyNsZ7jJtm/00G1XZM+QeeSC1ikrbj3xypd5s7u3887QtYNqqW4eMLtN2Tp1TVGk0WzkBGE5geZAl3rXrXhYngJ8iASSABJAAEng3BNC0vRvOa/Yq85k2jgXOKY4eNTNQWtXsE3yupr7LQhPTprktjh4N0O2Mur4trHxbeMnOcDIQ4dsgV5+2GY5NNHBKu7aAaZseiyAPRNjorVGatg+98j5Tqbf+efZ0+izTVm60mDkQGI5jed5t2nhB4AQBTduarbd4Y0gACSCB1UgATdtqfGrvucwzjZogx9hYIHZNklMgk+taaSi72ewbdK62/oWNgREbaO70/3y06NtA3d6oa3siK3eGFW0LytoSkPZ1QM7X/tovA1z6wl/zhb/m84PqzX65m3zVm3zVHj45kj7xzdmgyt6gyv7YO+tDFdHH3lkbvHIkfXwgV5Tm4wOaT/6RpPvogO5DVeFmP93Wv8+dyaxqH7JMMFD9wnT4fK66uMxiNQHwxLARSS9WMm3u7XsGjpdHAkgACSABJCAIApo2rAavTWBh0yawIIimTXAKnGTaym+0HDx87va9TgcLIzZed2/gt2PFuw7pfoiu+G9U+b7w4l0hWdsOpX99MPPrg9lf+U/ri4NZX/jlfH6Q6DO/bFmbD2Zv8sva5Jfl4ZPxiW/WJ75ZHj5Zm1RZm1Q50goKZGl5Is1mT5c8vHSf+JZ8cTB/x4Fz57NvtQ3Zxhio7rAcPq9RF1UoTJvbs/G8CIUE20S9NiI8AQkgASSABJDAshNA07bsSNd+hjNNG8cDL+1hAWQ5eZK20lB+o8U/KPH2vW4bC8MWyLnV+WOEepsq7fuggu8O5+8JyNl28MoWn/Ob/jy76Y/EjX9Oy+OvSx5/Xdr495WNf1/x+CdJ1icHkjb8fWXD31c+/uvSh38TffzXlWn9cfljl5I++d2lj39P+eiv7M8OpG35LTY+pbJliBpl4eYLYtpyi26YLQ4epnuzSS2kAg9r/0HiHSIBJIAEkMCqIoCmbVU9rpVRWKVpY0n3fdG0CcC6RQtg54AGMJPm0ZaDwYnV97psHAxa4MZzQ+D5a38dLT546pZffLV3bMVfx/N+P5qz93D63kPZew67tDcoZ29Qzr7g3H2h2v1hefvD8r4Lz5e0LyJ/b3je3vC8PaHi+ldh2j2h2j2heS4F6/a4tS9IJ2lPcP7e0JIfI4p/CUpLL33SNMwNcXC903LovC676JbRwnEANOcWDywHnADo21ZGdcNSIAEkgASQgIvAgqYNeGFeITkk4DZtZKwoTUJUQAtgMDvHJx2DY7YRPfuiz/q8x9w5zAzoofh6y8GwS1dr2vqm4HGvLa+uU1vXr6kd19Tq064Ppl3vT7vZkXy97Upl16WK3ksVvYkKXSjvvlDem3ht4Er1SNKtsaRbY1eqR65UjyTeHLpwYzDx5tBlMX3++sC5a/3nrvWfr5yWIp/+xIr+9OrxjOrRnKr+3KruJ+PQZILSVoPvaU1awd3mDkPvMDUwzo5M8IOjzPA4NzhsdzBiBzcSgSMvfOhIAAkgASSABN47ATRt7/0RrL4CKE0bJQ44EE0bXV37LPFKwaWU8ktp1y5mVcUnlSWkVoSdzPEOTQyPzz2VWhFzuSQuvSIu7UZs+t3YtPtx6fVxGffism+dyKyKSb9zNO1O9ExFptwJTaoNS66LTL93NKvhuPpRrObJcS1RZGZ9WOqd4NS68Kz66Jz6o7kPjuY+iFE3HFc/jNU8itU8itM9PqltPKltjNM0nMx9eDK7IS7rfmzmndjMO1FpVeFpN/2vlP3vaKpfdOrZy2WX0m5cTr9+Of16as6tK2nX07MqevpHaZYBAIqhV98TwhIjASSABJDAWiSwoGlbizeL97Q8BNymTeCAo8iUtFKkjU3JKPP2ORmfUHghuSoh5cbxS+XR5wtjEovjUyojTusizxVFXyg5nlR6/ErZ8cs3Yi5WH02sOpJYEXWxOOJCYej5qyFnK4LPzZZffOnfR7T/DUze6XX2mz/jv/kz/uu/iPYevLTd6+z+w1e8TxWFXqkSdSP0yo2IpJuirkckXY+6QhR9+fqRi5VRiRWRF8ojEivDEiuDL10PS6vxu1gWePHq8cvXzly5fupixcnzV+MvlJ9LuhEQlhJ6NKmppZvneRCHlS4PNcwFCSABJIAEkMDSCKBpWxq/dXm2wrQJlECTDmE8GEz8lZSrUUcz7t3XN7Uzt59MNHTbalsmalsmbjwerHjYW9syea/VcLtpuPbZcO2z8dqnhoftjocdloYuY33H5P02451Wy1zdajarb3YcvVx5IDLVOzrDOzrD8wiRX2yu7/Gc+Oxb5Y/GGvpZogG6oZ+tbrGIMtW0GGqfG+qaDfeazfeeG++3mOpbzffabXc7nPf7uKpO+40Oa0WT/nEP9eSF416TofbR+N1nU3efTZ26XH7mUtGjp+2CIFAUBYAjEtZlLcebRgJIAAmsPAJo2lbeM1nxJVKaNhpYFkgTKc3BucTC8Mj07h4YnYLuKaFFb+2YdHROOaVt65itx8h2G6jeKap3iumdYvoMbJ+BHTQwgwZmYIqkZ2uKHzBBxxj1uGfqXutwbVO/rPqW4YftY88HLD16dtwJY6JGKHgxCS8M0GWCXjMMGGFkCsamYNwA40YYM8GIGUasMGyHASsMOWDQBkM2GLPDsBmGTDBghs4JIa2wLuzE5c7eIUEQSPMoRU1PBIKd21Z85cQCIgEkgATWMAE0bWv44b6tW5th2gSeFkikjeagtLwxNCy1orKrbwSa+s0Pe8Ye9088GdBL28au0eZB09NBo6SmAWPzoKl50PR8yPx8yCylZ22bBoyPe/SPeqee9Bubhq0to/bWMUfrmKNt1NE8aHk+ZH0xQT98MdE8aGketDwbtDwddNS9sD3o456OQtsUPO5xNPfSHQPQNQzPe8xNvUaifnPzoOVpn7l5wNbUb23us7b1O5/3WJ91Wxo7DHVPRqITcmMS0scmzRzLAQDDMGja3lZNwnyRABJAAkjgdQgsZtqUf5vl9OtkjseuTQJyZeBAoBWm7VnLWExsdkDw5fjzJWeSrsZdLDp1pSQ+ufSkuD1+seBUasXx9PKjGUQx6eXHMiuOZVacyLp2IuualJ67PZyoC7tSHJN5LU5dfSS9QlZ0SlnElZLwy8VHUsuPZVyLybx2JOtaZFZlRNbNsKzqyJy70dkNRzIfRKXejbhSHX6pIuLK1agkouiUsiOp5VFJ5UdSKmOSKk5erDh76cap85Xx58pPna88GlsUeURXXdfrZMgQBGltKzRta7Me410hASSABFYbATRtq+2JrYDyzjRtZBSCFGkz2+FOQ++ZxMKYU7nHEjRRJzOPJmQfTciOOpUVnZAbFpd55Kw27Lwm+IJLIYnakERt6CVd6CWdlJ61Db6gC76gO5yoC7qYF3wpP/RygaSIpKLolNKIpKLQi/mygi/lB13OD00r8ruo+yNO92OU5moRLz4AACAASURBVMu/z+89nO4ZVxh8qfzQ+fzD5zWHydV1IYkFwWd1oRcKws/mxyTkxyUUHj+pOxanPXuuPP5UcUXlC4MBOHHcKMWQxbjQtK2ASodFQAJIAAkgAVzGCuvA6xNQmjZOIPPQcjyZWRcAnCyMT3E9g+aeYUvXiKl71Cyrd8zeO2bvGrPK6h63d4/beyYcPRMOKT1r2zVmfTHmeDHm6Bx3SpLevhhzdI85u0bJtldP94xTrk8n7A/7h1sNjgf9Nt2dvl+CklSxuoyq9oYB+vmg/XnvVN8k0zNOtQ+ZXgy61Dtk6R+2dg+YevqMRrNgd7puhxOAYbhZbaM4YdvrVxY8AwkgASSABJaNwGKRtmW7CGa0tgjMY9oEsooAxYGDBpsTLA6BAZBEA1kagRJccvLkMEkkPie6PVaK1YlvpZ3SluLAKWr6dPceWsyH5klITDqdEsABYOZZB8AkQJueTb7a8Gdk0sF4bemD3sEp1yhXm5MUVRaZ1cO9hpXLgIIghdY4lpOEkba1VX/xbpAAEkACq5UAmrbV+uTeY7ldpk2Ksbm3LA9OVqA4suQoMVIKkfZTtygOGLekVT4lqySlZ23JkSxxeLKTk9wewxLXJW15EON8og8jVwGgACwA4wB9DCSVP/zrWK5fbO6N2ieTUzYAoCme58jCW5IVEz0b8DzLCpJonpckLYWgNGwk/R6x46WRABJAAkhgnRNA07bOK8Cb3P68po0s1glELAgUzzlYmmJommUYjuPIMp6uF+ki5pZ732L/SgfLR8w4V2yQlT+SEhyQeJsDBCfAFECPBYru9hyMSQ85cilLU9HZN2lxAkUDTbMc5eQoO7BOgadpxk4zVpqz0eCkifmkyZqq4kJWs1zbm/DCc5AAEkACSAAJLAcBNG3LQXEd5+FqUhRgRpspCNwSpqSdnZU7mDd9rZl7yMrukgTiDknsTRQlBt4MDnjYPHwkofi//5w9nV7zfFAcWwAg2B1A24G18pyVF+ws6Y9HOcBpA8YmrqlKYm/EuIm93NxXXMePGm8dCSABJIAE3jMBNG3v+QGs9svL/cBmOa2l3NesrF76dpFrSeE3sw0etjqPXbj1X9WFI4llj14YyaqipC8bA6yd5+y8QAJsNDFtjBkYK3AUuBwbmrZF8OJHSAAJIAEk8C4JoGl7l7TX4LVWrGmT+p9J3ozjweKA3hFIuHLtF+/46FO6B83jDobE5BiOY3iaBpYC1gmMAxjSYgo8DRwLwtzY3hp8hHhLSAAJIAEksEoIoGlbJQ9qpRZzxZo2JTCeLG1ABpkOjQuaooc//h0TGJ1S3dhl5sHOAxnQKo48dQLnBIYW428sCGjalAwxjQSQABJAAu+dwIKmDXhhXr33EmMB1jyBl7aHzjpgESBSvI3neYanGY4sbm9xQGpO1R/+pwJOpF5/2GOgSQc4J4CVBbsg0MBxZEUullzC3Y9NmVjkWvgREkACSAAJIIG3SgBN21vFi5m/CYFZnuylb196DZbnKYF2cgwZM8qB0QHF1c1/h1/69dCZgpvN3eOciSVzhdjJZHI0B5S4kiqatpdyxQOQABJAAkjgnRJY0LS901LgxZCAgsBLXdqsAxSnzp+kBbAB2ECgBCfDOzkAvR0Kqjv8juf4Hc1Iyb/b3Ge1CyTeRkwbL5o3gYxEndv4O/8FcC8SQAJIAAkggbdPAE3b22eMV3hNArM82UvfvjR7lidRNBvxZE6Gt3NkRg+YpKGu2RR+oezHgHOns260DlqNNIm3MbyT5+zAc1K2s67+0mvhAUgACSABJIAE3hIBNG1vCSxmu7IIsDxQvMDwNMfRHMuR/m08WTihro/3uVC+XRV7OCGroX3YRJPFGyjKAQIlSQCGSOA40t3N5eRW1r1haZAAEkACSGB9EEDTtj6e87q/S57nZ60lyrGcTYAxgPvjcEJds98v5lDspev3mvQWFsjSDox7uVRK8m1o2tZ9JUIASAAJIIH3TGAx0zarYUh6+57Li5dHAm9EYNZqVLy41AElgJGHMRaeDtm0tx7/FXzCJ/J0Se2zMSfp38aSqdqIpLVSpXibIHCi3qgQeBISQAJIAAkggSUQQNO2BHh46uohMK9powUwOzknAAMwYOIKqx//5Bv9g39MRsUdKxm4QJYxldwbJzWSiu2kaNpWz2PHkiIBJIAE1hSBxUzbmrpRvBkkMJOAbONYcX5dmxh1q2nqOxB9/gf/mAv51zsMTtGxEUvHkoGkpJcbOraZFPEdEkACSAAJvDsCaNreHWu80ooiIJk2gWPJ1Luc4ORhkoIRGzR06SMvqff7H43XVjRP2IxAhpTyIKBpW1GPDwuDBJAAEliHBNC0rcOHjrdMCCgjbRRHFrNyAoybGRsPrSPWyNTinQHHo1Pzm8fMBk4QyDpYDIADI21Ye5AAEkACSOB9EUDT9r7I43XfMwHJtLE8sDwwnEBx4GB4HsDBgJmHO92Tsbobv0WdP3w67X77gImVfJt7FAIPAgm+CcTDuecEec/3g5dHAkgACSCBtU4ATdtaf8J4f4sSUMbbGE6Q5ORh1ME0jVqSrzb8GX4lKEFT9aSvz2By8AwHJOg2vRopMBxYRJGPcIT1orDxQySABJAAElgSATRtS8KHJ692ArJpU07kxnAcA2Bg4dmgLa+63SsqRXU0Ob38tlEgragskDXmWSKBAwpN22qvA1h+JIAEkMBqIYCmbbU8KSznWyGwkGnjAByc4BBg3AKVd9uD4jN/CTmTXFbfPUHZxd5vNPA0MCxQLPFtDC6W8FYeD2aKBJAAEkACCgJo2hQwMLn+CMxr2jiWoxiaZhkAsqqV3g732sY8T2R+c+BIWml9p54ykVncOCcwom8jjar4QgJIAAkgASTwtgksaNqAF+bV2y4Q5o8E3hcB2cBxLMeT7mk8cDTPs5RABpbWD9DBl6/u8Iw6kVncODAywdMsmQoEaEagKd49LuF9lR2viwSQABJAAmufAJq2tf+M8Q5fkYBs2nieF0iHNV7gRdMGYAXQc9Aw4DyaU/FLdEJESlbZwyfDNgeZfZcja12haXtFyHgYEkACSAAJvDGBBU3bG+eIJ65qAlJ4dVXfwhsX3mXaOCBhNpZsWZ6ngHcAmGie4oECaJxyHC0gvi3kQnbZ3WfDU3ZOnMPtjS+KJyIBJIAEkAASeEUC69u0SbNtTc+59YrQxNm5XAuHSxN3LXufJjnbeROvXs7ZR87b5D135+zT1sf7uaaNFshyCEQC8XCUACMAHQyk32zwjEmMOq8ur2sesZAp3DiBBNtEkpy0ygI5VwBOms1tfQDEu0QCSAAJIIG3SmBdmDb3BFocB7LIpKiz5Zpna16fNL1TzIQRBwwqt5zrKopspSenuKh89fkT4mz74oXk5cmJT6Bc07fKO2f7RXIK8RTLo9l9Gd9q/VuxmZPeauL0ue7KIwg8qTA0gB1g2Mpde9jhF5f6c/DZ5BvN3XayX+CBtljshklgnQxP28VGVeL2eH7F3iYWDAkgASSABFYRgXVh2tzPY9p4ufaIMbYZ1u0V5kd1mzClYyMzPohyTa8q5Sn1c5L/6r80MaOcLos2x7TNcGzuM17t3xkRNamIvMJjcrPtmnT8q+W91o6STdvcG+PEBa0GrVDdNnHwrO7bg2fitPc6RhjSTsqDQFMC7aA5ygZgkUJ0aNrmQsQ9SAAJIAEk8PoEFjNt85qM17/Eijhjhl8hA2PdcSmBIXEsgZM8jDhjqjh76kwzM8PYiR+570ppBKfTBN3MHIiBW1izDnaTnxuQc5vCmfnLxV48obyKsjCSQSGGY5ZcNyndl/uO1/G/PM/TLCO1mdoARlmo67Z4n8rZ4XXidGZVU7fFwZBoHMNSDOugRPtGlqNH07aO6wzeOhJAAkhgGQmsC9M2w7GRcMg8po00fr1Msz2Ne/VJEBgAmhfsklwNmgKnPJ5Moj9Tyk+VaZe1crfVzgjgzfRqShO2uF2TP1Weorzo/GlXRUPT5gYhzt/m5Din2EhqBRjj4E6XKTwxf/c/R45eKHjQOjblILPyOjmK4Z0M7+R5YtuW8RuLWSEBJIAEkMC6JbCYaVt7UIC8eBJXYznyp9QdWCJxNxZ4howZFCSDI3ZpIiEo6S0jNolJW84dkSIZ0U7KDGRYoVmAKYBJADOAmWNNHGsj8TyxyYx0R2fJxBAcK8jiGUEWuSgP4rKWYhnf5UZq1CO3L3A0xzgplqLJFGWSuxWJ8aRw87/WXiVZ/I7I0vK8QAngEMBGptglz3vIAaezbvwacDr8nKbqac84BQ4AJ0fZKavYT3HxLPFTJIAEkAASQAKvRGB9mTaW51kSUCMehAYw2XmzDSw2sNnB7gQHBTQNFAUOBzht4LAS2S1EVrNLFgtYLGC2gc1BthYH5+TIWkYc2CmYsvNjFmbEKRhYsLMCzbpDd6y42pGTgYXEMCCLlRwkK/pIqRVXSs+3ZTmgOaB44iHsYvhnka1DtBrSlkxgIcrJgZMDB0vkZIit5FmOpWiOYVzWDXg0bdKXiXhvnowJpcVoqjTprhPI1LvjDsi62vhn6Lm/oy5oa552TdktruEhr/Q9xIOQABJAAkgACbyUwDozbcBZwGknATG+Y8JYdqel/HZP2a2BkurB4uqeoqrOwpsvCm505F1vy69szatoyato0ZY915Y911xtnqWCa23515qqH/a1DVkMPJhAMAJlAKsRbDbgxyhn88DYs97JZ92WZ13U007nkxeORx3WRdTYbnnYYXnQbnrQbnjYZnjYPilq4mH7hDst7mkTP3VtTeLxpvp2U12nqaZ7Md3uMsmq6yTH13Wa7nRZ7nRZ7nUS3e+yNnZOjRksTqeTY8kkJiTYRiYhW++mzdXFUOykyPIwjwTy34AhA2SUNfqezPI5lZFz+2mnwW4SV5d/6ZcQD0ACSAAJIAEk8CoE1ptpE6zAmgBEx9bsH5XqF5V7MKrgYFSB3xG135Ec/xi1f4w64Lgm8IQu8IQuIFbnf1zjf1zjd0ztdzzH/9i0os6W+EZm+B3NOJFc8rhvcpyBSY7VC8wI6+y0mEsfNh+9rI06p406WxB5tiT8THFEQmFEfMEshZ8qkBVyMi84Thd0QhsUqxaVExQ7r6RP1Yfi1IditZIC47S+8XmqU/MpQa1SyPeU2i2t7ymtX4ImICHvcEJh0OmSw2fKQ8/kl9xoGB4zsFJzKJo28Tu0kGlzjWbhedIMLvqzcQqqWvShl4sCzuZmVT18MqCXpgKRsnE1lUqN8q/y7cRjkAASQAJIAAkoCKxx0+YehukadMmKLVlmFtr7bLGnC//0PHvuyu103bOCax2aiiZNxdPcyqc5FU9yKh5llzdmlzdmVijVkFHpUmZFg7riQXJe7aHj2dt/DS6te0oB2Jy8jeWHbY773UNBZ9VeUSmRpzXhp7LDzmZHnlcfPaU5elI9S9HxaknkU7diEnRKHT2liY5XR53MnaXIk7mRJzWidOHxurD4/JBT+SHxhaKKQ+JFncoPScgOOZ0uKywhXVRm2KlcooTs8PjcM4nXExJrDh0v/9kvJThOU/uox8kKpCUZTZviq+JKuvtBKj8h/SM5lmMFOw8mAe680J9UX/8uMO68rqp/zOGgBDvltDktHGlGd41TJv0p8YUEkAASQAJI4HUIrCPTJo0xoAGsFHT0OuISCsOjch4/s42bYNgIEzaYsBON22DUBiNuDdlgyO7SoAMGHfyggx+y85MMtA3ZLmnvfH8gpqzuKQPgdPA0BSYWrje2ex3NDD1/9WZ9/73mkQfd+oYeQ0uvvb3b2d7tbO2ZVkuvU1JrHyWrrZ+W1NFHd/TR7b1Ua4+zpdve0m1/rlBTj12Us6nH2dRNP+2hn/awT3vYpm5BIbqp19zUa5ylp33Gp73WJ33Wp33G5z3m3gGuqZWue8ZEX6pVRedef9BrdnIu00ba/Uh7oNgPcJ6xCK9T2dbEsfPGyUhPQJpnycLxNgEYgMdDjnhtzW+hZ49fUD942mmh5SUVGHn4y5rAgTeBBJAAEkAC747AejNtAg2CleE6+gxxZzTBEcnt3TQDYKFAb4FJMz9p5vUmTm9ixky0W85Rs1sW+7BLTr2d7xlnMosb/3vgSEXtUxaAcQgMDUYaSu82H4hOOZ52s3tcmKRhnIcuC7F9o6IdHLaBLNkODjtA1ggFksacMOaEUQc5fshKNGibVr8diGwuyR8NWWBaViCmc44GbdDrgB4n9Dph0AFTNjBS8GIKjqXc+CP4Ulldh8khujSxQxuathlfxzmmDXiybhWJtHE0w5FgmxVgUoB2I5zPr/lf0Kmo81m3HrdMUTQL4rgSVgCWzGOMLySABJAAEkACr0VgHZo2zsowHX2TcWeyo0+kP22ZnLLCpBmMFs5oYcxmxmiiDWbnlMkhSW+xyRq3Wlyy2MatbPcYnaS9+/V+v4rap7TbtA0ZmPL6joNxOcfTrjf3WfsM7NNBR+H97rzbL/Jud8nS1XbJ0tR2ae90y9Ld7cm/M628um5dbZfmdqcs9e3OReQ6rKZbU9MtnzIrob7dmV3XkV3XkVPXoqt91tQ7Zgd4NkbHpJT/dPBMcU2r0caSqJo4oZ0AZO0HjLS5vleLmDaWYzjByZNhvONOMAL0WiG5sn6/f7RX9KnK+4+l/m3iJDJo2l7rZwoPRgJIAAkgAUJgQdM2Y0Ja8sfbpdWFTdmnTWweJdOlSaYt9my236GEZ60GBwcmGxjMrMFME8dmpKZMjkmjXdKEySprzGJ2yWzV2/mBKT6j6OHWHwIqap+S9UHFSNuUHW409h08mRWTVNo57tTTkHfr+R8RyT8HZfx8WC3pxyD1D4dzfzic+9/AnP2B2fsCsvYFZO31z9x9MH2vf+b+wOzvDuV8H5C93z9rv3/WvoOZe/3Sd6tSd3mn7PBK3u6dvM0raavn5S1/X/zy78Qv/rrw+d8XPp1HFz/9++Kc/dJOst30D/n0i7/OfftHXFVDj4WHLjMcS6n62f9CUXWbyS6ORBBXQJdMm3K+MWUr6eqqD2+xtGKwjSdz6ZLZZJxApmozA+gBsu48/jXk+C++kXnldRNTDGlwFj3wWywMZo0EkAASQAJrkcA6NG2u5tHYM5qQyJTHTYYJCwzr+ddtHh0w2DtHHFklj37yOlZR+9TJiaaNAoMNqh4OBMRlxCQXdk5Y9TRob7X+FpH53yDt90FF3wcV7Q92ad/hwj1BLu0+XLDrUP6uQ/l7ggr3h5bsCy7aE1S491DB3kMFewLzdwfk7Tio2e6r3uqbu9U39xufnC2q7C+8Mj73TN/smbbZM22TV9omz4yNXrKyNnotKs+cjZ7qTQfUn/2Ts/WvizcbBkwK01Z8q10ybWSqYTIJMc0KNJq2l3z93aaNjCV1r2DmABgBGAQoedjmGX72T/9YXdHd4RHK7iAzLb8kQ/wYCSABJIAEkMBMAguatpmHrdZ3cyJtpG3KSkF7ryP2dOFvf57M0j4qq+4svt5ccft5xe2mittNZTXPrt5+VlrzWFLx7cfFtY2SCmsbC+saXKqq11bWR57J//an4LK6p3YeaAo4RjZtaTEpuhd68zgD6pr2/0Vk7wvV7gkt2BNasMutPeFFu9zaHVm8O7JYeisldoYV7AzJl7QjOG/bYe22w9otgblfHMz63C/zc7/Mzb4Zm3wyPFTpHt6ZorI3qrI3eudu9M718HqJNnprPvIu3OBVvPlA4ZZ/Uq83DJgEV6Ttl4BEOdJGprTgeTJLMJq2l30DxCVGyRhSIsEVlmaBM4BjBJguq1D1dDj6XPEfB89fzqntG+PMdlaaDO9lGePnSAAJIAEkgARcBNaRaROXkpJNG3X8dOnen2Jiz99IzKg5l3b9dPLVM8klp5NLEpKK45MLTyYVSIpNzpN1IlUrKTZFezazID650Dsy5asfAktqn1g4cDiBoWDKCjcb+vxj048m5XVMGMcoyK3u/DlcvTtEsyM0X9LOsAKXXYss3hVZvDu6RNIu8e2uyOIdEUXbwwu2heVL+jY075ugvK8P674MVG8+mL3JL0uSh0/WRlWmKJdd2+itkeThpfHwcqXlnXJig7fuI+/Cj7yLPTwLvzqQWvGw1yBApwlikq//EpBYWNUqRdrQtL3674TStJHly4gYAZgpxtBvm9RzYBTgQZslIbnKLzL15KXSJ+1jJrs4BYggropGlk8gwhcSQAJIAAkggYUIrHHTNuu2pb+LVppE2o6eLf3zcHJ+dW9JXXv53bZbD3pq6ntq6ruq6zur6ztv3n9xo75d1rUHrbIqHz6/1vC87O6TwttNMUkVO/6MLLnz1CKAgyZLURlsUN0wFBCbE5NU+kJvHach99bAL+GFYoytaFfoDO0MK9oVXiJrd0SplN4RUbI9vGh7eNG28KKtYYVbwwq3hBR+eUj3WYBms1/uJt+cTb45Hj4KqdQeM6TzUBF94qP7RJUv62OffKU8VPmfeum+8UyqeNgtm7ZfAy8W3Gyx2MHpoAUeSEsfcBww2Dw6qy4t8lYybWRlWuAooB3Ak7XFBLDzpOKl5db4hVw+eDS36tHEFAU2mkypIv6PQmyORt+2CFn8CAkgASSwvgmsL9MmkHgGZ2W41j5H9LlSz+icuhfOtgm+38hNWmDKDJMW0JuJxk0wZpYljJmFEYskbsTCDVu5HiP9pN94QXdnz4GjZfXP7QA0T0ZrWCiofTx8OD7vRGplt8ExyYO2dvR/URXfRVzdF0m0N7x0T1jJLPcmvd0TVkI+Em3cTNNWvCWk8PNA7af+6k2+6mm7NsOoTfs24tXcUrq0j3wLJX3sU/iJKt9DpfvMS73V83Llgy4DB51GOJJ07X+HLuXdaLbYgXLQrr5ZxLSRVa3kFw5EkFEskOAkx8YBRwNLCzwFQAlgcYKDgYFhuuxmi09Urm+MprCqVW8DG0MWM2UBSB9CNG0LMMXdSAAJIAEksJhpU3YIk9OrHRkPZN2C1j5H1NkSnxhNix4MABYBTHawWoksFt5k5cUZQDj3ljFamCmrJGrKSk3YGTvACyN3pejBzr8iiu4+NQH5e8ywZCBqTcNAQKwmJqnsxYR9lIbc6qGfwkv3hMyIsb26adtG4m0lW4KLPw/M2+ynmXZsPjkzo2vLZNqCLuuuNVnswDgZTnQS4qNH0/Z6FV+CJps2aY15s5OjydR3YLBDbeNQ4NFU34jL2VcbOkYcZpb4NnRsr0cZj0YCSAAJrDMC6860AQg2lm/us4efKfaMzmkah1Ea+iYpYtpsvNXGW6ysxcqazWTOthmyUEarS1NWxgTQpqcv5t/b+VdE8b1nFgAnC6w4e0hNQ1/gCWLaOvWOMRZyaoZ/ibi6BNNWsi386pbg4k8PaueaNmnkARl8oIi6yWG2T3x0ykjbxz5ypC3/Ex/SfjpPpE00bVYrsBSLpu3Nfg3c/8MhEUop0kYLvGTXbCzv4ARKAKMVbjd0hcVn/R10NqfiUceIw8aQdlJc3urNmONZSAAJIIH1QGAx07Ym7x8AJNMWdrrw95DUR/1kEtTOcfu4mZkyUVMmatLonDQ6J6aouZqcpCSNG6hRG/+k33hWXfPt7yFl9U1y8ygtgGTazmRVdxsoPQ+autFfoisWMm07w4pkyZ3bZvZpK97kS1pFN/tpNvtppLTUSCo7tlkJpWmTO7R9oprRoW0h0/Zb8JWyui6rFQSKrJLJAunTpuzQRoZGKl5rspIs8abcps01tsD9lmPJRB+MKM5is9sYqG8ZjjiT+3tgQlbpgxEDwUrRPMMwsyAreM9OLrGoeDoSQAJIAAmsIgLr0bQ5OKGp3x6aUHAgIrO6ydQ+wT/qGm3pn2jtI2rpHW/p1bd2T8xVW+ekpNauyc5x+/2O0bj0a1/9FHD1/jMbiCMBeRJvq67vDozJSci42Tv1JqZtR0SJbNqkIQiyUVMmPHxyNnrnbvDKkaT0bUs0baW1L6xWAFqQ+rSJjg2bR1/jS+12aUrTRgZzsECx4GDBxoLDQTtsFDthEx62j8VeKvr+7+ij5/I7hylxUmPizKTrzfZoc96/RrHwUCSABJAAEljlBNajabML0NRvD47P2+95OiG7NqP4blrRzZSSGlG1ScW3k4pvJxfeSi64LSslv05WWt7dtPzbibnl59SVvicyNn1/sLT+mRXAyZMlJZfRtG0LLdwSkv95IGkV3eSjdUmMur3VSBuatiV+qV2mzT3FrvhWMm02FkwsGFiw0EBbnBTFkfURWnqMsZdKfvA9HxiT1fisk6KoOd5sxvAE5adLLCqejgSQABJAAquIwHo0bQ6A5gFHcLz2vz5nws8XxV7OS0jPj03NP55WGJtafCKl6ERK0fGkwhMKxV0uVqiUpK/kn0gp+jMy6T+7PQvqGk1iq6uTBZMTbtzt9I3MiE+p7BwnAxGyqgd/CCt59eZRV6QtrGRrMJnm49ODbrsm+TbZtKnUyuiaMr2ESFvFbyGXSmo6bKS5VxFpwyk/Xuc7vbBpc7BgEX2bhSMd2MhLWtSqa4Q5m1nzo0+8KjjuRt1Dk4Os/UpWEXNLeX00bUoamEYCSAAJrB8C68y0iX8nHQIxbUEnc3/yj8+rba169OL2k/a7T7vuPu2RdO9Zr6z7T3vnU3/d076r97sikiq//F9wfk2DTVxr0sGB0QG3HvR4haWcSr3WPW6fYKDokfm7sOK9oWQ6D+WkHnIPNjkh2TWyDb+6Pbzy68NXP/MvFGdcU44MVX/iI0u3QaWRNMOouef7+MRn+oANKs2sY+SBCNcauo08dJkgJqXy99ArxTWtNrsgUBzLA0smjaVFiUlxDtn18/VY+p26m0rJoAQOGIU4huM4luNYgaJJvdSbmOKbjd+rTv0YcC6ztHbI4HCS+dvAAbxToHFg6dKfBeaABJAAEljtBNaXaeMEEMTFvJ8P2oPiMw9EJd7vmRq0CZM0jJnYCaNLehMna8rEzJXexI3b46T2agAAIABJREFU4OkglZB3f+s/R/JrGp0gLhPOk0jb7Yf9XmEpp9Nv9kw49Owbm7brXx0q+9SvaKOXNFOuy7cpHJta6clmGTL5rezqXt20FVW32B0g0AyatqV/vWeaNlcvN8n/io6N+DY5cjZuZkofjPwemfFHyFnNtfquEQMtRtoEMhxk6WXBHJAAEkACSGB1E1hnpo3MqAAOgOdDxkPxKT8Hxtzv0Y8zYKAEi0Ow2V2yO0CW08HPlc1JWrmejwqn8+u//iMiv6aRUpi2moY+VXjqEk3btrDKLwOvbvYtdJs2eZEDOcxGTNtL9camjaNoNG1L/3K7TZtyUIKgNG3SQFGed41AmGCgqmksMvGqV3RSctG150MjtOjpWJ6sAyu9ll4qzAEJIAEkgARWI4F1aNoEJ0DLiCHwVNIvh2Ib+0xjDujX26dMjMFISTKaaElmI202OefKaGL1NmgaZM8UPNjmGVN4i5g2RhyLYKRI86gqPPVM6g2pebTwoXF/aNHrNo9+E1L+uX+Jhyr/3Zu2wqrnDiegaVuW7/NLTRvHcgzDSME2B8OzQFYprW0zJeTe+j08/mxO0fOeEUogPeDcno1floJhJkgACSABJLDqCCxo2siSTPNp1d2hssCcOHepE+D5iCkwPu3P0HP3OkxGDsZMYLaDRZTZBmYbmKwuWSz8XJksYKLg+RAXr7n35a+hBdUNNIm0CQ5OMNFws77bNzwtIeVa9yhZe7SgwbAvpGAh0zbdj02c6UMehfClf9FmVYGHl45IXEjUvZ3u3+beM+uAGW/lReI3emtmTcC7UJ82NG3KOvOW0rID41iO54kP43me5clqV3aAQRqq20YiLxX/FXYx9rL2/rMOWiDto1Jb6lsqEmaLBJAAEkACK5zAujVttsCTWf7HNaV3hhvbqCft9uZOc3PnVHPnVNOLyaYXk8869JKa2vVNHeOzRD7qMt56NBKddOPTnw67TRtIpu3G/S6/iIxTyZVdI5YxJ+Q/mNodnC+PQpBXF5XGH8w1bdvDi74NKdqsyvPw0m3yzkfTtsK/Qm9WPNm0KRMsTyaOsQNYRN/WPAZXCh95RV8+fOLSrbsNVqtVEARp+2YXxbOQABJAAkhgVRNY0LSt6rtaqPAcCCyQP4rPh5nAuLz9BxJjEu8kpjYmZTaez6o7m3PrbM6tM1nVZ7KqT2dWnc6sOkN0Y67OZVw7nVxyJu2a9/HszT8eKr79mBM7jNPiMqZVDT2BMTln3QMRCh+Z94UXv5Zp+zJA6+Gl2eSdL+lVImoLHaOcCgQjbQtVjHe/X+nV5DTL8w7gbSDYxVpqFGDACRk3u34MOOcVEH7jxg2j0SitlzCnwNOrVkgNsnMOwB1IAAkgASSw6gmsM9MmrstETNsQFxhb8Kt/WrK2taCsR1vSmlH0MK34QVrxg9Si+tSi+pTC+27dTSmcrbSCu6m6miuaGp/Y3I3f+ZfWENMmiGMRLALcFE2bNBBhgoPFTduucLL+gSwxzFaw2Sdnk0q9yVsnaSFD9ir739y0OVkciPD2vt+yUVMmWJ6ngCVzfIjtpBYOzABdFqh8NBYSe/Fw5DFN4dW2zh4WyPJiZIUxsc3UvWQFWbVC7kL39kqOOSMBJIAEkMD7IrDOTNt0pI0KjFP/4Hv2XoulZ5xp7ZvqGJh6MTDVNWjoGjR0Dxl7hk29I+buUXP3qFVW14ila8TSPWrtGDB2DFuf9lrP5T/Y/teR0prHwkzT5n8s53T6zW69Y4KD/MfmvREzIm0LRt3Cr24LLf4qUCeatpxNKqXUxMap1B5eubKUhmxmWqPoypYrf/TKkbZWMhDBZdqAdLUiU7XhPG3v4kvKiqBFuwy0IHZx48HAQemDzoCTKb8cjLqsLm3vn7QDUAB2MpGbIJDp36R54KQtWrd38aTwGkgACSCBd09gHZo20vb0fNgReDLH91hm+ziYedBb7UY7bbLRZjtrtrMWB2dz8nZKsFOClQZZNMDYlK1nSN83Zp6wwYAZ0q8/33UgpuDmAzIQgQcbA1M0lN1/oYrKiE2paB8xD1KgbpjcEZynNGrKtDyz7q7wku1hJd8EFXx+UL1JlTVT0+5NdmweXtNuTLZl7sSbmrbk67+HJBdWzTVt045N6jX/7mvqOrmiMvAmpykBJjh4Ns6Fnsv+O/hkeELq/bYRK5m8jYxZFteh51jyHxKyJr0cbMOp3dZJncHbRAJIYP0QWMy0KX/95fSqRiP2aZs2bf9EJDUN0nonDBuM40bbhME2abRPGu1TJofB7DRaKaOVmrIysiZtTH7ZjWPx5xMupt151P6k15R2rXmPV0xRdSMr9mmjOBIUqXzQ5XM062TatY5x6wgDmkeGnWEFSqOmTCtNmyLMtkTTNr+fe3mkDU3b+67fslFTJqQBCkYauibp+Iyy731jjlzJu9c+MsWSeBstzhctTu8sSNZNDLy97zvB6yMBJIAEkMByE1jXps07OrVlhJ1iYNRk0ZsdkleT7JocdTPZeVnjFkpXei006sTlDN39Z52tI86M68+/+S20+GYDA8Dx4GRgioXy+k7Vkcy4lOttY5ZhGtSNUztCdXvCi5ReTU4rTZsyzObhnSlL2U76apG2ZTFtZAYKcXowqclu2kUsdyXE/KYJTFOemQIAg8VuB+Lbzmuv/xIQExiXdL2xfdDG2QGkVdQk30YDywqsNIeIlMd07phCAkgACSCB1UxgMdO2mu9r/rLPirQpTduUGFeTomsmG2kqlWS0sbLGLVTPyGRn31jvqLFfb++dFNIqmvYcOFpS1UgW9haA4sDEkkib35Gsk6k3Xow5RhjQNRp2heXNNW27Qot2hRbtDCPaEVr4bVD+lgDd5765n3pnfeqdtdkrU6HszV4ubfTMeT15Txu4V4203Wx3OIBz8qy4qrn4hx+bR+evUe9mLycOoJFGHnACWGlBU1b966HjPx46rq15+sLMWsR2UjMHVoZxcgzD0xw3oxuiOAkc6Zb4bgqMV0ECSAAJIIG3QQBNmyvS9iqmTW+lO/rHHj/vfNTUNTBBTFt6ZfPuf468mWmTgm07Qgt3hBZuCynYEqj56qDmM58cybRt8syQJTu2zV7Zr+fYPHPcvdyIdVvAtF289rDTtWC81DyKpu1tfNWWkCcnkDZQGsj8usALNM2aHGzZ7UeekQl/Rp9Lulb/bMKhF8C1AC7H0BzFsBTH0dLyplK8TYqXLqEUeCoSQAJIAAm8ZwJo2mTTxhgtzOKRtr4x45O27roHT2vrn0mmLeP682Uxbd8G5X/umz0rzLbspk1p4DaoyGCFz7zUWz1F0yZAlwliFjZtAsfKAp6T9Z7r7/q4vGTaJE/GCmTJK4EHk8F4/1GTb3zKH8eTE8vu3Oses4qLYXHAU5RDcmzuJlZi2FjB1Wy6PpjhXSIBJIAE1iABNG0u02a0MGYzZ7aQwQcmG22000YbO2Vn9Q5W76D1Tqfe6Zyi6P7JqZ6RiSG9TWoezbrRsuvv6FmRtmv1pHn0VErVizHHKC01j2r3hBeQFlJZYSVypE0Ks33qnSWH2aTQ2ibPLEmbvXIlkRGjpHlU/Yra4KWW5/5Qrhy/QZX7kU/uBlX2p95ZWz0vXG/oMPPQY4RjyZW/h17Jr261O4GlSJ822r3qpezYBI6VHRvwZG4wfL1tAlLzqDTggBanZ6McTnGmNrjfMRx0UftrxJnj6SXNY1abNMkz4xRjbGRpLPHFsgItSZzU7W2XF/NHAkgACSCBt0JgzZo295+rGf+yPM+QGeehacgeEJflFZXyfJiZpGHMYDIbWauBNZucRrPdTnN6q3PYzI46hEkBBil7r2N8iNaPOvXjjim91a630lMO6J0UJNNWfLOBcw9EMDFQeb/DLyo7Pvlm54hjhAJdg353aO6eUK2ovD2heXvDCvaGEQO3K7RgR2jh1sN5nx9Ue3hnKgYcqD28NHPlcmBeuo2vpg3eOlkfems/UulcW9/cfx9M/9Av1UOV/I3n6Rv1rVYGBibhxOWyP0LOam89NtJgpzmGE6SpwmiBzNYm8LSkmaZNmot/ekb+t1JP132mnECm0pUk8FI7KXHMZifT2DkUl135a/iFqOSSqqc90trzYjhOPJ5MAsJwpL8lxQHjnol33QNFAEgACSCBVUgATRsxbSNGk9HEmo280UQbzE4TDQYWRh3QaYQ2I93jZAY4ay+lH6FE02azyqYt+2brzr+iXm7aQjR7Qold2xVasCvUNf3HrvCrO0KKvw0q/DIgb7PP7GXgX9GWzT1MdmkbvHUfqab1H5X2Qx+dtP23r+b//DP/fTB1o0/qFs+z1x60Wxnom4ITV0r/CDmtvdU4xZAu7QzHkTn6xSleyYDEOabN7QBk37YKvwGrvMgcQ1EcPO2fulJ898+IRJ9jl6/dfTJlpcjIGNfCCQILDIumbZU/aCw+EkACSEAQBDRtLtM2aaEnzbzewo9bYMgM9a3G3MqOc7kNCbl1eXc6mids4wAjDvu43aonps0pRdpyqtpezbTpdoWW7Ay9ujO0fGdo+Y7wyh1h17eHVn4bXP7VodJP/Yo8VPmfqAqV2uCdL2o6VKZ0Y4uklUbtQx+drH+ptP9Saf+ft+ZfKu3/+Wj/P1/t//mqN6hyv/C6VN7wwsAThxqTVPpH6Km86gYx0sZIIxBJsA1AHD7qmq5/plfD79F7IwA8x1F24DkeYGDCWlb39JeAmJ8Dj1c87ByxcIw4pFQcwcCxrmAbRtre28PCCyMBJIAElk5g3Zk2GjgrwLNBm39sptw8OmQy6a1OvYUdt8CIFYqq24LidHv+Ttjvfek7v0s/+l84crnkxpPeERuM22ixedRpcEKPnpcibco+bWYWbtS/OBidk5B8q2PIPi41j4Zods4ybeGV20IqvvQv+tK/aLMqb5N3vodKls5DpRNbQsXZOlTZG19TG1TZsj7yyZb0oSrrPz5Z/1Jlkq1Pzv/5qv+jUm/0zv3Kk5i2SR7azXAk9eovoQmaW48nWbAwHMWT5lEHENECSI2jLM/LMy1L4Zyl10LM4c0IkHZq1klZpoC2Sa2itc29v4Sc2esfV3S3SZrCzSlOvUu7GknRtL0ZaTwLCSABJLAiCCxo2si0Y/NpRZT6FQoxoy+b+420ILcF4OmA1e94hsK0GRziSo5Tdqh/Pv7P4cSf/c75H9ddLnoedbnGP65oxx/Hws7oGjsMJprMvGDjwOCEjhEqvbJ5519Rc01bQBQxbZ2DzjEnFDyc/O+Rgl3B2h3BeTuC87YH6b49pNkepNsZkr/tsPabAM1XPtlfemd9oXLLJ+MLn4zPVCmikj5TvYk+9UmStck3SdJmv5RNB0X5pX3im+Hhk/WZd8ZWzwtX77UYADosEJVWvj/4bPL1x11mGHMSr+YUJ261ir7NwQkWmjXbaU5caBXcDXByXyvJzL3Cw8FDlocAMW0cDawdWCvZio+p/PHAn8eSv/3n0MWSGy+MlEWcK0Sy1+ITm+7z9iqp5Sko5oIEkAASQALLQWDdmTanQJsFeNJv9j2WLpu2EaPBaHcyAAPjdIa25n/ecccTrz7qo4cZ6DBBdYslMC7vJ99TJTUdA1O8kYYxq8PghLYhR2r5U6VpY1iwMiTSJpm23lF22E5Mm+rCzd+O50v637G8n49ofovJ++N4wW8xef87qv0lIvfn8JxpRWT9HJH1U3j6G+uHiHRZ/41Il/V9VIZbWfsis7+LyP0hTPNbaOqDln4TR6b8CEuu3H4oMSj15pWKhzea+u+1jzwdsrywwggPVrGDlDjdBOksRQPpJMW6ek25+8gDWaocX++MgNu0OYExi77N6WSFMSdUt435X8j4xuvQsez8Yeb/Z++9u9tG8rXBT7P7Cfaf3T27O/d97525c+87oaenezo5tN3t1G5nSZZsBcuKTrJyjpZkK1qWbeVs5UBKIkWKURJzziQyak+hSAhK3XY7tANwnkMWwQJQ+BVAPPxF4KYh/2ZehqPt6fPOzkU8kCgBUQKiBEQJ/KoEDiRtv7rle94hplzb8U4xzEGkLYxR4SCjVjsKi1qTb1bMr9k8LLAywESDLRK0jip+Sim7W/lsw8X6aGD1w+hRhSFc81z6z9PpfCACQYIAAQZmVPHpTXlVIwYHawqBcR14MGNrm9vqnNV0zmo6ZlStU8rOaVXXnPbxrKZrTts1rXo8ub4LHS+Ur4P2SSWP1iklQtv0eutMFC3TytZJVfvERveYyuwMhHHW4AXXS/v/kdJ4snTwdF7Ht9eKT+dUJ5V13u6cqRlandPaNh0+HwV8BIiwAGMgIjTAY8n6+Xz97/mF8bEND9aIJwCFQU0bGcYjYZrTt70wuRPr23/MzMt71D2zvukOw/oWv2H52MQlno8oAVECogQ+ZAmIpA0FIngsNlfAT6rVrrv3HnKkzWIjgJFkNEHcAcDAsulkUn56YYvMEPEywE2Ag0ibDwcDU+txqQ35lZC02TGwEYG0z4gDMwcTBowh1hwBNhzCQQEnAez4btgw4IgIEAaOsOCj8CvURh3CwBbZH1YsekQbDiwEMBOMFYcRss4QIEgQwYDFDVLyn31xtSarS966aK3ol9yse3a16NGJjKpvE+4m3W8ofvj00eDMk4nFObVJ44Ry8NFcFv5Yvn6keNtrJOV94PZ+9SHfO+/H2GkGZs6jCQiG5GgZtGJbAVjyRAofD5zPLc6tbJ1TmHwUVLa9KnN7P05SHIUoAVECogRECUAJiKQNkjaTz+PFSbuflGn8JbVDpy4XPB5Tb4WBjQVmCmyEQXn7i5NJeffrn8uNYR8AXha48P3MoyQIYmBmwXw1uaGsesLiAj4MOCPAQ0AfOHcEwhkG7jCD4IkAL8Z6IowXY70Y6yNAgGSDFAjCOAA2SLBBkt4JMkgKgQdJBDJIgCC+BwQIEiCMRxEhQYQEIRIEaSZARyBIOkACX5CJ4MDqAnklPccv3Hs8rHARwM8Akz+yojc+H1+o6Rq/Xtxx5lbj8YzKk1mV5+423Kh9XtG/2D23Ma/wGqzwKBEGeDFUbYn1BL0AAIKiIwQOI04BSwAW45gFJZpQ38Ivz87MedBIHQFMAACNPdw5JjuXVR1379HDac0mAULsbjspcneLOb3tVsa9hcGKuxQlIEpAlIAogd8oAZG0IdLms/nDXgJsOkFHn+LI+Xu3qgb6JVapiZGawLNpQ1xO7fErue0jks0gsOJg04v5KKC2kg0D8q9+zno+LkXPOoaFrGhGakxMbaisH7f6gJ8CXgIGLvjCkBt5A7QvyASCFA9/mEKAZRiCEU8g7AkEPYGg2x+Iwef2xxDwuLfhcgd4eNz+kNuHu324x4t7fBEEnzfi84YQ/J5Q0BcM+oJ+f9Ab8HsCDk/AAffmD/mCAMOB3Q6Kirp//jmnb0ASwgBG0yx0WWNxGmrUFozYyEakZX6roHvuauWT84UtJ3Jrj6eWXrn54Oa99tq2yaFZ3cK6TW33uwg2DCDvpLiUE0GSDAMa2yZttOj39htv1lfZjGEogmUiLFA7iF6p+URGzeH06voJ5YYfKttYrhAW9wavXJ637aZsXLXTVzms2FeUgCgBUQKiBN6iBH6JtO2yan1Ytq0dvmyxDwf7tPkcvnAQB+4wWFYHbpc9u3yz9kZ+W3ZFd3bFs4s3yo9ezK5sHZGbgk4aGIKEJUw5IkBmCNU8lXx+Kq1rcI5iAUVDxubEqWGJ4nxy0f3a51p30EoQRgyzE4w3QAYDlABEMAARDlLBMBEME4Eg5g9EvP4ggscXiiHg8cXg93m24fH4EXxch9BOrhbhGFvE7wnxCHkhaeN4m9/nd0H4fB5fKBAABA6cdlBS1HnubNZAvyQciZI2AkBtnxtjfAD4AXADsIEBpY+d0vvbptUV3fPX7rZcvFl7/kZ1fE7jxcz6tOLOqifzPXP6VXPQhiJtWRBiaIyz4cGM/FxSfqFmCLXf4jX+6e2aoQFBQrYdAcDHzdpzqeHn202fX84r6Z5bMYeDJJQ6YCkA1aB7qdr2mk9PeOIZixIQJSBK4P2VgEjakE+bLxChvQHa4WGMLkaq8hbV96XcaTpzNf9k3O0LKcVljf0qSwS6i2HMpjdowygXDtZMkfrny/86ffPp0CLUVbAwoNLN0MMrinM3Su4/6NP4MQvNGkjGRgN3CPgC+8Afgko4fwQigEH7ZoizYAYIGNPwSyBBAGG/bkJTaRgDEDiIEADnXiPQZsqGcRYZVb0BEMGBzQEKi7t+/nmbtIU522uIYpDazEfRbooJcvqzMABOBpgxoHExy1vhvjl9ZefUubSqw+fvfXX61ncX7p3JLL3V9LRXsr5i8lhxxs+CMOf6xscrRCsyvb+3xoc8MgZEcBajIGkLAmCKEDYGDK85r5c9/fPpzPSa58t6Ow5JGwN5m0jaPuSpFscuSkCUwCclgV8ibR+0IGLKtR3vv6Bp8/vJgI/2+2l3gPVgsBCnXBeelTtH5/TLGo/VC53SnGEmWjw+QhxE2nwAvFAYEu88yix9Pia3jq0ZR9esYzLn5Ip7atk7veKbXvHNyvxzct/8mn9+zT+nDMyt+xAWVIE5NcSMOjC66pzWhOb0xLQ6MrziGlf4J9eDkyo/j4l1z9iaa1zpntYEZvWhUbl7ROaUGOlxhXdc4X2xxkHhfqFwT64hOGcULh7Ta04IuXta7l1Yj0ytBiakgax7j8+eu93bt+jyYgAAnKEhYnUrcToWNMrFJ4YBHWbZMMfGQjQI0MDmAxKFp6VrKaes++urd/+ZdPuLxFtfJeRcL31Y3D7Yt7SusPrNQRrn7HFBCpB8xhDOQZ7P9/ZBX3jvw+A5TRvASIDBCWKDAHgYYCeA1stldbmYm5xfv6jYxGmOtv1iLpD34XTEMYgSECUgSkCUAJLAJ0ja6J152nAXwdo8voCfDPnIgB/3B3BviHEEIQWxuIHJDZx+qADDaOANE94w5g2H3RHMgwOFJdzwXLKtaeNSl/lZMKsyZhZ2nk0sP51w72TinZNX759MKDoZX3EyrupkXNWJK5U/Xin74VIJwvG4Eh4/xJceT4A4llh2OLH827jSr+JKDiVWHk2uOZZafzip6sj1ag6VR65XHr5WcSip/FBS6dHkimNp1cdv1H0dX3woqfzbq2WHrpbwOHK1COFoQtHxq4U8jsUXHYsvQoc+e632bFL90XPF3/+Ul5ZRt7i0FYiw1B7SRqJaSLBMAkMAigAEB+g7BeslMACnAEbAQFQPASQO7KnCWNQzmVrbdTwt/+vLOYfics6mF+VWPW7qn5tUmleMgS0/jKL10CAMuNQhDKAYQNIswzDi/fk6EqAYaKxHbBtjWYyBas4IC0Wt9oLbTQNHr96+WfpwYlkT+rVo0tcZhritKAFRAqIERAm8WQl8qqRtMwiT62ZUyc1R0hbykWEvGfKHAoGQNxiBcQOcvTIQAYEw8IeAP8z4w4QvHPaF/d5w2IOzCkv4Qc/yV6dudg/O0wDQDBcvyeAmn693dC37XkvSzdLEjOLEm5UJN2sTbjQl3HgYn/7wyo3my2mNl1LrES6nNVy6UYdwOb2BQ+OFjMYLOS1nc1qPpzV+HVf+j3MFP+d2HLlWeyz1wbHUeh4/32r5Mb3+6/jiz87dPXyt7FRWw4/ptScz6k9D1CKcuVl7JqP6TEb12ZvV52/WbONG7fkbtRfT4DDiUhviUht+jivPK+3vGVTaXSBCgQjNqdkYmqShdxTOsDy4klaosBWkWQiQ0lGAJAFFAYoFIQC8ADhYYKHAhML0aER6q6E3Kb/lq4u5f/4x5au420klHbceDtcMrAwo3HIb7oVeb9sMgmVfgboJtalv9vb4EPdGAzZaI5aBTJrgCBzHhmmMZXEAVW61/ZIjycVxBY8GJVtebHc86bZHmxiI8CFeAeKYRQmIEvh4JfAJkjbWzwDpZjAuu/5SepXSiHsx4HT5Qj485MMDgUAwGAyEwt4A6fAAuwu4PIzLQ7jcEbcn7A9EAqFwIBT0hcMuglXaQg96JF+dvhElbSwgKJJiCQBAKAI2NkMrMoNUvimVmSQym2TVs7jqW5L7l+R+yZpPqgisrAel68FldUCqDknVuFSNS7QEwoKWWbSA8U1Q0CX/4krpT7c6Ohe99aPGpklr05SZx8NpU8FjyZX8rsPXKvI7l0Z19LieGVCGBhUxKAPDisCIwjOmcEys2SYV9uk1+6QCYkrmmJY5plddsyuuJbl3VuqUyt1mB/CGoU4xRMK4UQJQOEfaIG9jaJwlkMGUJ2rCBkkDmC+MghY3GrqvURjAIgD6wHkYmArED4DSAUYUrpYX6ttNQ5fuNf7x2NV/nM/8Ia3kyp3aytanIzMLOrPT4PR7MRhvy1U6h1QYel5xiEU5Cgus0SxLM0yMpTAUy9JcZMN2n4/35t3/zKKkjaWgUGiocmMoKBKaJmgaWr1ZAKwUeLJkPJpScjarumtMag9Cvrxv1o/9jyGuFSUgSkCUgCiB30MCHy1p21eYNFf+PMCC1a1gYnbd1RuVegOGh4DfGQoGMU6LFvSFg94gVLZ5g7g3QPpCMK4zCn8kGMSCwbAvhLlJoLJHHvTO/+3o5e7BeRJApkKSJMtyibBozl0r5jNEM5B8wAjTnSC4cgJhGth9YFWDy7dw2Ra+YiAlRnbaBIY3QP5T2ZcJpRcLutuX3A/n7O1L7uZZG4+6CcPd9qXz9x5/fbWsZkQ/oCKH1dSQCh9Zx/tWAyPr+JIZrFjBVgjaxSKcCZLgwghwrg4VwQKcgYCWzZg1DWehpRKVh6dYCoLjREJtFoN40Z5XIYejGIZgGZw7KPR7Y2CGsBADNXB+GpgDQGH0jyxqm5++uJFfdzLx1vdJuUeSss9ml6ZVdlQ8W+heNM8aqDUbcAdBJARIIpoWlo0wUA3IAkAygCBYIkJTIZoJ00yQQ5hluHxwUN1HRatrcSV00fUQDYhmY3W32I+56hacMsFJaVl4AAAgAElEQVQccRLgPnPXgCEAOqbWz+fWnc6srH0+545A0kawkN0xgGHgJ7jw2UBesrHvfSeuFCUgSuCDkIBQy/4y7Q/ipD6yQX6KpM0HONKWU3P1RrnegJEB4HdEAlHSFvaFwxxji6BXSNegdo1DjL15w4SbBOtOrKl35u9HLyLSRsF0siR8ykFbqQDc4w7pinhfe9SAmwCg1DsbWqavZzfFZ1fH5VZezq2+cKv2Yl77qVut312r+uvP976MKzmT23o4ueZ0TsvJrGYepzKbjybXfHmp6C9n7nyTUHYmo/lsVsu5rJafbjafvtH4083mK7fa8pomZ5ReD85idNT4yMAktyTBMsiBjKRZDjTJ2UM5poXc1JhdpI2Fyfc5UFzQIfcqJHPb+q6Y7gsZUqFdlSt4hRghzsIQhGhEKgE27P6VDduw0ljeP3OlsPHQ9byvE/IOJZX+fKsls2aoqn36+ahSrvW5fPA3BKb9h6pMyC9gKCyO03iYoaOkjaGDLINBjztY2Qnpl6DKjV8+OdImmB7u7wQNqybAbB8AB8BGgR6J4eL9R4eT8qvahjVmGH5CQG0pycAse1Ap95Jcje/Gi1psiBIQJfDBSYD7bX2Flw/uBD+CAX9apI0C0OfdC8CSyX/ldtXFzPJ1ExGIAJeLjGW7JQJBwh+A4QgIvhDhC2E7EA67w4SLI23NfTN/P3r+ycBMlJ1ALiSgazHqJmRsfJF1xNgcQdDUtXgyrub0tQen0ypPpZeeuFl84mbpmcy60zcfXMhpuXr/ydnM5lNp9UcSyo5fqzqRUotwMrn2VErd6dT6n282nsto/vlm4883HpxPb4RIe3DhRuO51IYTSRUnkiqKH40Z3WF0I9IswFgCg4ZOjkghBdsOfzWoIUMQkjChzuagtrC/sM0ZVaFLHEbTGM3xRQCdq5ABNAxAgJsUKwWUruCM1vZkaq20dTglv/lCdsMXV0oPpzRduPskpfR5U69seMGkt7G+EFexieJMfQwAJE2TOENhDMUdgcYYhoCaPi4nHMvS0DYYBawWIKTOH8E9/PKnwBmOIWmjORWvmwKGCBiUWXJqe49eupNX2yUzmlioXYPsGqozOXUbT8hepvHygxF7ihIQJfC+SeAV+BrX9X0b/6cwnk+WtHkv3646l1UusxJuHFg9rDcIeLgDrCsYhTsEC0/BZB8cHBGGA3CQQOUkm/un/nH05yeDU5B/sAAnqVcibRgAq9pQbtnQscsNj4ZtTyWu7hVT94qhe8XwbNk+tOYfWQsMLLvHFMFxZWhcGeqVOIflfoQhmW9w2T2y6ptQhqZU2PCKZ2TVNyYPTChDg8vuCWVoeMXTMb51OfvhtTuNG3Y/ztWoJGn2JUmbkHXtMrS9KmkjaRrtLcacSBoaPGHwKc5iETYSYiNuzI9SgYQB8JEwwcqmHZ9b9zycMNzrlF28/wSGysYXnU6rvH7vUXHjwJOBhcXlDYsNszkwuCMSedSxkL8xBNIRxg6HGBtH17giWp8saYsp2yBpIzgDfphLvSu3kbXdc9/HZafklc6urftIjImVTBASNaHcUFv4LWp/Cj+a4jmKEhAlIErg95LAgaQN5ordD7/XQN/IcWnAYixNACCz+ePz6r5PzGvolfTNaJ6OrT6fXIN4oXz+Qtn9QsHjyZSSg+rJlKprOoonU6r+eV3n2EpOWdM3py8+H54mAfQMi+BslLQJ9Wmcvk2obEMPPKhpY4HRDQprJ88ktjQPWEbXIyNqz5DGNaL3jG+EJ/TYiw18Zouc3iReaCMzW+TMFjmlxyd1GMKUHp/S4y82opjQY2Pa0KgmOKoJTm0S/WuexmHV91dL0+63GhxBaAwlWZpi8ZimDVKnKJCFFL7u5mox+xpMwrofhAROuG20jbzitvfKab84RQ50qGMxDmEKQBAwYQjBJxCBnnYMTP9m9kFz9qTC/mhYdqu+/2xW7ZFrJd+nVh6/UXM1vyO/ebRrVLaksNrddCgS+6PIwtgF6J/FxUZAgx9nBd5LO97IdfUB7YRTttEsy1KcPg35GgZYoPGEi1qenUrITb1TP7ag9WDAi5MwEzIHqD7mHAEpLspklxiF1O19E0Xs+n3Z9/dt/OJ4RAmIEhAlIJTAp0XaoKaBM6npXeGKzpHTKUUnrhWdvVZ4IaX4XGrpmeSiM8klZ5JLTiUXR3G99HRyOY+TKeUcKs+kVJxPKzufUnA+9dblGzlSpYYGUNnD8E+5lyRtAHgioPnJ0qnL1WeuPbhy++Glu/WX7tZevlcXf78p7l5zQt7DpPyWxPuP4u42JuW3JOW3JOQ9jL/XjJCQ9xB+vB/F5bzmi3cfXLjTcOle4+W85p+yqw8nFR5LLKvrmItwHkoMVEdB0oazBEdi3hFpi3m4ccEJsJJVzLcN+p9hLBNmmTDDIiDLZtSDniRZHCdxgsFZgHFuWHYGSEx458JWbvtkfHn38ZvV3129fyzh/rnU0tzi9gcdL6al+lWVddMadgagcQ/VP0WUmo+TEHIO4c3wKbR50sbAWYlyWZjIDcBqH+19S6fi8s+llD/sXzRhrItiMAFpQ/15MfIETiRtn8KVI57jpyCBl/1zE+v3KcjkfTvHA0nb+zbQNzIe+MTinKv9ESDX++s6Z+5W9GUVdOaVPc8u7s4qfhZF4ZOsKJ5mFz3jkVvUnV0cRWZhZ2bRo/JHXc/GJ30ExQCoZoN6Hl41IXyUxZJWCOkC8isiAFBt+tqfruSVD2QUd9wsaePQkVHckV7YllnYnl3cmVXUkZ7fkl3cmV3cmVnYnlHQhpBZ2J5Z2H6zqD29GCK1qO16waOUwhbUSLzXlHjvYX7T1JwyAN2TOB90moIGxBhp21awQasiB6G2LHZjwnehmk2oXRP2EW6L2sJvuSAGmJIDxiGwEMh3DtAEyyCVG0axnGWTy/2G5gqpzmiuRFiIhEY9HAAXA8wEow/hEotnVGGsfj57s6rnp4yG49crjl0vvHinJqv+aXHXRPfSxpjGLffCDBdhjqDsJRxv5Lr64HYCGBoqXWmKoQgEnMRCFGNy0/2z+qS81kOJBaX9SzIP7cHhhKFrGWkr98pQeKW/b6IQXoEv037fxi+OR5TAu5TAy9wjwj7vcmzisZAEPi3SBp9PkRATwWkuyYXVC7bsQLuFr+sw9Ra5bqARVJsED/UWqd2MYQvXbuFqA4RyC1s3hjYdAYs/QHLaO4JkSQJa5SBvEz7HuPZe8ygicADAPCAuH5CpfFpzRGOJqCwRlQlTGoKKDf/6ZkBrCKk3g0qdV2sIaQ0h1UZgXe9HgO3NgGILQm4IyLb8K3rPss69bg4v69zLOrfCgtki0LyIsyASxpGmLcbP9mFsvPPZPpRLYBv9baQN3eqQtEVTqUV5A2QPXOQDFz1AwW6CRBUMRTMUTVI4SZIoZhS+ARBicSRpLwB2FuhDYEoXbp3UZT14llDadDKr9JvEO9+nl5y715Rc15vXPja2qtdYPTDtCFcbgM9sEq2Fyvm6cbcEHF4Mu38lkMMAvxbFolLb2/LfvO8NnrTBbHoccCxIEATBAmsQzGg8Vwsefnn11v3OYcmG1YtDjwIaxntAxo9ibhB1Q9ew8GJ/q2ceDf5FjonbwSV8lMk+jWgEdMxMf9BHXhkcm3r+Gti38VbPUty5KIE3KQFoXHrpRUjIXqb90jve3fGVRrV740/78ydE2qKkgVMwcAqnaHIylIAUZVBDajJhNjVIwHZ696E+wlcuoSwsDICYGeRtAvAr920gKxUaA8pfz79iFBwhTPBGA5zg0mdxdRdQ1jeYTSum1+OHDcuDUlGgUqEw6RrnhwSPLkzSISRGgvZL3Q6CMxX23/lMFTj+R5+ywr6wLZAsPwJ+JZIhTJ3LwlONbstlvgPoQMj7DdGvCAsNfEEAvCzQ+gIvVBtd8/K0yrZT2VVfxOX97eKdrxPvn8quSq990j2veaE0b/lpOw6JSJhLWsZZs1mSgelnaRpGocK8IdvkMTYqSFLgwFACYQpAo22Ee6Vf4Ydxtxx+r89QgUpzCe1gTjuac1uDlxkJgHzLfKum/rtLVxPuVcxobVwqkGi+ZYyloWMou10MQ6g/frPnEruiomyMAnSEwgJ4KAIzAAISuiRAEPD+wHA2jLPYLmAA2xe7upEMhsDpeont1+jNFHW7hPcWS5AMEcYxnKRoTrcO7yxxESXwXkqAYWAEOMMwkUjU4ZdlWQyDSbZ/r4VhGPQP/L0U2AcwqE+OtKG/1DRF84iSOW6y0HUsnLeXubLRo0XIyV6JtB30h4YkSZqCPuMMw0AlCHLIEwxu19hYFlaCImMLOkG0czRCBibLhzcwXHiatLMh2P3Bzd9K2nYxG6HiSkDgYgwJJcWNkTaet/F/0aInEntD2kGSs5/iHBvT+Am5gxxWOppfqHIfjp7IqPryUu6R6/ePp9xPKW2t6Brvl2iXNpyGIOVhgBujIlwcRpRxI+stzSV7gxENgoS80F4II05Q0haOtEGG+sEtSHKQE0O9GZf3mTs1AADG0jKdurT50eG4jPSy9nHZhhOD9JSAuVqY34+0kQHG5wdeJ+UwhYwa57qWg8auVNtXVbYVtXVFbZWpbDugtMl2QdhBbZUJobXJd2JVa1/W2pd1Ng7WVZ1Vobeq3BEXTHYI/0/BK+GDm3pxwJ+CBPjHGf+kCIfDTqfTdvBifcXl4D3t/00gEOAH8ylMwds4x18ibbG/uTtUJm9jEO9mn7GHO3znGRtN0dFHFzcI/irnh8RfYb/Q4Dv/hoZwVLvaaJCItEVrLexUdO8aEurJn5pwb1HSJlx1QPtVT2Hfi+RlVu460OuTNnRCJKcri9B0kKb8NENyirQggFa/tU3/0Ly+tHU0pbjrh9Tq//XTrS/iCg9dLUosbK15Nts3o1rf9Nk9MGYS6koBw+WhJbl8vlxCWqHxjeO8kCXHTHU7zWq7Tu49/YgkFtVlRi2dHGPmNLgYS2/avA2PJ49euH3tTuOsymUMQl0mwdU34yhyVNkmJLRv9VQJgHuBY8E82Thcc7c5O6c+Pbc+PbcuI6cuNbsuPqvuAkTtJSEy6i7tC2GfnNpLPHLrruzEpdw6iOz6K9l18dl1V7Nrk5IKztf0FEsts27WjrPYWz1lceeiBF5HAkjThrRra2trPT09VVVVJSUl1QcsVa+4HLCbA1cPDg46nc7XOSNxW5G0fUikbdf1+kGTtl2qqTdC2kiSRohJhonQQYwNcD6HcB0FgJuEGWVfaALNE7q7j15cyG366nzuZydSj1zKvZhWVFL3rH9iZW5ZY7S6vcEIqkaGQoFpLo0IN06hchLNSdTzieGKn+6apvf2I8/bkQEaTQGi/mEcI2maAcDmAS3di5fSa65k1fUvbZoDUN8GzexIPbcnA8hbPVkCRBZNY7farn+T9JfPL//nNwl//ybhH9/E//Pr+M++iv+Pf8X/YS++SPjDvhD2/CruDzy+jv+3vfgq4X9+Ff8fXyb8CSL+z59f/uO31/6e3nB1XNXnCFqRhvutnri4c1ECv00CyCqKYZhMJisoKEhISDhz5syVK1cuHrBceMXlgN0cuPry5ctdXV1Go/G3nY64Fcuyv0TaPkoB8Q+qXY2DTjb2+H/Z94P286rrkTqQHyTSCO7aiXBM6CvUX2gYRWt2bfgGP8ZUTbzO6RUawmEcRNp2rBecsHDbaJsz2qI8FHANdM2KcNUWfCxM9wbLXxExL7QIgFVQQwBsObAFufHR85n7tU9/Sin5Pv7ekfj7p5KLk/MfFDQ+7RyTTsiN6w7CSgA3AE4C7pRzJYSW6EAggPwXw8EgjsNQCcR49hnbB7MKsk9IPTnXT5YCwSCwe8HTifWEW/UnEu+1Dy1Zg9CTj1+Q9yavbHvTJwrHQ9MEQWIsS7sxS3l39j/j/78rJcdutV2vGrhf1V9U1V9S2VdY0Xu/vOduee/tXSjrv7MvKvru8KjqvcOjuu9udd/dmoF7NQP3agfzIIYKakaKakdLq4ZLSnrz85/eymhOjis996/Ev+a1ZG84dDSA+ZwJGhdGObxpOYj7EyXwWySA7lObzdbQ0JCQkFBcXNzU1PT06dPuA5anr7g8229B++CPMDg42NfX193d3dHRkZiYmJSU1Nvbizx/fsspffLbiKQtyosOuhL4h9NLNg7az6uu35e0Qc9xwSIcElr9iZM2lEWFS5bH0jBcAQdsCAAfAAEGUMhUSnPV0Lma6BQsmUCxJAUiLAiyQGHDJ1Xu+sHVm1XPfkgt/CG18HhywfHkgsSiR4UdE08WNqe1Lq077IxQqHgDhjzBaJi1mKvnuT0hgll635s7aTcXj8BHJ8BUNlA9aQ+BcYn+anblT9fzqtpGlQZ/iAvi3cXYoDLyDS+QtBEkRlI4w1BWjz4h7+gXl//P6oHMWVPPqnta7lqQO6Uyx9KqfX7ZNrMPHLPL+2HVPstDZpvlIXfMyR1zCueCwrmgdC2uuRcVnqU1j3TFJ5V6lhZcs/POmbGtwdrxsh+yvj2Xc2J+bZagcS4oCIik7Q1Pvri715YA+kmSyWSZmZl37twZHx/XaDRWq9V0wGJ+uQVtbTQaDQbDFrdsxhb00WAwGI1G1A310ev1Op2uvb390qVLeXl54XD4tU/uE92BSNreX9IWHdnON+F1us0Rdvq6CbcQ9n8b7Z2P/FdQs72kefTlNW1clAVUAiEQ0NuMhgnhYIl0lCeEFxiKpOCCaSEngREaBMfsQlwVVGMYjCls7ZPKgtaRtLK2k6kFJ1LyT2eUXLxTlV3X/mBgZkS2OaMyG3ysIwginIkQ7XpvsMgvyJyfpl/o8w6+4uTGp+HbSdq4XB8EVFhCFeOSciujsOl0cvmt6meSNX0wjJE0S1CwKBaPNztgVIgsQkRIBsZsak2yhOxDP1z996dzZRrvtNYr1bnXdE6N1qHWONbU9lWtDUJt34bGIVM5d0PjkPHQ2WVC6J1yvVO+4VrbcK1tuhWbbsWWZ13nVSjcMpl3Zc2/sh6WqiLSUd2TlKpzx699OTzdGyFQXB683ni8WTmIexMl8NskANMkEcTs7GxCQkJeXp5EIjGbzXa73XDAYny5BbExRPBQ6AIfd2C1Ws1ms8lkQpTOYDCYTCar1Wq32x0Ox/DwcEJCQnZ2tslk+m1nJG4lkrboo/OgS4F/zr9k46D9vOp6/om+qyHcj3BIwvXCTYTr30b7PSNtrIC0QcoGWRRK2cJyjm3oFVXWRESFq4vOApKgcZyhfRjmwTBE3VwscDLARoGlDWf35HJZR9/9h8/O5hSfu1N5/lZFekXbnbqumq7x4Xntqs5j8kTcYQKWFiDoaO43AZWBnGanEmp7jrgsJsLQY36akGxRgrxdm/N9XrMhPAR3oJ2kjSEZWGEswIAwDaggSWssoeJHY6cS88tqOiUrWm8Qj5AMz9igXN/ogjhQCAtRLEXQuFyz8HPyZz9c/feB+Tq9e15jWdCYV1Qm5bpxXWlYU26u7gODTLkf1g2y/bCiNq6qjasak0xjkmkta1rLms6q0Nrki5szUsv8mkui8kkllvExTVdK9Zkj1/42NNuDNG2BsJ9nbDDYWFxECbwHEgAA4Di+tLSUmppaVFQklUo3NzeVSuUBnA2qx15yEe4BadeEr8Jv1Wq1TqczGo02m21sbCw5OTklJUWv178H4vkgh/DJkbYPcpbEQb+EBPbSx4M2imnvuJRrTDSGQBAKyqJcHsgHjgDAF6EQnBiY0Ts7FzVFT8ZuVLWfyy0/kZp36kbB1Xt1udUd9c8m+ucU41K10R0OkDChG7ItolJaUKHHrSFIDI+EaVgINpp4JZopkOYSSMSSwKGa7lweODbCpdjjTnBbl4MowkHneNB6nmBtN7gAWFSjld+nQER8yAHDAhAk2LUNa3PnSHJ6VeatxvHZNYvLzwBAUHQEh+rMbTK605R/0Hj2W8/PyHaDgRXi2GX1zOmMv51M//PQ0kOlYVZvkWpNKxqTUmVSq0xqtVmzF1qTZl9Ee1pU6h1QLmsWJar5BeXU3NqLyeURqWZObZWNLPU8Gq4tbbs3JHm2EViT2acHlW1xlccP3/hsVNIfoSGjxZiIkLRx9ncGvR7052q/cxfXiRJ4kxKAOnKSXFhYSEpKun//vlQqNZlMer3+IIJ1EGM7wJpq4s2jW1tbKpVqdnZ2ZmZGoVAolcqtra2JiYm2trbW1tbZ2VmdTqfVaicnJ7OzszMzM3U63Zv4rXiTsvpQ9iWStg9lpsRx/ooEEGn7lU6v+LXwcYsYGAaAEwADATQBSOC6ZmTFnQPZdZ1nM4p/vHb3RNKti+mFhQ3dj/qmxle1y1tOHxfuwDO26A4ZWOYB5tpAaeAoWLUWIapy45KJEIDFoFMeT9p2M7bfoNHZ5mq8InA/0sbLCQ0Y+a5FcJJiAMGCLXvg+bj6SnrtheSC5+NLrhAeO0GYU5Bf+J28YmObq/GJVBBpk2pmTmb+5XjGnwYkLUrD/IZZqjdGSdu6Wa2y6BDUZh0PrUnHQ2/U6Y3Rj1wHjcrCQ6WyQMi2Vqblkz2T3a39zcML/aubErlRUvuk/EruT9+c/9u9mowl3QulY2FI2Xml+ocjGZ+NSPvDZIgBtEjaXnGWxe7vQgLvkrTNzc0NDAwMDw9LpVK9Xq9Wq5uamlJTU5OTk9va2tbW1gwGg0jaXn/WRdL2+jIU9/DRSgDpxnjqxnJe+TjnNhfmXgMAmIKY3OycXTe3Ds3frn2cWth0IbP8UFzO0aS8uILmu48GGgYXZ/RuYxB4cACTiCAbIqw8QAOCZchopYqotRYaczlXPJakAY0UYKheAQ03QNhmb68q+oNIm1BLJNRZCkp7gAhOohoAFADaIOiY1p/LrI3LqmrvH9mwmyno9sZyyaujtO1VxxbrfyBpW1b/MmmLMjChvk2oZtObNPqY4g324Vga4moqqxJBblidkr14PNxR21EVJW2G5dquyh8Tv/vLsX/PLkmdV42vOyXDqq642h+PZv5TSNqE2jVhm79++LzQsTMV30UJvF0JINK2uLh47dq1t61pGxsbe/bs2eDg4PLyssFgUKlUdXV18fHxly9fbmxslMlkRqNRJG2vP98iaXt9GYp7+GglgOiLkLgwiLcxLEaTYRJHNM4VDoUZWBHLGmJkRt+EwvJkRpNV9/y7+Lv/eTzhPw5d/uzktYTb1ZVtAxMSrT3I+HCA0bBGGUlBMMhtDRYxhQW7eNKG9EyITnGRicTvRdq4XMPb3INC2VIY0CMxXMqpOnQhsaG7Z9PrggntYnq2fZPUvNyF8iuk7djNP+6naYuyLpVVqbZsQ2tW8tCblHpT9CPqw3M1viE3rM6sTfVOPW8bePhiZWRJM7dukQ1J+tJLE6/ePd8+1Kiyrahc0mH107i6099nfSEkbULiK5K2l5trsdfblQAKRFhcXExOTi4oKPhV8ygydxqNxq2tLaFfGoonMJmgPRSZUIWRocjYOj4+3tfXNz4+rlar9Xr95uZmT09PSUlJQUFBX1+fSqXa3NwUSdvrz/eBpC3m1BLz40be3DsyTrz+0cU9iBL4ICSwg0bEFFF0LMUDqlhKoKr2BFeRMkADs5/ROfBFuaXlyVTcjbK/H0n4H/+88MXp7G8u3r+Q3dgyolzcCFkjwBkBgVjeMzKMcaSQxRk6QuARAsdJAmXdgxUIYlXPheTgVcX3Opo2tC2ykAZYEgPABcCM2pha3PL3U8lZDR0yuzvEsTZUgS3G3+D7q4xzh7QRc+V92r65+j+Opv3H0HK7zrasNy3FzKNKlXWNL061oyyVRaaNQW+W6c3Rj6gPvwncnMO6Rca3+TVys1RqnF7ceiHdmJHoYKNX3nGl9uQvkDbhHG2z3TcdqPEqUhX7fooS4ElbSkpKUVGRRCJBZax2ETLEujY3N1EDUS6etwlXog151zfhftTcotFotFqtTqdDO9nc3FQoFBqNxmAwmM3myclJlHxEq9Xyvw+f4sS8xjmLpO01hCdu+olJIEbXUGYToY0S8gxUYJ6lGZj7jYbRDMi6GsHBlg1f1ng6R5Xppd1Hr5Z+dTn/2/jC7+Ly4+42VnRMDM6qlxRmvdFvcASdOOMkaQ/NekkmRMNswGgnMDFHjLcJCcGrzgA8Bd6bDTVilbgEu91O3cJrGdGGsagEJkwFKECyAHgYMK8LJBc9/uup1LTS5tlleTAYRPVv+R/lN0jajib/59G0/xiTPbYF1Eb7qtEm37CrNXYNl/JjWW3nYJOqY9BapTz0FimMXeDWqG1SVRQrUHkWxY6ipesWmcK8umZakZulcvuC3L6wbpWuW6VbkfURzbOL1T8eyfhicLE/gENRhEkY4spDIEwUkRJlbq86X2J/UQKvKQEcxxcXF1H06NraWiAQQAozId/apT8zm818DjY+45rZbBam80C8bddO+I88q+OztaGcIAsLC2lpaVlZWXq9nv99eM0T/NQ2P5C0fWqCEM9XlMBeCWyzNI7foHpWu2JL+SQjGFdxgWJBMEwQFP+ohrQHGVUxALZ8EYXV27+grHk2e72w43hyyfHrZYcTS09mPLhePnC/c/apbGPaaF/34doAaSeAjwIhBuCc+z8BopxASAj2jvmXHae2zyjK1XYTUG7nv0LaSJrGSQyjYfwBCYCbABobk1Py9PDJ9Mxb+bPzc8FgEBWH+E2/y7+kafvp9hffXP+37ql6rVW6YV7aMEvVFuW6ZU1hW1qzzSqsEOuWeR5q8ywPjWlWY4If1y2w25ptds06z2FxzcrBIlmLYnnNsiw3rawal1eNqytmybJtRmabVdikCpt0E1t/Kms7VXhYJG17Lz9xzXslAYZhUMqPtLS0vLy82dlZs9m8ubnJsyu+ITR6vkHShpK0Wa1WZHIdHBxEIzGbzejH4b0S1wcxGJG0fRDTJA7y95FAlOLEVFMHkbYIVzArwoUmENCvC2a+iNW7wmkmjBOBENkAJ0EAACAASURBVBYAAEQYMgxoDAAvA1wUWDWTjye1txvHLtxrO3K9+rvrZV8k3rpQUHenpa+6b3Zg2bC0FdzyAWsAhFlYtgFnAcHAdMAcohlxeR6GZCQkbXt+Fre1g/xWQgoYa2+TNr4bxcB8bEjTRtIsx9uIMEFiFIuzMKGxzQPaumZ++Cn+5u38uRVVkOJGCzdhoHGTiWkif30mDyJtzLJ6Jr746D/j/+/yJ7kjkq5l7eiyZlyim17amFzcGl80jC4Zx5aMY8vGCR6rxgkeMsOEzBD9uGyckJp4TEpNHIzTy+YZCNNcDAvLpoVF4/SCcXTOMLSwNbKwNTJnGqwZvX8o5+/fZ309Khnko0d5NRvFcsU2Yrl2RfPor8+52OPtSICmaJIkl5aW0tLS7ty58/jx48XFRZ1Ox3M11ODNo5ubm/rYwltLUbED3tyJzKZ7NW37mkdRZ71er1Kp1tbWqqurMzIyGhoaXC7Xnl+ntyOCj26vImn7XaZ0n8cSn91gv8bvMkjxoLslwDOY7cZODRyyPMK0HdGFSwUHLZwMrKGJTJwMQ7CAYqHpE9VCtftJlcE9JVV1T0gL2kdvNvReyGs8kV5+OrPyakFLXvNIzdPFUYlTZQF6B3CHQYgCEQpgDKxUEGbZEEOHAY1z8QuQH8QSCEfzicC6XWihuCOTLDRrkrsusxhdQ6wOkjZojeWIGs/VeNso+opkCLQVwTI4wxIsCNHgydjq+fTyS7n1LeNKfQBWd4UBsGQQMlVUmuIV2BvMnccDAMZHWh5OFxzK/OOxm58VPs6q7rlf+/x+Xe/dut7bdX33a/oLagYLawbza4cKdqKodqiobnAHGgaKtjFY0DBYUAdRVD9U8mBwN+qHSupgn/sNwzkNwxnl/SnnCv/1Tdb/Kniea/RvISHAjDAC82jsAoDvImkTSkNsv0sJoHigSCTS3d2dk5OTkZHR2tr69OnTngOWvaVEhR179yzoW+HqPm7ZtebZs2f9/f0Pmx8mJiYmJyfPzc0RBPGKXhPvUmzv9bFE0va7TM/2o4h/Jv1i43cZpHjQdyEB/olOkmQAB2YMrDrAmNLdPbdxp3HgZmVX/L3GCxm1Ry4XpxX25D8Yf/B0qW9GMyUz6r1EmIviDALgoWkvRUQYkuYKPACGZmmKoWgUxAB/HGkG1YCParxgda+o6gt25riRgLdtkzaBao0VkrZY52gWEoolKBYWhLBj4PGE5kJu09mc+oL20XU3jgMQocMkFWHpbX0bd9CXEe+OOwUDvkV3/+XqQ58n/s+L+T8klp5PLv45tfQERNnPyeXnr1VevFZ58XrVpX2RUnWJx42KS0KkVV5CuFF1OYaLN6q2Ab+tOnuj+oe0mqM/ZP3x88T/63jeF88UbQFY2ZbFSQyHOsdtnzbhufFTLFSCCjuIbVECb0kCKN81AEClUpWXl6empubm5t65c6fkgKV4zyLsWLpnQd8KV5dzy641xcXFFRUV2dnZP/zwQ0lJic1mE9Vsv3nGf4m0basTBO4vv/lI4oYCCex4FP0iXUM9BZuKzY9IAkgzFwxjKG8txdlAwyxUUIUBcISBxhJ4IdU9GVstap5IL+k5cb3yu7j8by7nXbjdnNM0VtWzMLa6qbL5vCwIcpvggMJZDKrhWIxmwgyFMRQBM4nETKrRKqGIsfEhCVxsOCdXeL2hGx+p016StHG5SGiKAYEI6w6C4UX9rZquby+mF7X1rrtDMLMdA6smUFydVjSBiDX+2mTuuFMw4Jt1PD9d+MVfLv/hYv6J9NqEzOqEnNpLObWXsuuuZtUlZddfy2y4lvXg+l7kPLjOI7fhem7D9dv120Br4MoHyTFcy22EuP0AIrchKfdBfE7ThZymc2fufP7F9f9x7NY/O5cfBoCPAQxB4xEiQtA4z9uE5yWSNqE0xPa7lAAAAP1zk0gkmZmZSUlJiLHt4WbRFUV7FmFPIYFDbfStcD2ia7vWFBUVlZeXZ2VlHTt27P79+ygK4V3K4WM6lkjafpfZ3PEoEknb7zIH78NBecsjn8UXJxicYDAKZnHDaYBRIIyzXgxYgmDVSEyrfM3Da7ceDKdU9Xx9tejv53JOpxRklDys6OivfzaypDfp/f4AZG8MxsIK6yQNlW0wWW8sFRysrgURDRyNfozGiEZF8ptJG28KxBmwtG7Kf9B9Ou1ORl3blNbiJECIs5/i3JG5mrBQ1fdrsxC9U7iUHwwGAvefpH2R+m+Xio/lP8l+utTyfLGld+lRr6S5T9LSK23rW+7oW+7oX+ncF4PLnTyGljv3x+rjoRgGVh9DyDoGZB39q639q4/65I09a41NsyWXy098mfJfmY3XN11aVDCeAds5WSiWEp6XSNqE0hDb71gCJEmazeaKiorExMTbt28/e/ZsYmJi7oBlds8i7LiwZ0HfClcvcsuuNbOzs0tLSwMDA3fu3ElJSXny5AmO4+9YDh/N4X6JtH00J/n+nYhI2t6/OXk/RhT1SIv6pXGJdhma4ZzRYDV6BgRYYPKDZUOwd2mzaXg1u+bZyRsl/zx38+v4nJ9yShNKH9zt7B2Q6ww+2h0CFjcOC4MCGL5AsFwJBpLFCYbAIWiChYlJuIr1vLEUKcN4HVzMJBoNQeA+cr5uUS97vkgDSbEEpFYkgw6G00DvDNxt6PjLmYRLeTUDK5tuLjSD4QJOYWUF7pB7pY4oo3A9juNcYAdQW9ZO5f7ri+Q/lA/d6ZF1LjvmV22LcvuCwragdCwonAtK16LCCRtyx9wuKOxzPNZtcwdhUTsiNUwo7HMat0TvX12xTK9YJnWBJaV7etUxIfdOr+MSaWi2caHm5+Ljl/J/GpkfRlQVOQ/F3Ad35KUTSZtwNsX2u5QAytM2Nzd348aN1NTUkZERpVKJAjlReIFu5xILQtj9jjrveuU7bW1tCSMYtFqtyWTSarV6vd7pdKLEvHq9XqlUjoyMJCUl3b171+VyvUs5fEzHEknb7zKbImn7XcT+nh5U6F62p01C/30Whg5wVa1YHMCozDAD7aFBALYiQGoJdy1oSp9NX7hf99cL6X/4Ie6/zyT/eC3vZlFr07PZGaVF58BtERi1gOIeYLAnA0syYCTU5OGwmBYX8UpHmRnP2HhF4E7q9jKkjQAkQQGgcQWq+yf/di71u6t3uud1dm7Y0Qx2kLRB17pds7KXtCE+BABYN6ycyPj8mxt/bFuqW3bNLdslMsuqwipTWFdQ0jW1fRk11q1Le6GyLPHQWJb2Yt28qDDOK00LKsuSxrmida0qHUtKx4LWuySzT665Z1dcMzOWiRnndPd6V2LdxWOp34zNDSNCKZK2XfMofnwfJMAwjN/vHx8fT0xMLCwslEqlm5ubKPATMa1dPAyFke593RVtyn8URpKaTCa0IWJsGo1ma2vLZrM5HI6trS2TyeR0OlEca3Z2tk6nex/k8yGO4a2TNmFlhbchIPSAeRt7fpv73J+0gW338B1xc29zJOK+3yMJCG+WWBteKrF6VyTBVSMlaZqgaIJkIySFway+IACAzocZcTBnCDycXE+tefZDWsnX8Xf+cT7zWErRmayqvLbJPrlrdjO45afdJHSYC3GcL8BtG2K5mlpvgrRB1R0JAIEBIswyRIAitQG8bmTpu+Si71NL6weWNvzQTsotDOKjfCQEmom9pC3am2HkusUTGZ9/d/PP3fIWdUSxbFuVWRQKLk8bV+FgRWtbVVtX1NYVlUW6CxqzlIfWJD0I68YlxeaCXD+7rJte3ZhVWBYVlsUV08yiYXh2a3DeNLnkkCw4JUMbQ9frrvzr8l/H5oZpLiefSNreoxtJHEpMAkLSVlpaKpfLjUbj5uYmKkIlTIErzNOGvhW+mg9YhH1MJpOSW0wmk8PhcDqdVqtVr9fbbDakbDMajTKZLD09PTMzU6lUxsYovr+aBN4uaYs9eFhIR1iUZYCFCREOwi8OfntvnAsO2onQtfkXt0Zf7s+WYl5lL7GDX+mye/97FCdcyB6nONmVdgHmRoiStmjpsNiodqsifmUI4tcfsgQEFzm8DLgFpuHgK8fDHGA0Aa+r6AKjDEiY+wNaTv0A2BlgpsCqmxlWOmqHlm9UP/s+tfRQUvHfzt8+klwcn1dT9WRoVL4xp7drfJSZBG4AweeBw9ntJHBc4g+hYZRvQzc5DnBsKIcIw8AYflRHFRAEIDGWIRgA09EZCNA+p/vxZuWx6/mFLQNyoweW64KxlPCaF9wI2/nhhHOITpRhGJl26WTml9+m/7ltoUHiWFy1ymXm9XWzWmVSai1rWotMZ5WjolUa88peaE0rWpMMQW+U6Y0rPLivVrSmFbVpeW1jUbL+Yk4+srA+rjAsyo2L8+rBzsmS8qc3H05ULzuXlGFVv7onvvz0V3H/PTY3SJIkcvfmbaO7chlEJwqdsfDExLYogbcsAaF5tLi4WC6Xm81mnU53AAeDNQ9eaUH7QYRPq9UiFzetVouy6Uokkp6ent7eXqlUivosLi6mpaVlZ2fr9fq3fOof7e7fImmLPn5gpiqkCwjQTJj//SJJliRZlLkJOdbAbFaClEYsA58QJMxdAAH7oD/xNNcN1WiEHeB2NKDD+PbO0c+jsGYzAwcBNRYIKEPBntftiH0+CuxlGlxCKxRsR7CMEBhMT7UfWAbG9zEw0xXLPb9oaLxiSUBR0dPcDuj7aC8+8cReXgIxkrR3C6SKg/k4CGT3RK5vDPAzXApfFixseHskhqqepdymoePpZZ9dyPz8Yu6Z3PqU6mclzxafy+1LdqBwARcLHCS8BUMwSzBNAJwCOEZH2WGEZJCRlGA5cyp3O9IszEgH7y3uXxlgYNADb0vF4SUO6aAPADMOBpYN10vajl69Xdw6oDS6Yz8FbCx7CJ/4dzd1Qz0ZqGmTnM7++tCN/+5Yalp1rshsawqLet2sVJnXtJY1VFqUe13Tmw8AVzMeVY4X9kGcT2uRKTYXRma723rr2/sbhua6ZZvzMsNcbdetEyn/z1/P/u83qn9+oe9fcS/0yjviK7//7up/js72iaRt70Uprnl/JECS5MLCQlJSkpC07dWxvaqmbe8eZDIZStsmk8lMJpNOp2tpaTlx4kRSUlJra6tEIjGbzVKpNCMj4/bt2waD4f0R0Yc1kndA2ljA4AD+bgdoivb6qEAYRHDg9gNXgHv1AacXODyMw8PYvBx8lM1HWbykyYMb3ZjJg1vcuMVN2lykw0W7XCRNwJ9xlgRYCD5RONIG1yAfZ5hfgMtQH+aSIOx6hSFsbwFh7kkJX9ltQM8hAVA8IP+KvoIfGRY6cbNQMwFJG8kZmFBC1g/rahJH+/tJAKl5UHg/TINOc4SJC1zAAfAAYMSBOgheaEMNI/KspuH0ur5TWTWnsmpOZlafzqi+3ThW17vaIzFJzCGVB9sMET7uJvKz0BkuwoIQdIDjU7VFU4hskzaahLc5Q6KYCZwr3sBf/GEW4AA4CTC8spVT03Uxsziv+tHiqoKkuYAETsnMhbdChSJPT2k+RXFMqoqNldPZXx9O/wskbS4pR9pgDSsVVwZeQNpgYfj9sIPJ8YXktRYZsq6qrSuyzfmBma6Wnrq23vrnE20rm9Ny03z1k1sn0v7tv0/9b8nlP01o+xQ+yZCy81rN8aPJkLQRBPw9Es2jsVkS398vCexL2nintF2NvVTsoDW7NjQYDBKJBOXUlUgker1eLpc3NjaePXs2Pj6+tbVVpVLZ7fbZ2dnk5OSMjAyNRvN+ienDGc3bJm00YCOADQHgYwEZCoKBIc3j7vXmDkV5q7SkDaK4VVLYslDwaL7g0Xx+y3x+yyzCvZbpu49e3Hk4wWGy9OlaWbeyoltW+2RpatUaxCFLIzEcaedCJLB4yYF5Ve+C5tmS7snCZtecsWvGJIChawZiYMU5sGLfAye3nntddg/8GvpW3Lux6uxbdfYiyOy927D2rUIMrFoHV6IYXrYijC4b5xWGDasbg45JLIwRpEXS9uHcPe/TSPcnbdz/Ez+ndfOxwMvxMBsGNE5SYQnPKC1PX6yWND9Py2+8kN14+kbj6ZsPLt9/fK9zvnJ4/fl6cM4KtjBgw6HPHAqAgBW6OAs/jFHgModAhTpNwooMVAQwOMXAOIldpA1joAKPBMCFg9l1c/6D7gtpd2+X1b9YkjnCOMF9xVVuheZSpHjbV7S7SZt9RWGVrVtkKstKjIGtaGF7DwRl4/n68WrbEg+VfQlh1TD9YrVvYL6rb7ZzVPp8aWNizTr/bKY5rznxWvGZ2r7K2c1ZtV8+vN6dUvPD8ZQ/j8724TB/sEja9p0xceXvL4F3RtpkMtkkt8hkMlS3anBwsKKioqGhYXR0FIWUzs3NpaSkZGZmarXa3180H+YI3jppYxmMZcIMG6ZZMD6pvxJff/5y/U/xDYcvl38bV/pdfNl38WXfXq04lFR++FrF4WsV312v+O562XfXy769VvpVUsm/kgr+lVTw5dXif8WXf3Wl4qsrZV9fKbqcW7uksSOjCWelAQ4v8XxCfvp68Q/J5UfTyg+nVBy5VnsksS6GmsNXqw9frT6UUAUPF1f6bVzp11dKduBy2dfbqPj68q+AG0zFV1cqvoyr+DKuDOGL+LIv4ku2kVD0BYcv44u+iiv6+grEt5chDl2COHzp/s+J9xo7B7YcHlQGB3rDcDoHqDbckTfgw7y+xFG/KwkISRtJs9E0b1ypqwjK2cvAMlM4C8kTzmnOAjgI4MAXZpxhMC13P+hdy6gYOJv98NiNxn9cLvtHXOXV8sH8jumm4eUJlU1px7kMcHBbmECEi0XdzdsYcl/ShnMmVhyPhHDKHaYUBldtR9/F9DtXMvP65lasERqVbUW8DXHCXcUDkLN/jLT99+OlB6uuBblNqrCurFtg2AGnKoMKM5UNYUVl2xdSFF66+zVG2tbMC6tbs9KNKenGC4VtYV43pnQsrVnnpzWjE6rRVYdy1aFUedcQaTt2/b9GZ/swDIN/IEmoZeQX4bTHfqngu3C92BYl8LYlgC7IvebRvXoytOYgvdre9cI9oKBRnU63xi2otimqTC+Xy1dXV5VKpclk8nq9Iml7/Rk/kLTtcojmP77qITl7DUvSwObC65smT54vLqwebx9QPh6Xd06sdk6sdoyvtE1IW8clLWOLLWOLzWNzzWNzTaOzTaOzD8amEZpHZh92T7U9X3o6tXWz4tmxa/fKO/u9JIPRONROMUC+br+SWnn4fMHNipHk6r6Uqr6cqpHbFSN3K0fvVY3lVY/frx3Pr5vIr5soqH9R0DC+G/Uv4PoopgrqdyO/bvJ+7Yt7VWO3q0ZvVY7kVEFkc8isHoGoGcqsGbqJUDtwcxt9N2v7Mmv6smv6cqohblX15Vb23qroLWmeuFXRezG14kJywQupCnDKDFhdG8UqbNevfFWRi/0/UQmgH2ih5xnyP0MZPaJKMp5WCBrwK86pwBoAS1rf4IKlsU+RUzN88Xbb0eSKv13IPZVVc7WotfL5/NMF/ZzWL93yGwJQ/eaIQFcEPjMwzAnHBaJGaBCht30DcBrQJMkSOE3iJEmGCXrT5m3tn7ySVXwxp7h1XKIP0l4AawtEuNS/HMuB1VrRRMJbg9NmSdZnTmZ8fijt33vkzXLX9IpldtW0uGZeWDcvqmwrartc5VxTOZRCrNsVMayv23dDaVtTWGVrllW5WbpiXOKwsGJcgLu1RqGwLShsUoVNKbdp1hzaNYdaYl7oWW2JK/7u9M3P+190o7GhWoq8UIWXoEjahNIQ2+9SAiRJsiw7NTWVlpZWXl6+urqq0+lsNhufYm1XY1cGkF/4uGtD/iMqM48oHZ9VRKfTGY1Gh8MxNjaWlpaWlJQkpvz4zZfBWydtJEkTJKxvbXHRBZUDF6/XDs9bvCyw48CJMy6CdZPATQMPG4WTYZ0s7WAoB0PZGMrGEjaWcFNUJMQGvMAWAu3j6u+v3St5POigmRAL68bQLJAr3XEptWfiq0ekAZUfTOmC8i2g3ADrW0C5BZQGiHUjhMr026E2A7UZqCxAaQFrViC3Qazad8IBa0fugtwO1mwQyhgUFlZpA8MSW255z+mEgq6RRYozXeEg6sf9m2dU3PCTlcC+pA0SMlh7lIKhBQeAoWDtBIKjX5y6C/gpYPEBrRNMrHtq+yUJ+c1HkwsPJ+UfuVZ0Nqc+pezxg+HVpwvaKZVd46Y8NPTjhI6knGEUMkVOmcf7tMFUcCTL8bYIIEKAIWkWWL14z7Tswu3KM9lltQMz+iDNVZcHBKAIGqdh5t9t0ob8xjQm2bnbX351/f9tGL+3ZBledy+pXFK9c1nrWta619Qepdqr3gWVR8VBo/II4Nap3LroGpda5VpfdyqVDnkUztV1l0zlXFHapRx1m5dZJcvmtWWzEr5aVmSOhSFlZ3zx0RPJn00tjqCxiZq2T/a+e59PHDm5Tk9PJyYmFhcXy2Qyq9VqMBj2as7Qml0pPH7h4y/swWyORqGazWZ+t1ar1Ww2j4yMpKSkZGVlGY3G91lu7/PYDiRtrz9o5FBMwtTr0Cfa6KLulD07k1DcM6WyRYAnwvgilB+jAzgTJOkgzSAEKNJHk16K4IC5aYgAzCAAIn5gCYAHw4pD1/ILuoatLOUHOAEomgFypTfxeu2VhGrVBoMB4KGAyQVMTggDh00HQIAfXXsQ64Y6H/RqdAGjC2y5waYHaHxA5d8fGj/YBa0fCKFyM1YKZmdYs7OFjVM/Xil61DuH4ie2rU5cSoXXnwVxD5+OBPaSNqR1izI2CgNUGFBcYCgNvSejYAiaxkI05mexMKAxLlCbM85D9ToL4D8urcU3u25+Pqcpbp+4cr/l+M3qfyUWHblRfbmoI7dppKJ7tmdhY9US0blJaCmMLTxpw2homY3QgCVwQAQAHQIwSTDwkWBI5b5S/vhUTllp15Da6Q+zLCRtZJhnbKjeAEqi4cZM18q//zz+/8h4cG5U/Xh+Y3hRPyrVDS/pRmf0k9P66b2Y1E0J8GJSh4BWvpjWT87sxsSMfmJ248XC5sTC5sT8xvi8/sW8fmpWPwOxMTW7OT6oeFw/XHDu7tfJhWflmiVkumVZWLiCX4RXXUwe8F24XmyLEnjbEoAxSSSpVqvv3LmTmJjY3t6uUqm0Wi1KqLb3VfXSy95t0RqVSqVWqzXcolarVSqVXC7XaDRKpXJhYaG+vj4tLe1h80Ofz/e2z/1j3f+7IW00zgKDE88t7f4xrqBjZHXDjfsxOhQhQxEyGCb8EcwXDnuDIW8w5AoGXcGgMxDg4HMGINz+ABmiAj7WFgFtU/pvk+4XdA3bGMYPcBxQFAvkCn/Stdqk5Lp1HeYjgcLganm+9Oj52sNn8sanqw+6pXXdktonS7VPluq6JS+B5bruHah9Iq3qklR0LpS1L5a2LZS0L+R3LuQ95tA1l/94Bwo65zjMFHTuh8dTxY8nh+TWLQwsW8jMsr4TCWVdozKUrR6RNoKrLbQ3eu5jvQrF83ojEkCMgc+4gRrbajZI2jgIGRtH3ehoHAGFsQTOEjSsSMqVdqcYMhKGOXs4FVoQACcF5A56SOEsf76c0zSRUPz4TFbNoYR7ZzPK4+81pJc/ah2an10zbnlJe5gNcGEQYQbGa/s53gazYxAhwIYZ3IOyuHkA6Fd706q6LmaX13QOKzYdKIUbzMIIF1QqFebTgY8fEGmfL/8u40+HUv/r7qNrjcPFDweLWwYLmweK6gbKagbKYyitGYiiqr+kqq8Mor9kD4pqB4prB4rrBkvqBysghsoQGofKG4fKGwZK6vuLG/qKG3pL63tK6npL6vqK6voKSp7kxOX/+H3a3+r783VWBcNw9yugudQ/UdomnFCRtAmlIbbfpQRQCbhgMNjW1paUlJSVldXS0vLkyRMU5rn3te+ll73bojV9fX39/f0D3NLf39/X1/fkyZPBwcGenp66urrExMTMzMyFhQVkt32XovhojvUWSRuSEckQMHEZABtO4n7DyLH4ksdj6x4SBAkQJsgwQYZwIoRTAYzcBxE6gMB9GyRh+NujsfXD8bdLOobcNAiwJA7zeAK5Iphwvf7CtQqVFVhw0D2rjrvffSSp6Yf09mOprUeTWw+nxJDadji17bs0hI7v0jpibbjmcFrL4bQW4Zrv0jq+SWn9IrH57/ENf4ur/+uVhv++WPenC9V/PBh/Ol+7H+r/dL7+jxdq/3Sh8l9JNZX9CgcASgdzr3H8h6slHQPQPMoxNhbxNt5PSPiLL/5T/2huvLd7Ihzjgvk4OOoTDfhEzpLc696j7020gdxYkTYOMhEuARt0WePCGrwYMLqBbDM8o3B0v1BUdI4k5dcdS877JqngVE7j9Yruuw+HWsdWJ5VmnQM3ekgYfMqAEE75I1iYjJCAobiEcC4WmCJAshGq65g7dv5uck7z5LLdEeSUUjRFkX4u72+IAhjFMBig1gjFtcb4z678+483PsuoOZtZcyaj5kx67Zm02nMCXEirjSK97mJ63eWduMitvJhed14AuDKj7lJW/ZWbtRdvVJ+/UX0+veZSRvWFjOoLmdXnMqp+zqj6Ob3qfHrV+bj8H79N/MuZ29/OGPop6IkX5ALZg7F8jVBa/z977/kcx5X3+/0HLlf5hf3OfuUqu+wqX9/n+tr3eXalXUmr1SpLFCVKpJgziZwIEpHIgcg5EDnnnBOR0wCDyQmYwWTMYAaTQ3cf1+kz02iABAWKFFa7O13fah70dPc0zvSgP/xF+gzTv8L07b6xbwZ+6xmg+vaqVKrc3Nz79+8nJiaWlZWVnLAUveFCP82xQwsLCwsKCvLz8/Py8oqKigoLCzMyMgICAvLz8w0Ggw/afvVHfxbQRlbeBBKNI7Vy+EpYYccoV74PFDq7Qm9W6M1ynUm+Z5FpzV5ZZVqvNHYZktYqUKjFeyauFq8ZYP4c/Ky4dUKPAQuOIWhjcs2hUbUPo0rZarDrAu3LO4E5Iz885o684gAAIABJREFUaf/5ad/FuJ4L0VA/xEB9H9f/fVz/+XhScYPn4wY94/je8/G938d3fx/ffZ4co/U3sT1fRHV+EtHycVjTByFNfwqsfz+g7j3/2qOqf8/fK7/G9w7V/J6fVw9b33vY+gf/5vf96r+MqC8a4KtxwFG50msmr4Xltgwuu8g8WDfwQduvvpl9Bx7OAL29G4K2w9feaER5UWkDWKgaB04M2FzA6AR6J5CZcI7GtCLdL+xbTqgb98uou/w494eg5KuPMiOzawqax8ZWRKsCrdSAGQiYwaDHCT2OWcnkGwsB9FYY+VDZsfKzf/bVkPzRFSVsMgAXN2mhMxGwVyq+T5gYlq37RffPhX8Skn0lrSYwrcY/uY5UbWCyR8HJtZRCU+rCPKqNSKHk2RiSUndEqfXhaQ0RqbVhydUhyVVhKdXhUDWhadWhac+D0p6HpFbB7fEVIVeizt1J+emFpH/PJsEIAwAOF2Yhe0LAVCIftL3RLebb+bebAfQtstvtDAYjIyMjJiYmLy+v/OSl7A0X+pmOHVpaWlpSUoJwraysrLS0NCsrKywsLCkpicvl+gwQv/pDfx200f/zTY3f9J3g/z7JAGex2p5cPnjuflpqUU9dx3xZ03hZ02hZ02hp40hp41hJw4hH9WMlh5ooqSfVMPK8dbChb7qkdS48s/NSUH5xy6zOCcOfHbDNIdjkmUOi3yW0nYvrOR/fey7OQ2x/CWn8ILD2VbiG6M1LbP71NGJrPCQ2v+Y/+LVCkdD2RXhdYT9PgwG20plWPX41NLu1f8lF5s1hZM0qFy0jD33rqPWbzr9vf98MvNUM0FiNwHAqcAu2jyPvUgwAo5sw4hDFzGQ5a42V4CqMCyJdcdeLx0UdV+PKLkQUfnY37dqT8pjivsLW2SWRYUOqV5hhpQ83WUDEgoF9HChwUP+CeeFR9uXHhf0vRFozfAs7DH+zA0iJdrlNnNQe/degP/hnXakazhjbbBrbaBlmIrUNM73a7Bj2aoTZTVPvCLPX+2PnCLNzZKsdikmOmZ1jW13jrN6xze4RRucIo3N0o4dU1xija3S9e3S9e2S9e2ijs2W2JqLA75vQj5+U+LN3FnEYnmoDwOWDtre603wH/wYzgB4cUqm0pqYmODi4rKxsfHx8YWFh9YRl5Q0X+mmOHbq0tLS4uLiwsDA/P7+ysrK0tDQ5Ofns2bOIiIiuri6fpe1Xf9pnCm3xRT0Q2vK7SmpHM8o608qhUks7Uku7Uko6PCruSjlUT0oxVGpxR3pRbW5Va3x+x8OnNT+H5BW3zO69CtpYGo+lzT9r+PvItkvxvT/Gdr+ppe1cXM+3sV3I0vZJRIuH2PyOWdfoP74ZtH0eWougjaNwZlSNXwvxQhsBYKw26Sf1uUd/9T3tO/BdzsCroI2MNSPcOG5zO01Ou9nlsOAw+ZT8jwfcDuvAARioILKAOam9bVme0bz8pGTkVlz1ef/0SyHPHj4tKWgYnVyVbvIMUpVL7wRqDB6yB0Afb+9afOVPQTkNA1vbB5AFLeSTxwnMPP3ag7xL3zx5v3IkbUEwwFMv8WA9jhWWBq5pWuOoPeJqNg+l3uKqt7w/MrgaBle7BqUhxxoGT7vB34M7sJXrbOU6R7WJxFNuchQbHMXGlmqdqV5dUczXzz6/nXbxetz3c4xB0nRoJ4tje8xsPkvbu7wDfed6ixnA3JjVal1cXIyMjIyOjp6cnBQKhQKBgF5ljT5GFddOv37NsTs7OxKJRCwWi0QiVPuDzWa3tLQEBQVlZWXt7e29xa/1L33o66DtnUwM2fkGFk8Xq+3P6id/Csopb5mb31JPb0qmtkRI01vbNEmntyjtTm9BzWxtL3H4i1z+5NZufGnn5fCM4rYxjdNtA24ngO2aNwSW4NiahzFl7D0gd4GuZalf9vD5xxDaLsR1I8coWp+P7Tsf23fOo4FzsQOecVzPOZq+ie78NKLpk9CGDwJrPwxq+CCw/k/+dYc+UMoZ+vLg0Df6Ckvbv/s3v+df/0VITXEfT4sDiR5kVk9eD8vtGFiGzbhIaENNVulZCJSZzWdSfif3JP0klAmZPuH0Hf7Fx6+Kh4PdTo/35PXGc7nJwokO0vTkKepLWuAwAHbMYHRTVT20FZnfeT+p4fvA/E+up1wJrQxKbs5rfdGzLFzX2mUAsMygY03zMLX9SuTz/PYV9h6MZDUAl5HYXxSP3n127nLCXwfWakWadbILApuspovq6KLCufSaulSt3S2+in2oEwvwwv05ig3W7jpLtsFRMNnyTbZ8k7u7uaPnMaWrXM3mmnxRaGFPSobCSx/8/PjrkYUONzBjwObEbGQvB4LumEY3j+/7+y/+Jfo7/vpOp9Plcs3MzERFRWVlZaEGoFKplA5b9PGb4hpV0YMayOVymUyGcE0ikaATqlQq1I10bm4uPj7e18bqbW6Js4A2jIzWEmrsKc+Hrz0uGV6QmQmwTzpE9nHoFjEQNJFdrg3H1gTQuVx7LkxmBw0Tm1ci0ovbRtQOJ1m9gA5tJSwtoXBDaHuYNfRdZOuP8T0/xHa9KbR9G9v1dVTHpxFNfw1pRMT2QWD9BzCareH9gIZfQLdTQNtnQdXFfTwdOA5tZLofjgqi0hnC90f/bW7x1x/rg7bXz88vQhuOw9IhqLogcp7CVE9SZOIqDnDIMXbSYGYlAU5qAws7WNOUNLtlLTC9/WJ4/neBqVeicu6nlMRX95WPM5vWVHlDwotxjV8G5D6tGl+SmeQOlxW4VmQv7mR+d/Xp34ZWGsUq1vYuXyLnC5RsgWpToNr09Kc60sNqy9veaotsCQ/7ylO94V/udiXRbG1rOGIViytd3xIvMfiLXOmGUL7Fk29siGdWRRMiA4OlW+GbmRPi/rCS+xcjvxme63QRB25gdbitPmh7/b3ke/XsZ+DMoE0ul+/u7qJivLu7u6gU3M7ODqoAIpfL1Wq1VCr1Qdvb3wNnCm1p1aNXIoq6Jvgqw2EigkJvVe7bPIKN4Sm5lHpKDq3VpbIR2yZQN8y6HpFX3DqlskFPIkpEYPDMQTHVD2M80Na5tPOW0PbVk/aToA2h24lr/6b3D9Xyvr9Hf/Rv+0NA2x8CW94PaPg0sKqol6sngFh3xNLmg7a3v6Hf9Ax0aKOPX3+el4PNX7//P+6rR6GNoFqrUWRGYDgkNhfp1HeRY7cbuL21fMkiIwTutACnAbj2CXwfhwBnAkBjB7tmsC5Vruwqe9c4WW1jATkN15Kffx9b8k1s6e3iwUvPuv7bjZT3rieE57Z2L7JFB/uLO4v30n+6FvfV8ErHtkKwLRNv7wohe6nWRKo1iZISQ6L0SrEpORTqIk9u8eyADvHurGRINUy+dHmNMzG3NrDMHOftrAhka2u80aahZ8974qfYzSz9DN+6MiHp9UHbP+5d/a9z5W8KbXSr22nGdAObUChcJxehUCiXy6VS6crKSnt7+8jICIvFUqvVKpXKB21vf++dNbRdjSzunRbprWDPBHQmN5LeRCDpzAQpoDMfkdYCVBZcboElaqsGOFcjivKbZ+QWsok19JACCtq21JgSB+8C2jo/DW95paXtRFwj7XA0YmuiiO19/xYatNV9GlRZ1MvWE2B7DzyrmrwZ6nGPwmoM0LsEewH5LG1vf3Of5gx0UDs2PnI4TpbP8K5R9QxYUAPpyK7kD9RLrxm8fBS5hWoZRxIS9EWerFefwhNTddK1vfIg+nXSdjgKbWSHNRw2KqCqweHIkI4iMWEK9DFuIyvDAbcLVtTFTYDYxzBY/oOUjTS/WQDQA7BNAJYNzGpB48Ze2hDrSn7v7fLJH7OG/svNzP/7xycBOQ3VY9M1Yy230368FvfVyHLPtkK0Ldve3hVKlAyRauV00OYFuCPERqEeHHC351fZoxML7X1jtXNrA2zJ/AZvum+qOjTxwsWAP2bWhCxLB9nGhTF+V0jR7Z8efTnwos2BGZyYxeoww/uHIIMcvMVW0ET6LOW0G8o3PNMZOEtoW1tbGyaXtbW13d1dLpfb0tISERGRlJTU3t6+sbEhEol80Pb2H/8ZQZsLAKHGnlAxeCOqrH9uR2kEKhNQmaGUJqA0EYoDXHGAy02kDoD8AMhNuIwmyQGmdML2UCX9/AuhJZkNszIbIEsGwCJwDP5BYOzzB3Glmyq3EgcdCzCm7dyTtp+ewpi289Fd56O7vouBOh/b4xUMbqPFt5GBbmRY2xdRnZ8+av84tMUTzRZY/yePGv8U+Eo1/ynwtQpofS+w9Y9BUH8KrKdDW3b11K2wvK6BFRivRlbVwggYAngStNEfAL7xr5sBlM788hoVcqXWx3ZAz2MKVo4NEL3BNpxI3rMcgh0OEyChyOc6nfa8lOZBoiOcRLgA4SKAi2zp6cCA66g8PHfkENi0EyfcAHcB2LzKTbhcmMuFeTMKMMwNqYucOrSGQ3jXea8NXiFshQAAwHG3E0dNFHAXPCNB3puALNtGtoEHANgcBOYt0YERh61InQROz6dxkr7RfRxo3UDthrGnOw4gtAOOBWyZwaYZ8FyAYwfr+2ByFzSzXRnT2nsNvM/Sx/7Tg8J/ux732YOI4JzY2+nnrz/9dHi5R6yQ7OxKduQCsYop0myI1EyxinVqMcUqpli98bK4suXR+Y62wed9k41TK73r/GmRilHRmnkr9Ktzt/6YXBoxye5j61fH+F0RJTcvR30xPN/ugEUn7Ta3nQ5tHnrz9TV5+2eU7wxvMQO/HbTRbWyo29Xa2hqqqbu2tiaTyTgcTmlp6f379x8+fFhXV8dms2Uy2ezsbFxcXHx8vEAgeItf61/60LOANheZVibQ2p81TV+OLH7euTy9Jp9jqZFmt1SzWyqUcIDWk1u7lCbYUo9YuzMCQ8+6MbZq4Zvg0vSmJakTpto7SLeMB9riizeULs1poa3n1dAW23cCsdWfQGyNv0Bsgc3vBTYjYvtjUPNpoA2WRaUt5OPTt3pnM0CR1bGBF7RgpQlUz4LaAZmTYAFk0g5KrSl081SypduryDF8eHtxzU3AChducgsd5ryoB52PXtEAjoQ2ktWOQdsriY3ErUMYI8nLy2TQjYlhDhyzYy5KNtxlxwHsW4DBlqMHbmDCoA4wYHLBeUBln+1kR3k78OxJkN87KwBGMj51zwGUFvgfLfG+Q6C1spXGLbluS67bkGpWxYpFvnRqUzjJEI2ti4dWRS1TzLoxRln/amH3WlbnWnrzWnztfEzVTHBuv196W2B6a1jBQFjF3E9Z439Jn/73hPH/PaD6f73y9P/46vKthNAb6d9eS/x4eKVLrBRBD6mCB6HNQ2wcseo0Qmz3am4TyFfnN4dG5tonl7sZghne7opMzxqebcmrfpqYF9YyXLO6s8DRb44LeiPLb9+I/WZkocMJrG7gsGMOH7TR/mj5hr+LGThLaGOxWAvkwmKxkGt1fHy8vLy8pKRkampqd3dXp9PNzMzExsbGxcXx+fzfxQT9A17EmUJbQsXg324+fZzekFs1nFszmVsznVsznVM9lV0z8ax6HCmzepxSeu2oV8NZjSMZTROx1S8uxjR+5leU2bGxC8AeDqwE4SDAOs/oH1P54B1BG2Vjg0mjR/RKM9tpoe0/glsRtP0toLywh7WPAYkWvNLS5oO2dwZorzoRhWLHBjRWw/FDg9Eh9yBzlBsHDgzKiXtFGkfdpFkFg8YoaI9CQm5DtKa4x0laVT1s6EVFOsYdGyPTF934iv7UeAjPY9XxeuZI8sNRNgCsIANl95aSgW3dvbKSZdUsZISZGQAdAHIcbDvAthMILGBLD9Y0YF0DluRgRuwe49smRM4RrqV7U9+2qq6YFJSMC/KH2Tn9G0mtc08bZ2JrxqOqhh9mN9/LqL+ZUnU1sezrkPQvApM/eRD/lztxXwSkfxWQ8V1ozoXwnIvhuT+FZf0YnPl98LO7CdXXYp5fjYb6+VHJvcSaR7ld0WWjwcUTHz1q/J/vVP8P16r+ux+z/8fvHv/HtUD/zCc30r++lvjx0Hq7SMXZVnK2lSyRGkLbtpK1ozi1lMwdqA0o1fox8STzTP7UJndSvLu8rVjb0TBY4rll9uTU6tDm9uqWksk3sKfEI9GVwbfifhxZ6PJB2z/gg+9f5ZLfFNqQ/ez0a3pHeZFIhDqXohofarVaLBavr6+vrKwIhcK9vT2j0Tg9PR0TExMbG8vlcv9VPoN3/XueKbSl1Ix+eS8lJqs5v2okvbAnvbAvvbAvraA3pbA3uaALKamwi1JCUVdCUQeptrTKjqdlHZFFA1eiaz+/n5PTsaYkoJ/FToO2+7FFDNU7sLTRM0Zp0HYSsf0aaCvqhtC2rQE51VN3Qj3uUdK884qSAfQP/VUQctbbTnM99H3Q+N1eJf38L6cFvP69jrEa9aMX2iCxHYM25ECkoM2FERDaaFY3EtRIbyT0SXpQiQQmGHdPCQET7FWJexCPssPBgH6vKQ6WnCVNWYdr+nvRd6NtR9eD3mvP7NRYnCqLU2l1cuR7LAUUU7k3us5BGmZwGkZn68Zma8Znq8fny4cX83rmUptGY6sHwos7A7JbbiRVX4opvxxX/X1k+WcBOR/dTfv44bP3byX/Pz89+T+/C/3Plx//12sxf7j19E/3Ej8NyfoqPOe7J4Xno4q+jy7+Kbb4SmLF9ZQqv7zWwMKOsLLeR5VDT6rG42qn0lvnczqXiruXaocYXbO8wZXtwWXp6IZmTmRfU8LgB6kbbOpA86LmceXMX8Kq/5cbFf/Tzar//sKz/+tBTsHQi/bl/utpX11J+miI0SjSeJybyDdKQhtnR3EakWxH5zaS3qSqTUo7yg2RbEUkW+FvL3HF89sqpsIgEmu4UqNwTbrI3WdOioaflIfcir04tNDjAFYMuGHPVi82Hw587lH6F9U3PvMZwNyY0+k8fcmP0+PaMfco+lFBLjKZDBVp29nZkcvlKnLRaDRardYHbW9/C5wIbV43DeWv8Qze9C3dhJtyjyZVDV+KKKztXVtmaRlM9aZXzC3VButQDLbKK8UaB2l3jbu9yt19wdKlVo7+HJRd2vpC74QPNheGOXGwyjP6xZbfjSva1LqUTtA5v/sgZ/SbqI4LT/u/j+tF0WzemDZPKBvyjR6Lafs2ru+zyHYIbQGNSEddoq8NXDs5rA25R5Gl7YPA+s8Cyo9BW08/jGlD0EaQoUXUPKOgcsQlryna+XpMeYevogt7/fVQ+1C/BTV4J1dCnR9dBuaGcVrUJVEzBluMH13Qni4MgyFepC0KNsYl5cCP+A0dOObCCAhnLqfD4bB7F3T96E8h+l8sOhXZ2AnFexEWpxXJZLcdOGxml8MBcAcAFpywEjDPEhnhXF6YQ2RmQ102ceiaNLpJ7yQBBxo7UJiAwgKkBsBXAZbMvcQ1zW3tT66ph1ZUTdPCuil+1Ri3coSd1TKf1bKY07yY0zIfXdD1OLclNKsuKKP2XkLZ7bjia9H5P0fmfeOX/MW9+I+uP/7Tz4/+vwvBlD66GffJ7bhP7z79/EHCV34J34elXo7OuZVYfC/1eUBWXWRxV0zlQFrjeGbzZFbbVHbnTPHgcsXYWt30VvM8e5ynHOcpJ7hQS7L9Lb1z2wa2bbDDgYZMMtCRVXO1pDFvn2wef+CGgWAmBzA7oFvWAWCUG3cftC5o/LIGvggs/vBm2ufhFV9mjP6nkIb/Evo8eZjDMbs31MxL8R/9GPeH7qVyuYkpVC0IlUt85RpfuSmUs0W73NOJLdpli+RbpDZF8kMJdzcEMoZIvgkNePJN4e7GjootUWyhUDmRminQrvP2lpna2RlxX1j+nTuxF4eX+/ad+zhsperNQjgaGviyfZT6LvgGvhn4rWcA/cXb2NiIiYlJSUlZXV1FddQ0JyzaUy/oBGpyUalUCNeoH1Gu6O7urkKhkEgk6FWRSDQxMREREZGYmKhQKH7r3/2f9fxnCm2xpb03YyunNrSwaJMV2C0eOWzAZj+U1QEomZ3wjzuUCzM5gcYGOqcEV4MyKpon9m0QcujQdic2n7mHKRy/Htq+jO76OLSFIrYPAo5Z194ZtJV0swzuQ0vb66ENdut+CUq8seTvhILe4CQEQfzi9Zxmnzd4y5d2pc7vgTCXC83Pa+aE/gVGuIbQDbEaWlMAZycIC06Y3cDkIkyuQ18nFVbvKXBBZh1QIV82AlhIHeAAyYgBtR3ITe4dg12is4r0duGejaM6YMkNW7vGdcnePE8+vbU9tMjufcFsHV9pGFqo7pup6JzMbxrKrutLKmp6WtAQk1cbnVsXklwZkPD8QVz5vaiSW+GF10PzrwbnXArOPReU9enD9A9uPn3v56g/XHzyh4tP/vjTkz/+FPnVg+RzD5MvBKddDMsMSK0NzmwIz22NLOyMKetNqhnJap8r7Ft9Ps5FqhpjD25oR5naCY5uhqdbkRoZSjNrz8EzunYdQI2DfVjeFq73AQwkNZGyktDpBsBIykzmGVBrizczFLlfTQSEUQsBQ+LspH8ZkiuJsDYcsLYNVR1zQYnPP7kc/cHPsYHPekoG2DXziqCquc+e1Ea3Ls2onRYAdmySsLLL30b+W0Zd8LKghyuf4MpnOLuLrN1VVA6XJdv4Be2uwz3h/qss+fIxbcmWmNJFlnyZo4SvbsmWeKo1tmKFrVjhylfgGymnmKqxcW59ZnP4xcd/iyzwW+DNmDCTC9Y48UEb/UvmG/8uZsDhcAAAJBJJenr648ePW1paWCyWRqMRn7BIfu2CzofqtEkkEmRpEwqFYrFYIBBIJBKhUMhgMGpqaiIjI2tqahwOx+9igv4BL+JEaHtXvwvd0va0fOB6dNnAglRlAgYzMJlwpAMrTsloxSnt29107dnBrgW0jPMvB2aWtEzpHNBo8Upo61qQ/zpL22eR7bCOrtfM9ltDm1QD8qpo7lFoqSFetrT9IiS9RDW/4QYKmI5ZtujAdJp93uYSqfPToY3iWurWpc8bfSO8Z9wuJDqu2QkMyUoA2YFLekDsGDGJwS3SOYV7DoHWKdA6OWobU2Fe3zauiPen2IoptmISStM0xWuaFDROCRqnRCX9G8UDpPqZibWTsVVjT8oGH5UMBuV2+T9rf5DadDep4XZC9a2nVTfjym/ElN2IKrkeVXg1Mv/Ko7zLEbmXwp/9FJpxITjtQmDyj0EpP4ekXA1LuxaWdj8mNyKjMj6vMauqN6d2IK9+qKBh9HnPQv0Qo32K2zsnnt7UeMRUMaQGltzA15iFezaJwS41uRQ2QuOCAW2owq2JxK8Dcm0mActBmgAJbw9c5Cx2k1lECEwdZJ9QlKIB4/lchM2BOewwNZWqgYK4Fq0xgLlwpxNzkFONOd2Y3U3YMGhoNGEwc1yy5x5eFGVXD96LzL0RnHrhVmRCVt3IjJAjdW/tgaSaoYsRzzIbx7j7btiSHSKjpl9Q+SD3s2uPP0ov8++dzu+dKu2ZrOuYamiZrWqaq/xlzZc3QZWSKm6aP6LGuaKG2YKm+eKWpdKm+eLGuaK25bLmxZKOhfLehZr++arepeLuldzM1gdX4z/44fH7pUNpYgPHAax23OZzj1JfMd/g9zMDCNrMZnNfX19CQkJUVFRFRcXAwACqzfHyGqV/nmY9Si7j5DIxMYEGk+QyMTExOTk5MTExMjIyPj4+NTU1PT09NDTU3NwcFhYWExOzskJWS/j9TNM/1JWcBbShJuhCjT22tPdWdMXoilLvADozoTdjpFx6q5vSns1Nk3PPhuTes+JaK5CZQNOo8GJAdnHztI7sI/0Ooe3rqK6Pw5p+O2gjE0ibPwis/9y/vLSLdeAGUg3Ifj55MyS/Y2AZQow3qApxG5WZSCb9HVbGokozUMFYaPBKDKLfjQiz0JZX7nzyxsO3ooDptNDmzYNEv9ThibzFMY5t8cbleybjlT+6CeAgbTZWb9ojaRUDRifUvoPQ23GtBdOY3WqTC4m/u8eX6fkyPXdXzxAqKE2tcpAm1jjdU0tIXVMrhW0TBW0zBW2zBW2zKTXDlOJK2qKLmiJz60MzqwIzKgPSK/zSn/ulV/ul1T5Mr3+YXn8vpfZOSt3tpBqkuymNDzJaAnM6g3K7gnK7wvJ6HhcPRpUNPsrviS0byKifzGubz26cLO1cqB1itExyuufFQ2vyGZ5uadu8INxf3TGxFDauxiE9IKQG186+c1vv2N13qcxA74QuVAtp7iKbfh5mGNi98XCQzzBYd8NNJh9YCQK9RLpiCRvuQrJgTovDbnU57BjmJGt/uDBgc2BIVrvTbLWbTBbMTavnAeuBAOBwYRa7G7KbE+Kbww6cNiTCacNcNpfbI/Jl2OnJggGR2jzPUTSOMHIax+/Hlt15nP84o6asaZQh0OxZgNEBeDJHcnHzz0GxWc/b+Op9GAII29IfHADlhnkgse3Wz2F/Dor74Vl5wLOykIzSmJTymKdVYbG1Qa9VQGytV3V+sR49iK07VHTt/aiae7F1D+Ib/GPrHkTX3n/aGBBX75dYF5hWHZ5eFZpW+zCl7m5A7lffhv3bvdxvp6SdekzmBhYbZra6bL7sUfpfG9/49zADOFl1B8dxuVxeXV0dEhKSmJhYVFRUdsJS/oYLdZpSckFHl5WVlZeXl5WVFRUVlZaWVldXV1VV5efnx8fHBwQElJaWymQyVHjo9zBF/3DXcEbQ5ibrtMWX9KLiujIdkOmdsn07KeuuwUaTY9fwCqkPCIURcFWguHn14sOc4qZXxLRR7lFoacse/+ZJ14Wng9/H9X8X3UOJCmWDg5iB8zGo/ejAtzF9nz/q/Cj4OLT9OaiJptY/B/0avR/c+l5w+3vB7e8Ht34U2PBFQGV5N9viBjItSK+evhJW2DawCo0TFL9gsGgWiitHiYrU+mjwuyc6ylM7C54ABdHDM8FHiNdlg/gPVepCbkE6n9mcNofL7nDZnZgDhgh6uhC5MZfD7bTjbtJtCEuFkfLWevVeLgE8Nb2A1WHgeccJAAAgAElEQVR3ul3IyoLekXoXFJoNLx6HD2Bqwb2GHAQWVtxTdcLgBBoTkO+7jE6gtwGVEd/Vubf3nGK1nSszM7cNy5L9KY66f13SscDtW93uWhI1v+DVTW41TnMqRxn5XbOZzZMF3QvPWqbiq4Yel3THPB+OqhiKKO4LzusMzGkPyG4LyG7zz2p9kNF0N7nuZvzza7EV12IrrsdV3ox/fjP++Y2EmhuJ9TeTGm4mNYQVDyFFlg48rehKrepMrepMed5R2jXpUfd4w8Riw8Q8Uv/yVv/y1sAS1CxXurat4WvMEoNTZsRkRowsSehWmjCl2aWyuDUWpwkHNjLzAKZ2ElAIRqEnEYPORCTqHvD8SJIriodDYaP0NR12qduKPkC3hxsWXCPvE3KNbhsCP1r3zYvnKKfVc5ciExwZoIe7YC9SF4bhuBuW0YX1dpE9zg3IXFo7wAxup9Ji46n0/YusxLK2gLTnP4Vl+afU5dbNtA1ubojUBic4IFuvz/APIjIbrvg9Ti+oWOMJ7fAOIYyOfRw4TUC1ZRt62nzr+uMvwpNuFdc/La5LLKpLz6lPy2hOSGmJ8SoqpcWj5ObHHrU8Sj5UeHLLK5TYHJbQFJrcEp7aFpncEp7YHJbW8Ti15VFGa2RW85OcpidZLRHPWsPCii/9FPdnv8Lz45IWA9h1AYOLML+muO4/3FPBd8H/NDMAALBarTqdjsViFRQUhIWFZWdnI8AqLS2lkAthFiIt+sZfHFOnKiEXtD86c2lpaWFhYUlJSV1dXU1NTUFBQUJCQnBwcHl5ucFg+KeZ4bP/Rc4U2hLLB38MzqlonR9flkxtbE9uejTF3PFoUzZ1KPnUpkfTG/Kp5Z3JFcX4+kHm84UfH+YUNM3qnNC0cKKl7Q2h7avH3X8La/XkjdLcozRia/p1xIaOej/oFdC2swdSqscvhuc2Da7A6qSIf8j6Xk7vo5p6ZtMf1Q7aA9tJ2lG8D2myqwJENw+0kfFbAMXUO93QRYUqdUG3IOFEzYZIW9ghMVKPdoSRiLeoYqzkmSEsOkieMOHAhEOTzwFZIMxNGn5MBNh3A52T7GNhdGlt0NvIV5m2pAahxslR2plSM0NiYkhMK4L9mS3VOEPWN8fvnuN2znA7pjm1A+vVfSvPe5Yquxdz6oaza4cyq/vTK3ufFrbHF7TF5LY+zm6+n1J2L63ifubzB5k199Kr7qRW3EyquJFYfj2h7HpS+c2UKo+Sa26n1d9Jb7iX1eyX1xpU3BlW0hNfP46UUDee3Did3jqb1bWU171SNy2i1L+lRxpk6qfFjmmRa1rkmhVZOGobX2OGUpl0LkBJjxN6HINtmgjciOMHGG4iCBNBGBwuK6xVCxc0sYeQS24kJ5ZAnkQX7kRIjdbI+fvyGr3qaSRFUpH304dvRBET/XOkKJkaoL81L6e2UNu9qHb470vQhgOybxVJbISdgHeUzWIinDCMBsDECwxFvAn1RoZMUz0w/SS70j8x/1ZMVmxZe8XQau/KjsoK9HZgwYERg3lF0zxFZEH3raiiypYB3rbUThAugDuBy4wZ3cCmcYuaVjJ/TvjgXtyFwtqUiaW2iaWOsaWu4ZWufkZn30Y7Ta19G1C9jJbejSaaGno3TlQ3o75rva53o6Gf2dy70dDNqB9gtfRvNA5tNo9sQA1tNg8wG0tHU4OLrl1O+rSg7+nO/oYD00O75Mm9R8/+z7rvHX0zgGYAc8O/PXK5vLm5OSoqKjExcXJyElVTQ+t5cpnzLrNvuMx4l2lyQUfPzMzMzs7OzMxMTk5OT08vkcvU1FRXV1d8fHxkZOTq6uqxvzy+z+v0M/A6aKP/F5wan/7UaE/yv/LwGS/U2NNrxr++mxKT2ZBV2ZdWM5hcO4yUUjcOVTtJajqlFulFSi2pmrn06rmsium04smM6tXbsW3n/HJzW2a0ODAD4MAPs0fplja/7NFzTzrolrZvY/q+jSHbHsRSa4+Z7VzswOePOv8SRJrZjsa0vUNoez/ouKVtZ49IqRm9GPGsaXAB+YBIUxmcLqe3BD5lX0GDEyxtBPmERmY2NwbcGExngxUonAAaylDklqeeKhm5hfIZUXkIqnCXzZvPiLabAWQvlQXfNTg8/SrIZhWcXTNHZuXIrEy5dUq4NynamxTpJ0X6HoasY2W7ZV7UOCuoHNksG1wr7FvO7Z7PbJtJbBiNquwJK+wMzO3zy+q7k955K6XzRirU9ZSOq0mt15LbbiZ33E7rup/e8zCz3z97MCh3OCgXxoEF5XaEF/REFPZGFvU9KRmILh+KqRiKr+5JbOzN7BjJ7ZkqGV4oH158Pr5aNbFWObZSN8loned0rQiHN2XjbM28yLgiNW4o9rc0er7eJDJYJEYrkthg2d637BisCotL44C/rBHz5BCgTAIzGQEG65mRLc8dqDCb14HocgIkhxPYXLjZhSG5vXwGERYHNgyWEjy0m+KEAwomqzoIp4NwQlajRGa2/k6hjfxKe/LKoSkV9hglMLcLd9oJpxU4D4BjH3focZcOELDqGwE2tbbuNUFh94uw7Ea/pIqw9Opntb3DK1zmrlZHQN8uuu3tZIrDC5HuUXbDtbD8yo4l2R4kPwIAs9tGTrONAA6xcSOi7NKH9/63pIrQ6fVe1L1KoGbw1Zs85SZPueUV+hGuOcp1mlY5yteJrVhBWQh8NYOjXGUrVgSaDZ5qjQ/fgsHVMDjaNZZuZVzQXziQ/mPMN/dTr65yx1y4zg3MOHB6GsaTNss3/Tvp2983A7/FDKD/Pq2vrycnJycmJra3t3M4HKl3oXcXRTU76FtOM/aeSYpSENAhUqlUJpNJpVKxWLyzsyOTyRQKhVQqZbFYra2twcHBBQUFKpXqt/h9/xXOeabQlvJ8+EJgdmnT9NCCuHmC3TDFbpjkNkxyG6d5ZAS3J467cUoENSnxaqdpUjK8pGgd4jWP7iZVzH338Fl+y8QeDmwAPvyokh93YguZWkLhAF0L8pegDRLbUWg7JLZzsQN/C4OOy2MBbR8ENP6m0CbTEmnVo5fCnzUMLZBuIEDaFTzBSdA19pKQje2YpY2KYXLSqAuhmKeAKspqJDxEYiCASG8V7lv5+3b+vnOWr5yBUs/w1Z1zrPZ5Vvs8p32eUzW0Wtwzl9k4llLVH13Y5lXH3biSu7Fld2PL7sSVfROY8GUwqaCkD24//uvd6M/9Er8MSD4f/uzHyNyfYwqvxpU8yKy7/4xUZsODrG7/3IGQotGQ0vHw8sno2vmUjs2sfl5OH69gWFwxIauaVtbPa1uXDd0M6wDLMca3TUpsc3L3opKYk7vnFfi6FmzuA5bRzTHaeSYnz+gQHDhFFmzXCVQYTHXU4rBOrI5MeDSQKY0Wb7NLK3AfEHYzfigA7ZSEA7jthNNJwi6KwUPI60ah9G6X07t40lShJ9DbUAriC7R3QUej17HoqdiGzGgkwx2C+D88tMEZgg5RsmqKm4BTZ4W+S6cBYAcAKADguVwbB47MrtF7GeXnwzMuRxUEZdSXdC/N8fVCvXuftM7CstikSdgN4Ae3pnbdfVp67kFSTvXYrh5WtsMBrMJowx1Oj2vewVYv3kj+5JuI/9o8VcxXrQiVUHwlg6/cFCn4ErnQK75E7hGs7kHJU+YDFft4xVooYwqkmyL51raSI5JvCWXMHRVXomCLVRyRiiNQc3haFnePydZtdK+3huQF3Iy5NDrfgRF6N/z/I0beEBj6/+2/wsPD9zv+/mfA5YJ/u6ampiIjIzMzMxcXF6nCaah82rE1qs1x+jVVXJdep00ulysUCtQzfnd3VyqVqtVqhUIhFApHR0fj4uISEhJEItHvf/Z+n1f4Omh7J1dMt7SlPB++8qigZ4qvMQOVFShsvyCx3iW3gB0jpjATe2anQmeXGUDbGPd2RHZl67gFg3/Wve5Rk19sJQ3alH5Z4+ced/0UP3ghtv+76L7vovu+jYaBa+c8ZjZEbEPnYoe+iu7/JLzjoyBPpQ+yMNthaY9TuUQD2/9M6aSgN7RD0PGYtmd10xdDc2r75sxkqLgZogZBoYYZeDyPJgI1WoUPMzOAQehaK5TcQIjVdpb8YE2mnxerJzm7gxvbfWvCjgVu49RG9cha9cByaeeL7IaRlMq+5PLexNKe2IKuR3ltfjktd7Mbb6TXX02u/T624tsnpV+GF30WWvDevVSou+l/vJP273fS/+NuxvsPcj70y/0iOOv7R/lXE57fSW/wy2nzy+7wy+4IyGlKrOpKrmoh1VbUNVbeO1U9NFs7stAwvlw98KJpfHlghTe8LpjYkszy5Qsi7frOPlfj2jEBsQEo7LA6l46A/cINxAnyspeBNjACYPLW16DCv14eeOLDSGsZibCEBRA2muxkqwC0dgKCHhNGjT1Vcwm3+yXhOAQXUjhpf/JY2DwtEbwtrVA7TuhWphVf9Tg3XzqnZzsZV3jomDw6ou9DXh56Q4LyjR7rwYX+t43WlM+Uuh70Nafvc5ovvs1ms9vtDpfTTvYdPQAuOwBqgPFcrl6hOLa5/VZ6wYd3wy5GPwsuaCzqm5/kSLnag33ygyMAsLlhdCNJzECPgQmW4lFey5Xw3PLOJYkW2EnDpCdlFbgpaGMq5q8lfvzto/93ZKNZrN0Uq9fFath1FHZHUIhgK1JKctEOqe1d4fYunybu9u6vkUTOFSm4AiWXr2Lz9azB9e6I/JC7sVdH5ztwYMAJqwuzwKBPb8TnaebQt49vBn7rGaBDW25uLpPJ1Gq1UqmUgi0EWBSl0bf/FuPZ2dmkpKSEhARf79Ff/dH/faANAocF01kcpFw6C11oo0NnccFAbAAEMs3cOnN5c3NHo1fbQH3f4tWAhMLabr3NjgMY/kxa2k4HbdGI1frOxXqg7Zuol4ntSIeDdw5tHwc0fOV/mIjwrHbuYkhRScuMQO1g7WrXd3ZnhKIxrnCUKR1c2+ma57dOs2uGVks7XzyrG0qu6E4q73pa0h5X1BpT0Pw4p/5RRl1YalVgctndpKJr8bmXo3MuPcn6KTL7QnjW+ZCMc/4pn9148uWNx1/fivn2Tuz5+wk/+adfDsm68qjgTnrdnaymB3ntAYU9UbWTMQ3TCS2Lye2rZdPbpKQlM9Lalb36NX3Thrlt66CXsz8sMExJbXNKN8MIkLaMQEs6tlAFLyOJRyiT0YgBGFqOwbB6CwbMbjjwpC5iwOTAD+yYxY3Dkl3EYaw9bILp/dFKwPFJQrW+UKwebe1pMEW5kpFJknL7Iusj1Z+AbqFEfjo696Axak51yEk0zKIyNmCKlqdtKOS2f3pow8lEGTcZheYEYB8jTABw1Jqy3oGwkupzj5P/5v/odmp+Uf/MMHtHbIMldg2wtBuBHM0mB26xwyJtMEoagEmW9FF2w9WIvPLOJb6KgAXeyDMjaHMCzOHpFmb3Qtt/G9loPXto83IbW6hjDa11R+aF3Iu5OjrfhcP/bsAkWRqxYb/6L7LvQN8MvMMZoENbXl4egjaZTEYHMorYkHmM/tI7H/ug7e0/3DOANhgZjWLaUp4PX47I753h7VmA3uo2WO2knAbrofRml1eY0Qp0Jndzx1BI5NOMwsqxZa7kANQNMy+HpuY39+kwJwYIWAgKdkQ4Dm3+WaPnH3ccs7R9EzPwbdzAt3F95HrgmI2NVpXtN7S0UdBmwsCOFhS1bH12LevHu5mBMcV3ItNvPU66HJl44VHyd2GZ50KyvwnM/Cog40pM2U+Pi86FZH/pn/75w9Qv/NK+Csj4Njjr+/C8azHP/TNaIwq7wwpaop/3ZLRO5PcuFHTPVQxvtMyLBtZlA3PsiSX23IZoiS1dFyg3xRqObJ+vOOBrzCK9XXqA7VoItQ3sOYGBjBFEJbss3kbgaKOVtAJ6HbieWl/URgfpfLQBZMeCnzVKIAUExBeHzUlZcVAkO44Bp9Ptgp0EYMsBKk8WhvF5/Zi0AU6G3x1bu2GsHiVvVwNP3Bh1EjJd45grGeVtUL1B6dYvTyIIyhTwrqlrRqXIyEQPj+GLwHACNWIgHaNoT8pDikqcoPMj+xb9vf5xLW2wuSoObA5gsgGDDeitYJmnqOmZDEjM/jEk9pzf0+ji9t4V0ZrMIDO79zHCSd4PsF4jDj92q8tx4HCYMdxKAL0bvBCbQnParoXlVrTOb2vgrWUhSc7L04QTYHZgdwOHG9g25XPXk/56LvLfRzfbJHtMuqVNrBSIlSKvBOSPcC1SQAuZR0q26M0lUbBp2hIpN0U65sha++O8IARtbpj26oO2t38Y+c7w7mfgGLRtbGxoNBoftL37iT7DM54ptCVXDiFo01uBwYIbLU6v7EaLRwazzWB2GEwug8llsoIDC5iZ3cwvbqxuGZxkSAQGUD/GuRKRWdA2qIPPbNyOORwYWOEaH0ZXHHGPPhv5LrL9x7iBH2I8vtFvYoa80AbR7ZvYPrpX9GjTqt8U2uq+CCgv795C0JZXzzh3p/BeRHlcRkN0emVCfnVqVXtW41Bm82R+12LlyFb9tKBmnNO2KB3lGudlrhmJfV7mWlWBDR1gGQHHCNgGwNoHSgAUBFBgQIlD65cOwLWeDHHDqZoc5OPTgQGr01N2AxmTEFQhexXMaPAudrvd6XS64TMax2BOg9NB2O24zUYcyo7bYHkuzGFz2y1Oq81td0NKP0yRtB4YYaiXy+m0WOymA6fF5rI73A6n2+FETaY8rc1xTzspqi2BZ0CR2UuD4/7KI2fwBP5TeRtk3eIjDkqEUBRpoVQOT4bnEScimYhLd0PSxhTJofOgc3oKrNCcob8dtHn700PrHt1MSP8NvJ8n/Je+nYJIemFkGP4PF4wgPBX24E9kaybUERW1nNfbwabY1jbEyKnouROeetHvycO4rOy6nsEV8fq2SeOE/G2DeQYEBlw4YcdwK1m2zeF0YxCjAdA4wKbC/Civ5XxAam7tqMYMvaI2N7S9AW+dObJ56zFo+xsN2mD7UZGaJVBzRCreq8QRKNkeqbYEdFHbTxp4dxYptyhJFBDaJHsbI2vtkQV+d+Mujc53eaDN5x49w+eW761OOQN0aMvPz0fQtru7Szeh+Sxtp5zM38luZwRtLjJ7NKFi8HJEfs8Lns4OjBZwYIZMdmAl6c1qNVrNRusBKbPRajVanLp9p96ASXctDJZsSyiXaG1qJ2id4l8NyyhqHtzHXG6AO2nQdj++mK0HKhfoXVL70aDtfMzAt9EDJLQNfRs7hMxsX0b1fBza9mFgk7e76CGo/YnWRfS9wOYT1PpeIKXDfd4PbqWp6f1gKORj/TCw9cPA1o8DILSV9mwZcbCzB5JKxq6GlzUPMvcswGIDJhtxYAP7Nlhi9MANnYMWHD7G6Ame9DHd00cfU43GT4IV+MAm09xgb0Rv9BV8Nns3vtwzkUyOwzDYtOFQ9Iw56lgIAR534SsGx259Kl7r0AVJ8zu+ZiN1IDU4tjO8Hho50X/NXzk+dumQa7w6+Y3o10CfdurYl876Bhuok5DGviNMRuezU4/Rjgjz3MBtBwBz2R1OF0GQrasOAOAfgGHmfk7Tamzx6JXw/J+DM2Kya+sHZlaFctm+9TDWkIA3rQPmQeNO4DY5jDhMFQU2B2GwA7UNTLH3Y/I6/aNzS+r6uZI9swM6ymGmM3A7yK5QXjbG7LiNTMixMmXzN5I/Pf/4P8aY7ds6tkjFECk3BaotvootInMFjq/VLIGGElOg8UrNEagFApXII7UA/qjmCdR08oPJB1BqFhQc88RKnljF2daxRxjtj4rv3km4MLLQ4QZmaGlD0HYkrI36mrzBB+rb1TcD73AGjkEbg8FQq9WoJSid1c5s7HOPvv2HexbQhmK6BVr70/KBSyS06R3AaPZCmwVAe9sRaDsgoc2uNzo0OgdfqJudZ88tM1kStdwM2iZ4N8KzylpHTPA5AuBzmgBrfLN/3POHiaVcA9BgoH9VE5gz8v2T9osJAz/GDZ2PGToCbbFDX8X0fvqo/S8hrWcFbU2I2D4MbKJD27aOSK+evhv7vGuCbSUfvzB9FAWFEZ5URMwNe33SPmnqSXBsQNvlTYengzbqrHQgozb+6gGFXO988Ksv6diBdDA6cXwytNH9pL9DaKPb52AkA467oOvaSbPPwiCzbb1rQ2odZKieNc/fSay7FVd7L742oWyoc4bLV9o0Zhwhmp0gKNF93BhwW5xWqxPWXrZgYIqheJLddfdxSUPHlExhcBOozA3EOyQvsRFugKDNiQG7F9r+OMbsPA5tCK1eWh+CGkVsGqZAzSFxTXLIbSoRyW0CkQoJ0ZsX2mDqKE+kQh5YwfYed4TRHlFy83bSORLarATZGuJY9Wna/22O3VC+H30zcEYzQIe2goICBG3Hkg/OjNgUCoUP2t7+gz9raLsYnts7y9U7wIEVmLw6sLoPrM4Dm/3AZiftbVYEbTqDXbfv3JEZ1jclq5s8zo5WdgDqBzevhWaUNI0Y3dCj5XS7KPcozdKm9Hs29F1k64/xfT9ED1DQ9lXs0NdxI1/HDX0e1f1haPOfgygz25Hkg9/A0vYKaDMQYFtHxBUN/ByS19i7rDsAGFlfHlpLyBht6MwiPVRHP+ZjrEb9eHSvN/rp7wptb3Slf5edTwQ1ysx2dPB6M97LZ3ubX4p+tlOb044Y5FCXOSpb1gWA0WK32t0ujOztC4DcCsY2ZMWtU0+yGq6FZlwLzXiS1VA/sD6/pVUewH4V1IIDHFaewzHEbRS0OVHOgRMzYg6dG1/kqZLy2+8/yi1vGNPsuwgAEw3sboLuGSehDZVSwWyY1RPTJp29mfLZ90/eH9/q2tFzjljaXsI1ZCE7Cm1eqxu0tPEQpR1dn2BpI6FNoH4ltHXhhN0HbW9zD/uO/e1m4Bi0ra+vq1SqU0LbKXd7I+bzQdvbf9a/MbThsB0TZWmLK+tD0LbvAgc2L7TZCLJbvJtENzcV3Ga0ONW6gwMrTDTTGu1ynVFldCssoLJr+UpwWmHD4L4TQg4sOuACyxzD/ahyMqYNKBygZ17unzH4XUTLj7G956N7KPcogrYvYwY/edSJCrC93jf6pxN9o80032gr3X9K8422It8o6R49EdpSn0/ceVzWPbJltQOHBbgsbocVd1gPI8tQkBntk6Yo7diAtsubDn3Q9toZo4PRacb/QNB2zMzmIoPJrBhs4bpnBbsm0DTOTqwcuhNbfDEwJTihJLe6f2SBz9k+UOswiw1GL0KPpxXWgiIIDIfdC9wvQxtsFOuAN7LODZhKfWhycUBMXmPn9LbcCMPXCGCyu6xOFxWACPufktlLJLqdDG3KTYliU6BkQ/foG0Mb4jboEhWoeXwVl+YehZFwYg2X7htFkEcmOngsbWGlN28nnh+d6/FAm9vms7S99mvke/HvMAN0aCssLETQdgyzVCrVsS3ox2Ne1GMMh6LiXnkgfeOxo3zQ9vY3wYnQRneB0cdv9pZHoM0ZV9ZzMSK7d5brgTYbZoKC0GayAqMV6M3YgQVYoR0O1xttOoNVf2AxWO1Gm9PkIvasQG2H7tGrIelFjUMGFw77H2KEE/Nkj96PLWFrgdIBehdUgVnD30e2XYrvR3XakHv0q9ihr2KHPn/S/5ewNhLaWmlYRgWoHRscxqvR4ewotB0e8hpo+ygAemM/Dqj7PLC8uHcLWdrSqiavhuS39K7aHPCJByO3yScVqtQKo8JxFBhOTTyd1dBGtIXa4c0HPmh77ZydBtTo+7z2ZO/4Rfr7nsbSRqc0B0Ya1cisFJcNg/WBCZgNIDeCGdZ+cedKeHbHhdDci6E5D+JKKzpeLHHUUq3TSYYpHilq58apQrtkUBqObGxkEypYINdgtVoJGKM5uaYMS6q95BdX3zuxq9HtHxiRdc2N4043hhI4PGsPtAE3OAZtX3gtbTyJYpPMDICpBnRo4ys3V3gvZjfHmNvLQu0WR7m+ubO4KpydWBvYMfDEerZQC7UqWJzbmmbLN9fFyxwFk69irwmX5jan+MpNnnxDouXw5BsM4cIqf06iRWx3xNJ2CG24kwAul9tB84fSv6S+8h/v+J73ne70M3BKaJPL5fv7+zs7O2traywWSyqV6nQ6qVSq1Wr55CIWixF+aTQaFou1uroql8tlMhmq+sblcre2tqRSqUAgkEqlQqGQy+UKBAKxWHyM/HzQdvrP7qQ9/37QZsdMdheUDdPqHQ43/A+33gQ0ekylsan3rDqDXX9g0R+Y9kxGg9VqdLq1FkJtBy3jXDq0oT/xKKaNDm1B2SM/PGn9+Wnfj3ED30X3fRMzgIjti6iBTx51fxjSSvpGYfKBF8UOwesokFE7HBu8ev9fAW2XQ/Ob+lYtTtI9SoM2xG0+aDvp3j2z7XQwOs34zC4MJnnSPLNvCm02F25xuO1uGBzqcAC7E8g07rl1ZUXrfEhqw/kHmT/4ZT2rneiYZG/sHCiM8BuKo7RgaOImW9w7yXbuZN0TOq4haIN7wdfhonOA6U1ZfHb77ZDc+p4p1rYM5n27zU4AG1GQGSTQKo9asMH1obHtZWj789hWz46eDm00q5iatcJ7UdNZVtdV/oIxKtazt/c58+yJ2p6yhv6KdfE8R7ku0DA3dxa7p5pLm3NXBC94KgZPucnaXa9oK8qvzlzhvYDJDUrGumC2sa+idbAWbiE9qmQlER5KRAgrvXkz6fzIfA/MWiYwH7Sd5W3ve69TzsDpoU2lUq2vr9fW1o6MjHA4HLlcvrOzw2KxRkZGpqamuFyuSqXSaDRisbiurq61tVWtVqPmChwOp6WlZWhoiM/nSyQStVrNYrHq6uqmpqaEQiHqhUDZ3nzQdsoP7jW7nQhtrznmDV46Ymmzk5a2Z71z7H03OIDEZjuwuw7smNUBFCrLwoqos/dFaWVHcXl7e+fY0iprV7WnPzDumfc1ln29za42YQoLaBplXQ5KLagb0Nvd0DLlIhxusuRHTNmdqIJNFS6zgq5ZuX9m/7ghYbAAACAASURBVHePmn6M7T4f3UNB2xexI59G9X8Y1vF+cNN7QY1eXEM09moIO7oPndtevf/poU0PgFhPpFVNUtCGe6OvPYUkfjn/AH0UdEsbfUx/9eXttI/xDS1ttCP/JYZ0MDrN+CwnBSPhBl3Vm0Ibau55YHXuqMyTDE3L+E5GxUTI09r7jwofJ9WU1U0MTrJlSqsV9X8nyHohTuCtX0wWwSPvWDdZIdlG1ldDmc6oNp6DgMTmAGDfDvrmZREZLf7RuRWNvbuafTsMbQAksb0ZtN1I+eK7JxDato9CG4QqmCgK80N7Zlrich5VtBUtcKaF2i22fK1npimlOLq6q2iZP8mULrIVK0OLHZkVTzMrni5wxwWaDY5yfXC+MzozLLsiaUM8v61js2VLY0tdaUWxdV3lq/y549C20RpWdv1m0rmR+R43tPVjTsxBpVcfy7A+y/vB916+GaDPwGmgDZnQxGJxX19ffn4+wi9kNhsdHa2pqRkdHZVIJDqdTiKRjI6Opqam9vT0aLVajUYjEAiGh4ezs7P7+vpQj1GZTDY4OJiRkTE6Orqzs6PRaChi8yUi0D+aXz3+jaGNgDW+UKSzUGOPK++6FP6sd27LC22wzKbB4drWHHQMziekVTyKzotPKfcLSwl6nJGWWzOxuLGt0WvMRo3ZqLPCDLWToW3fL7rs7pMCpgKCXffsTkBG7/cRDRdjO3+I7jgf3fVddM+3MX1fxfR+Ftn5l5DmD4PqYJvRt1FAIyrtdmz9YWCTR0ENH9L0cUADqbq/BVR+FVBc2rtpIIBYB9Jqpi+HFzYNrFnc0MwAXVRkF0tUxNX7uR7ztlA/otfpQEYf0199ebv33GQVLioMiw4ltD3+pYf0OTnN+Mwmi7xfPOFfx0p+UBVbqCZaCOlQgCnqUWtwgh2dY3KZU9I0EphYeyWs+N6TspTC7uEXQiZPr9bg+/vYgdFOloDDLYYDt83htjmAwwXlxICTQB1XYVVkssAHVYwGQZvBCmt87DuIGYb47uOinx6mFtd1ieXK/QOjw+V0ErjNbffkisIiL79saWNIZ6+lfnEu6s8jrJOgbUOg2ajqLIzNDhuc79zW83gqxhRjqKqzMK0kpmemiSVfZkoXGdsvqrryQhPvNA5UrAimWfJllnw5rzY5Lid0dLFbbhRI9zls2UL7yPO0ouixpZ7tPS4JbRxvyY+tER+0ndld7nujt5iB00Ab8mByudza2trGhsa1tTVkHmOxWJ2dnZWVlWtra2KxWKVSLS0tFRUVpaSkbG1tKRQKnU63urpaSi4rKyvIYbq+vl5YWJiXl7ewsCCXy33u0bf49F596BlBG9kRwfq0DEJb/+yW0QUj2HZVBlgbHYAxJi8svfhBWEZWUUf3MGPgBTevYfxudP692Py+eTZsa0OAPbNdayFUNtA8xj6SiIABBw7WeUb/mPL70cUshcsJwOiCJDSz63pc68/RjdfjOy5ENl2IbPr+cdP5yOavQ+s+86/8q1/5xw/LPn5Q8fGDio8elnnkV/LRKUUd8rDiI6jnlP7iV+VV5V/8PPrrQ/iOnzws/fRh8RcP8r+8nZZTO60yA/EeSKmevhSW39i/anZ52pWjChHkx3UMzl79EXq3Uju/ZuDd9+R/f1dQcvJl+l7xlKDzBuxDdKNajpKzg8GGDd6+9zClk3SD4gDsO4HKBub4+oZxdnzl8PW4qm/8Uh+llNa2Da+wpDsqM8wDIDyeShdsDY8h4W4nXZ5uELSieojeoOPURdjJ5G4zALM89d2orCt+j5t6xhT6A6vTdVg7EPp2YeU/eNehmik4wCh5PKSH7tHXQBtfxeZpWRr3zhij5/GzwNz6lEXBNFu5zldvDsy1xWSF5telrAgn1yUzAu36wHzTo7S7SYURq6KZLdkKU7rcM9P0NC+kvP3Ztm5Lus/b1m/2zdQl54dXtmavC2a5uwy+mqwGp+CKlGzJHnOI0RhaeuVG4rdDCz3QvQsw+1FLG/175LtZfTPw95qB00CbQqHgcDidnZ0FBQWjo6O7u7sHBwcymWx4eDgpKamtrU0kEu3t7YlEovr6+tjY2IGBAZFIpNPpRCLR6OhoSkrK1NSUSCSSkUtvb29GRgbaR6FQHOu+4HOPvv2dcObQFpHRP7dpJLNH1XqLye3ac7sKe0d/CkvKre4X7toVRvhEYSjB81HON37JqdUDnF2z0QU0JgdKRDgJ2gJjSv1iijgKpxOAZaY8uXQg7FlnQFpLaHbXo7yBR3kD4flQIdl9/umdD1Pb76W23UvpgEptI9VyL7XlXlrT65RK7nO4Jg9EJ/Gu76d1nqSHqe0BKa3ByY33I0vah1j7DqCwgMSKiR+Cc6p7FvftsPAB7DxAVp8nP1oKv07zQVM7v2bwy+ehP2xOGv/yWXx7nMkMUB8QQjc6tMEbCfayBw4nzOwx2WGzATsAEj2Y2FQXtLzwS3x+KSz3p7C8yKKBpinejsZyYIWlOahG8sj05cIwShjmpItGa56qxjCfgIA9p+xuWEjX4AQjy/w7UTlXQxObeobU+/uoQ7znahGlUTF5VKG7N4G2bfmWRMEWKKEljL+3tbY9U9KWmVL2uGumfnN3aXN3ZU38orAh42le2MB8C0e5zJTNTzN782oTo7P8Oiaei3QbLPnyumQ2rTQqsSB8gTcsNwrEmq1ZZl9JY3J+TWLfdMPWzjJPvgGhTb1FdsHakuxteKAt6WsftJ3Jne57k185A6eBNolEsrS0VFBQUFFRwWQyZTKZVCplMplFRUVlZWWzs7NCoVAikayvr2dnZxcWFq6trWk0Gq1Wy2AwSktLKysrGQyGSCQSi8VMJrOsrKyiomJpaQnZ2I51X/BB26/8IGmHvQ7aqEcCfUA79lRDN457eo9qzU/LOi55oc3sJAxWp5UAOwe2qOKmSxFpYysCoxNoLGDXCiQ20Dwr/iEkMzKneXZTIVbaNAcuvQ22vmkbZ18PTi9qHEDZo6hMAINvCIot848tFqpxKwbE8gOu3DTPU86wdhcF2hdclVeadZl1WWJcEO7PCWgS6uagtFAi9auFXj2yRkfp6KeaFxlfIaFpQWBagjKu8owM7r5KDxFNoibSaqYvRRQ2DK6ZyOBraG/wQBt2QgWBk6adZDXggkfROhYcHZ907OF2+md9mvHhkb7Rmc8AZHzChQRzEgCOfKAw0A2DsWd2HFhxoHfCluZcLehZVITkdP0YXvjtgxT/hPK8upHJZcGOxmEwQ9MayVuEzYVD6xpBOitxQBGbC8MQsb3MarQtMAnU7oa9EBQmMDDHjkgp+tkvqqptSKE/IBMSIBQegTaK1V41IPekW9rmr6R98U20xz26rWLuKFjbSo5YxeFpWXw9q3miKjTtXnFrxvrOC7GBxZDO9861PMkKyqlL5u2t7lrYPPVSw0CRf8z1/Lo0pmxebuUwd2faxstjsgLr+op5KgZfucncXmwfrUgvfdQ0WLjCH+UrGTAvQb15FNrqQ0t/vpH09eBijwMWBIaWNq9ZE3Mj26GXR8/8vvC9oW8GPDNwGmjjcDjt7e3Z2dmDg4M7OztarVYgEDQ2NCYlJfX29kokEo1Gw+Fwuru7U1NTp6amZDKZwWAQCoXd3d3JyclDQ0NisXhvb29nZ6evr+/Zs2eTk5MSiUSr1SoUCh+0vfN78SygDf2ZFmsgtF0OJy1tbmB2YWYXZiWAQGu9l1h0O65wTax1ANhDWm6DTTP7NjQXI7L9kipWeDqdCewZXftWsGcnoS0ktaRhwOiEjyg3DK0BFLRJtMDsBFqD0w6AxuZQmKxau9tEduCBawIc4EDnBFobrrIRNGEqG6ayuaDsjhOFdnjtWm13HxWutuNaG6x6tWcFeguUzQWsdti0ii+3plSPXwzPrx9YPXBBjIPd08k1hC1EYMch7KR7wAdtJ83MP+d2D7HhDoBEwGYDqKIHzBbAgRWDN7yRAAzpQVH79KWw3D9dfPLp7YTgzOamcfaKYF9jglWcbRaMwIHF5rKRNXR+0dJGQ7RjbcPcOFm5w0kS25JQ5x+XeyPkacfgjFJnNrtgjwXqCg89pK9iNY+rFLpHoYOXKq7LkM5fTv3866j3B1ndYh0XQduOAkEbc1U6l1j6JLH0yeBSm1C/IdrfXN95UdCYFl8Q0b/YLDZuqOw8xs7007yQJxn+k+uDYv2WYG95fL05tzYqqypmbKVbtMdRWbZX+S8S88JSCv9/9t77u41jSxf9p94v7751Z707887MvXOOzzkeZ3usbElWliiJIimKQYxizplizjnnnHMACQIkQBIAkWOjc6q3qgsAIVFUsCVbslFrr2ahutGo3l1gf9jh2/dnt7q3dTM7Ryt7RlkAtP0xv0V/9KvyB205OTnLy8tHR0e+wqMoRWBjYyMrK6uysnJ1dVWpVLpcrs3NzZSUFGR4s9vtVqt1eno6LS2tvr5+b2/PaDSazebZ2dmsrKyysjKZTHZwcGC327e2trKzs6urqxUKxdHREQJtKKzN94kBS9uvX3GvA22//uwwxp2H/6kFAFQmIraw7Wxwcs/UOsYAjOFgAikr6jAhvqLrq9sxFR2jekw0kpBobccBGmbU/3Ur/nF2vVyHOyR+XRsOTCRoHNw8fy8hv7rbQUHbAsuhmDb73Yj8e5EF+xaAs8DmpC0YZnI7LbhLErfV7RPC6iYsGG7BcCtGQXHDEe8BLqv7TYI7rG8nNsJpI5wOHHPgmMuNQ8FIF0Y7XJTDybgIYVePnwbapEcjIwhQTrWWoaxPz316jVfUt+vNt/RtrGv+x7z5jIEj3qgBv+zdNx7rO8AD2ngK8BSQEBsrVYjCpHLsBAAynbttZCuzcvhSSPbXN+O/v5+UUtk7srSnPsIYydxFS3UGWE76EkmWOVgFwc/MBpmx/dyjp8E1qeaVwPMMhrtJHlbLHV8/eBCffyXkWUPfjMUFs0/9+eFQ3z/XFRnh/Ld+ewWGJ6XfMtTG4dxLoE1zJEOgTaZfbBqrfPjsdkl77vzu+L5LvnIwWdqeEZ5+t7Q9Y1UzsWWc29RO1/bmR6TdLahPURjXNdiOwjRf0ZUak3O7Y7JiUzOvxVQq01bXeENowrXC+riNw5Ed/dxJS9ueda137QVLWyCmzbcsA52PSgP+oC07Oxvxq2m12sPDQ+S+VKvVDQ0NqampnZ2dCHsdHh5WVVXFxcWNjY05HA6DwaBQKKqqqoqLi0dGRlCqqVKprK+vj4+Pb25uNplM6Ji6urqcnJzh4WGNRqOV2kuITafTBUDbr18evzloe5jaM7mJMcBJchjJuyho4mqZV1yNznkYm9M2sLi1T62o2ZYpXWhO+8WInJrRZbXNrbE49FaXycXq3aC2b+3M7Zjsig4rDgtYkbRI0mBBZr75OPt6SOaOjrG5gd7ktmC4D7R5ARnCbR7QZnPhdhcFBSMcLsLhckPBXG8hDgcmidvmeDtxYTYXZnO7HC7Y3HYnbnOSDpzb0bvjK44tbTR8ZMInKMuDAGj79Yv7kznDLwVtosDwLAmTA6TfRW4ALBzYc4FlLVHUPh6d33Q1LPviw8ywlPr8xok5pdkpwp9PnsbDKrc8K603zsPjwfIiy8OMb5+8DWiDbllIdA3PbWPAxMZhVEbZTw9iGvpmDkw4WtW/ArQBiU0Dpr1uHM6dSfjb38P/Z89my55Ftm/YQKBtXy+b2R6IKQgLS3s4sTWqsGypHNsDS60xeY8Si8NH1trVrg21a6N/oTE2Jzgu99HoaueOYXnHuDgl60l9/iS3Nm5K1iPTzR06FfNb44m5EVFpd6c223YMU0rjotIg1aT3c4/6g7a+WegeDYC2T+a79iebqD9oy8rKWlxc1Gq1Go1GrVYj0La2tpaVlVVbU7u2tmYwGPb29hCuqqurUyqVR0dHSqVyeXk5PT29ra1tbW1Nq9Wq1erFxcWUlJSqqqrNzU2DwaBSqWZnZ9PT05ubm3d3dw0GAwJtPugWsLS9x3X3+4E2AsBaCDRt5TklCSpHVm4/yQx+UvA0qT0lf+LBs/ZzYUXPage3HKSecplwqw3HnTSwsaBtZOvKg6Si+n43B58+6HG1ueu6/7To5uNspYF3kEBvoYwYq3fTJpyB4uZMbs6CIREsmGBy8RYnb3UBSQS7U7C7OEkYu+uNAnGeJG479iZxu+xuCARdELE5HJjLjhEmjDRirJECmwYqtnLU5x6lJZsHK4WQB0Dbe1zlH/upfhFog8y6HE9RFEmzFIBhZOtGqmleFVne93Ni5T9uJH73ID0qv619YktppK1uXz1bAKMmWQ664aWAUAjdpN8JyMz2C0AbQmyCwLkofk5pvhtfdDEouq5jyOKiYVwdBwPmfg1oYwUG1UFdPZz5MeFvnz35n12ypl3rC6Cte7omrjisouf5um5N7djbMcu65+oTi0PbJ6t2LEt7jlWZfraqOzehILS+v2jbMLfvWFGYFoeWWlNKnjYNVch0c1v62X3HWsdIXUxGaGN/EURsppnXgLbggjOXYwOJCB/7d+tPPr/TQJtKpTo6OjIajQMDA5mZmcPDw1qtFkWzdXV1RUVFLS8vm81mnU4nl8vb29vLyspmZmaQa1WpVI6MjKSlpc3MzJhMJmROa29vRyN2u91sNgdA24dbeL8naHMSgoOhrSyrYcH8oaWuezanpDspozMisTUmq7eyWza/57ABYKacOE843DhGQbYCCbQlltT144hqXapFval0P4x6fv1R/rYOmHGwb+a0bqDBgc5P9G6gdwMDBkXvggL7Lq9I42jvG7ZuYPAJLhi8YnILpwnEi27G4obw0YALRxicm5YGa0YBgbbKnhUnByjJzAbDmDkxANo+3KL/6M7sA22emfnc2Z4OJMV4MfYLRuhLqQM4B9QmdnTloH549Ulu05nH2T+E5TzIaclonutdNSjtookCuJTj4vmJw/GAZSThINcaywusKOWZQhvbW1vaBFTDQJAahhMAABfFT64q7sRkX3uSWtkyIFfpAKwyB8Hhr3OPAlZgOBFGxHlB2//TJWvYtW34LG0qg2xota1msGhub3LjaH3jaH1LvzK53dswXDQt71vXTa/rplXOtd75hqqegrGN7j3Hqtq1umWcG13v6Z5snZNPKE1rK/tje7aVvrmWqvb8ld2Rfduy0jQPQZtxVTK2QXsbyh7ds270rtUGF5y7HPPFwEyA8uOj+z4FJuTTwGtAm0ajkcvl09PTAwMDKysrarXaYDBsbGz09/d3dnbK5fKjo6O9vb21tbW+vr6enp7t7W2z2YyscQMDA21tbQqFAqWaqtXq8fHxgYEB9C6Uf+DDbT4zW8A96rsvv6bzG4I2I/W0qO2szz0Ki40KDpq3M7yJ4E2EqLGSKzLN5Pze4rpernId6mirE1hdghVjrBhltuM2N28mQOPAyk/3E4pre92QuRMG9jAMkG0ToVFNl249r+w86F601Y7stkxrfNI8ddA8ddA6edA2udc5Je+e2uqelLePK1rG9hpH9+tHtU3jhpYpY9OEtmH4oHH0sG5U3TlvrOjfaZ7U1E8cNEweNk/rWma1VcOKyqGdmlFF/cRe7YiiblTZPKXuWjxqnzlsnznsnN7vmtrvmlb1THllUhqZ2u+cRqJqm1a3Tu01TaoaJ/bqxnfrxlVX4yq+e5DeMr5jl0AbzwGBFQWOFwSOEz3i5bKCjFZvutnoMf+mowL7fysN+N87/1jAl0AYL/oqzKIEFEhPywMSCQdYRgAUCzlsUR0pXABuEWzrQMe0NeH5wq2nDRceFd6JqUitHGoc35raNuzqMZObo6QqUr6of1izXRDhdwYKrPDu41qD6Iv3eEURFHvNFqXLQFMdCwUAOJmOye17cQXXHkS19o4cWZw2F+7zsUoF4CWOXimh0i9eDb73NQ0dKYE2DgBx9XDuv5P++rfI/9Elr1U6VlVS9ujBkUxl2Ng2Lm6aFzfNy5vm5Q3j0iaUhU3jnMy06BNpBO1akpmWoRhXt42rctO6JKtyExTkOd0xLipMi0rjstK4vGdY9dQ5PZIr9fI9y3bfSvOjvMtXnn41MNMlVURgGZ7kRM53u0+NQ/2tFl7gcwIaEEXxNNB2eHiIaNVO2x5K7cDbfMcjBl3/d/l2+Q/6EFsge/S9r8MPDNok4jH0n1f1MmgTnCTnoEQ7KThwzuZmrThrc7Nak9NsJ91uwNLA5eAcTo/X0mrDHRjrB9q6CRoa2SAVFQB6Pcgtmj5/vfDs3ZJL4SVXnpaeC8nxydlH2eeCsy88zL34MPNycMrl4KRLj1IuPso4F5x9Njj/x+DiH4JLv7yT98Oj4rMhZT8+LP05ruFafOPZsOdnw55fiKo6H1F5Jrzsx8fPz4SXXoiqOBfx/PuQwrOPS84/eX72ccm3D3LPPCo686jo3KOi88EF54MLLj4suOSViw/hyPnggnOPoJwNLfTJubCic2EFPz7KfpBcM7ltQZY2eDVMALS993X+u53Q9xSXOn6lQl+0nEEM52GIkKA5TBympdwAUgQkJzKMRN6BQJiFBvO71tL2uaDEum/vlpwNrnucPpTXuDy4qJcdkjYG0nx4QswAeAkd+iviJCxDMOvk+EsjCLRRLMSRjAgteeNrukshmWfuxnUOTB4ZTBB4HsfGSWY5mAfqufxfANpYAf5Eg6Dt2WcQtO1UK53LKuPavh46SfeMG9tGCYRJUExCbC+CMzRuWNn0isy4LjOubxugyI2bcomGTWHchHVIIfEHFGhjM676EJv6aGvvSOEFbY2huZd/jv5qcBqVsQqANv+VFeh/LBo4DbT5A6wP0Q+Atg+3An5T0BZT3HHuUbonEYGQQBvN2ynOQTA2N43EjhEujCRwhsAZzEW6MNLhhmJzuB0Ya8FBy+Dy1Qfxz2t7SeknPs/hAIg4CZbWLQUV4/G5nWEZ1RE51ZG5dZG5ddE5UCKzayOza6Oz6qOz6mOzGp5mNzzNbY7KbY3Kb4so6Igo6gwv6r6f0RJRMhBR0H8rsf7roMwfQwuC0tof5fQ+yusLyuy8/qzxSlzNtcSGexkd1581f/Ow4Mu7OdfiG4Oz+4LSOkOy+rwCWXxDM6E8zuzyk47QLCgh2VBCczqRPM5pT68e65pVa1wwJomWYsPhY5ANWNo+3Jr/Tc/8DqDtuEQ6BHCi6DWJ8SwQeAR0jtzi2Louvrj7p6jCL4OSrsQ+z6mfbx05WNwhtTbI8SHFeXpMV6I3n8Aft/lf/EtQDGYTSG85Of7yCA8NbBTr4WPrnNj++VHypaD4/qlNK0ZBZ+h7BW2cyCHQtrI/fybxH3+P/B89cgjaEJxC0EqCWesKPZQd3ZpP0Ih3fGNH5xHF0ZZP9o7kPtnVbfpEfbTplS21To4Qm8K4uWtbG1ipDs89dyP688HpDkZyMwcsbf5LK9D/SDQQAG0fyY14j9P4TUFbbEn3uUfp3RMyBwV9o9DS5gFtlA0nbTgEZy437nC5nQ7MKUXvYxjmckO+DKcDt7sYsxu0Dq34gzaWcTpdZoLiaAEYHEBlZNQO6hCjtTivxfkjNxQdxukwAYoLcn5qMaDFwSEJDhlwyIFDHuwLYJ8HRgCUOOjfJH8MKXqQ0d2zQa5awJQGDClB2wpeN2OtHDe0rZBVE+b46uXbSZ0VI4ZlE9hxgy37sWzbwbYDUpYo7UBlg6KWRGUHKjvYdYBduyQOqe8AexZgpQAmEZew0DcKLW0B0PYel/jve6q3B22Icta3hQ5TL60ZL4BDi6uuf/xWdOYXV5/87aeIO8kVz0dWR5XmPQsEagTnl2cglTUQJSM3AmEfCLQxIvw2zSud92OLzt+JGZjc1JncFAft3ydBm9eOCI1t72ppQ+XYoaVNPX8+/vPPw/+ld7t2z+FxXCpMi3LzIuLF9YKzdwNt0HjmxW0+xLar29zTQ1EaNpX6LYVBrjDI5cbNbfOywjHXt1YennvmVhQEbSjnOwDaft8vWuDTX6kBVmpjY2OhoaH+2aMfwrrmf86Ape2Vt+O9DJ4K2qTYF/Hk9t0+FblHJaIBlZGJL+05F5zZPSGzEwBFqjkIRhLKQVBOknERjJug3ARF4FAwqSHQhrlIBNraR9Z/fphYVt9HeS1tokDACDDhuGo1ISXT+cpX+zoEgNV1bDxwASAzs0s6dngb65fh4yrQs8FOqkH3CpvZqPj+QWVQymBu20HrAtuxKjbN01XjWOmgNbtNU9hjTKlXPcyc+fZuTexzWccimFSB/jUog6tgaE2c2iFWDwgYmC0RnDK8p4YjJAGWyKZQLe3jrSCV3pYOEyQuUVSfW0pE8JCXvpvOA0d/TBp4G9AGlwoDrVxSwD5kH2QAcEuVoI6cYG7DWNY+e/7xs3+7ePuvV0NvJZTUj64tqEwWATgBIKRlBtMzfVDIU81K8kWecML+Gt0IkM0a0nu4CQajgIMGfbO7lx48u/IotW14zYaJDHvMFeILaEOL2FfAHloQ373BRw9Hq807VxO++y7iP5pmizf0U3umFaV5acc+v+2YV9jX9uybKodM5ZDt2Td9gkY847atPa+o7Ds+UTuUPlE5tpHsOrZVLii72Paua0eBKRXYjsK9oSAWNxwjjTOZ91K+uRn99cR8r8SLB3ieOmbDfltC7F9zNwLvDWjgzRoQBIFlWZlMFh0dnZmZOTY2dnR09BIlh+V9N7PUTFIzGAwoEcFkMlmt1pGRkeDg4OjoaJ1O9+bZB454lQZ+U9CW8Lz3XHBm1/imDQcuSnRRPEYLLgqytTlJzklyLoLD3BTmptxeQR5SzEW63ZTdQZsw0Dm2gUAbioAWBUYUKAnioIw2+NrL1P7yI4SWwJyV5xbU2oz6zm9uR3925cl/XIj4y4Wn//pj3F/Opf7jSu5XN4v/diXnr5ez/vNS9n9eyv7fP2X/+8XM/3Um5V9+ePaXCxmfXSv4+7Xif7+Q/Z+Xcv95rfgfV4v+cjbzs0t5n13K+/vFvH9ei4A2eQAAIABJREFUSvu3r+7+/OjZwLRMZ4GB2CIvwCI3HAV4Bk4V5elJWzRnCNFOCo/8UQHQ9qo1+0mNvQ1oIygOJ1mGhWgG52GFUAsDtvTOppGliKzqb24+/fvV8HORqU8rWwd2jnYcvIUHGAA0ECVeXUBLTLk8NLBJld4/GGiDIaReyOXiQf/c3sPYgktB8U39i3tHOEJifljN9+2D30f/m/bumA1ALw9LWQlDWP6tLx/8W1zpo97Z+snNrnFZx9BO06CiYUjRMbzThWRI3uET3+DwTtfQ9rEMy/uGdjwyrOgfVHpkQNFzLLvdA5L07XX37fX27XUPqJoH1PV1c5lPy67/FP2PmPx7O/vLgkgBwPMCEQBt/nc50P8YNAAzuFlWoVDk5OQEBQXl5eVNTU0pFIotb5PJZJubmxvvta1JbVVqa2trGxsbq6uri4uLc3Nz6enpd+/eLSkpwTDsY9DPpziHU0Hb+7kYFCLjtbQllvWdf5SFQJvNzdrcNEpBcGCsjx3N4WQkgSkILodPGNxJW22k0SF0jqxeexBbVttNQ6J1KQ1OgElwvjw42EdOJsjH+YJwPMBFoCOZ5x0D/x305OenaXeSCu5nlt9Nr4l+PvIwsy84vTeqaCI4u+9RTn9o7kBo7sCDrJ6gzG60DcrsfJjT87hoMKJ0NKJ45HHBwOOCgfDCwSf5A2E5fWE5feE5PTfinv8YFB+fV7Oq0DEe0EYBjgA8hcob+LYIw3mfbPDBe4zePKBNijISuPdzLwJn+TAaQI4/EdF2nPiItwFtCMSwPLCTQEODiX13XtfMg6yKbx5Enw1PeJRblt81NHtgPmIhVsMAoIBIApYEDAkXlkDAEWick3Cbh7oQzcffKemZ54kZvtMAwm0YDUbXjh4mVV4PTa3vGD8ykwwPLwJWGfYG0vl13g20IYuhP7BjvI0DdPda/e2U82fv/9edyAtPs+5H5NwJKbz2oOine4WX7xb8hORO/iWf+AbvFly5k3/ZI3lX7+b/fLvAI3cKr90u8sitwp9vFV65UQTlZvHVmyWXb5RCuVl89XbxpTslZ+4V//eNjK8uPP3HzYSzNYMlOGtjeVwQKSiofskr6v++k44DBwc08N40gL6wTqdzfHw8Ojo6PDw8OTm5qKgoT2oFUiuUWtH7a+iEvpMXFRUVFBRkZ2dnZmYGBQUlJCRsbW2hib236/wzneiDgzaWk7g8AVAZucSygXMhOa0TCgMJdk2Mykjtm7l9M3dg4Q8svMYKNFags3nFCgz+4gAHFl5tA02Dqz/diymq6sQJGB2D6AsQaJPsWBC9eUpSv4jYAAsEqZT1rhV/VlL73c2wwrbRrqX9BR2zZAAT++KkBsxowZwODO1yo2owqYEyvC8M7wsTOjClB3NmMHrIjx7ysyYwqREnNeLoPjcL38t75IBtmFFfjysMTiqa3tynRehLgmY2jhDhP3SvBdDbgamvHBL4rPOANj8Ait7yZ1qQn961vgDaBB9zh+dCvKDtBWclTBGWkBYixXVxsB7uzpF1YGknobr/SkLxd4+SzkWmJta1NS4sr9sdRyKwSM5TTGRdIkECiobC0UAgIWgTEGhD1B4ouu19gTaW5zlBQFFxbgKmcDppML2mvhWVe/1xRmPPtM7ktjtJkhZpHhD0O4O2kxDN5+aV4CfMgiUIgmFgYVMBcHZg6Fiof5r5KDjm1vXQi1fDz16I+PZM1BffR/z9m4jPvn7yNyiP//r1479+Gwa3nhFp/KvHn/nk6yd//zr8n0i+efL5N08+/zri868j//Hlk7/75OvIz76M8sjXkX/9JvL/fBf5l+8j/nI55ovIwvtVg+Ua5wEDCIZ1M6ybl36VeYxt0MUNKVW88umt6sCMPyENvAYAsSyiMwUWi2VwcDAzMzMuLi4pKSner0W87/ZEauFSCw0NfSS18PDwyMjIzMzM6elp9JMMVrmU2iek6o9hqh8ctME6OSygRHDkAollQ98+yE6omnk+uF/at1vWt1vev/eSVAyovLJfOXiApGLooKh/v3T4ILdDFls6cPNJbkPXrJuGcBCCNm/zQjeP4e3YcOU1YnECwASwZyNyqrvO30vIrZloHjnsm3P3LOJtq1jrJta+hXduk+1bePsW2SYj2mRE6ybuL77BNpm7TeZuXrd3K8iWDQeS1nVHYd/G1eiC0PSKeaWelPL/kHtU5LmXIRuctv/YCXuh197mH1n4MSyawBz8NeCxZp2IHnvByiXtRf+qOAAoAdrGVA5h1wXWTNSA3JDVPf2ouPFKQv750MTovIryntEx+a7ajR2xhA3wTsCTUoKK5GL3XzSoqIFne5xw4CXXkOYAOUR84j/zN/ZZnicFmgCeWu8OCvJRt85ob8aUPohKa+ro1+gt8IEhWRmPP92rCo/10Ucd7EW0Hq45yQDPSPhVQqQQpEHaRRHqR0oXheEMrOhG7CEExWA0jvGYiTDu6uR9Y719Y73dE92dk51tU82t0/VNMzUt0zXN4zVNI5VtI5U94zU9UzUdC/UdSw0di03tC42t8w0tc3Vts1A6Zxs6Z5u65pq75pq7Z6H0zrf0zjd1zzX6BL5cgNI1X989X901V9E1V9UzUzcw27ahWnPRpAApjhleIFiOFCApCSzAiiqxBuDaG1dX4ID3qAFo5+Z4noMWbwSG0H8bQRAoiuI5nmEYp9OpUCjmpDbr12a8bW5uDjkxJyYmRkZGUH96enpCatPT03Nzc/Pz87Ozs953nPrX7/Tw4GmpzczMqNVqq9XKQyJSged4lmV9HZ6DLKSvAaDvUV2f9Kk+IGgTBGg6QvUNKQ7mSLZP7d1Lqr0QUX4xuvpCROWl8OqfImpeksuRtT65ElWH5NLTuh+jGy4ltl5/1ngrtiI8qWJ6RYU8MidBmxfCveKvRPIJrDTomdxMyG58+LTySWLnk7ie8Gd9N+JrrydV30qtvZ1WfysFyo3kuhvJddeT6o/lWeONpKYbyQ3Xkzx7f06svJvReO1ZFZIbz6puPau8EV+U3zgi0zihpQ16jDjAQTObP0A77nsZdDkR2hJecPIGQNsn9d2CCMmLV47j7r2ABibK8LDoBSHx4mooaNOtnzuIqx35KaH4bGzutYzyqLLWjsnl9V2tASPMBElJgWsodg0tD2RX9t/6eSG9lGynI7a3IGc+1jj6SUEAHgciyuAxs6B+aPNaTNXtuMrByUWz2Yx+xx+/B0IV7zSk7NeXcZt06EugjZJMaj5/KMyfhhfOkbybFBwcIKV0WEDxLMlRDtxJiwwHeJwhXBTmpDA7jdkZp40z2zi9nTW6WDPBWijKTOEGHNfbKL2VMvqLgzYhcVImF22GW8LowA1I7G69T9CIizBilMFN63BWT7AWmDpFu0mahUS6kBKZR45RnqdYjoSWNpFnOZrnGQm3+esm0A9o4INoAKEfdGqGYdxuN42Ch6QvFfqSoiwihN4EQSD9GuFtaIwgCEja4HJhGEYQBEVRNE1TFIXG0aDfu1/dpfwaSZLoEyiKQigNleBD8/SFyaK5MQwDn4OBdroGXgfaXjAVeJ8Ep5/qxB7k+4OFbKAbkOGB1sr1Tsmft83k1I1l1QznVI/m1oy9JHm1Ez7Jr5tEklc/GV8+EF8+kFE7WN42MT63iZE8S7FS5YBXgDPf0DE2koxaCLSxAGgs9PiCurZlvrx2vqRqsahmPv15d0ZlR1ZNV05Nb1Z1T1Z1T2ZVd2ZVb0Zlj0cq+jIq+jIr+zMr+zMqezKrejOrutPK2/Pqe9Mr2iTpTK3szKjrrx1cXFSazbjISJYD5AD1VDh40bYGp/ciaPPNHFkN0cuApe3E2vooBrz3RSowILLHrjGIqlDmtRTnJSE4RMqBiUBtERb32ewO5c3Mge9CS36Or4ooaCnpmpzY2tc6SJLz1HT3GJ/gCUSW9+J3VMvAb3s6aPNZ12AxW594LUBvVTmDFyF+QrnYhy6+ZW7/p6jinx9ndY2uOdxSSKmUTOp/M94BtEl1g1mJ5UYAMKCTZVla4Cno7RU9Th0Y6skihyktEpSAs9AVDBvD0wIQvPERHANoBuAcwKQkDUyaNQzzk0TwwET0zhe2CBDCn1bo9vlCTgUBUu+IgBUEBgEyhoVPL5r2TU0Kz4B2T0ZKIGWkiD6YI+7JDIHu0UALaOCDa+CFFX3ihQ+0oQ7a7z8n30MHdXwoyncmBAoR3vIN/uIOAmc0TTMMg6yDCKX5n9B/eoH+Sxr4DUAbBVgKsAzPiQQtuhmwb3Qfmql9I7FvoA6N9EuiMTE+0ZlZJAdWVm0XZDrXjs5pdDImmxPagVmYlSnCkJtT20nQ5nCTjDc5wekGFjvQW4DGCDQm6sjmNjhIo5MxOGiDg9bbSb2NPrJSXmGOrIzexupt7JGV0tvgARqz2+JmdFZMZ8F1Flxro47cooEAdgrgLKzKLaVECECyskF8FgBtLy3AT/mlF5lBWAVE2iusNO4BDDDAUoTOUBIAtZXqmVNE57f894Osrx8Uno+uTayZbl/ULGscdslxD1O9SB4+9H20GNADB3iGh0ZrP6zm678JtElV4H8FaBMku9ehix/bOjoTmvHfD1OquiYdFHATDPon7vtHj+7kG0EbVA4qxSWBNnRN8P+1dMmkSO5jB2v6zR3DAQE4Erj3DDv75n21aW/naEWuW5Sp59Z353Y0q4cW+Zpydk05u7oLRWncURq394wbKuOKXDWl1W8SuAkAhqbcNElQFDQYyKW2rdiS72zRJOEdJ2ia9Il0JDreM86wlEcYhmUAQ0vCogoWPA9YVqB4QHOAYIB7X7+9r9/mgJsHdMDS9il/uT+xuQuCgGjSkLeRIAhUtf3g4ECpVKrV6r29PaVSqdVqDw4ONjY29vzarl+zWq0ulwt5VOFPI4YxmUwqlUqpVOp0OkIis/LmBb3uL+KHQ1uGYaRfOxCl+TeE0iiKcjgce3t7BoOBJMmAe/SNK+91oO2Nb379AdJDhpXC8CnAwsAYn4sQWryEYwIzzo/M7JV9RoDPPFgzQCqSLcE0TiL78EX3n4rb/HdImEkKAJIo03jB+zQTYHic7/nneyLCDneKnHiCorcjAjZGujoB2ioFRPOBpvGuoA3Z26Snmycr0AsUoCEn0D4ODUAqWQBEiobM0IIg0BSPbhlOAgsN9CyYUjhKulbuJFZ/9yD9p6dFQelVdSOrc0rjEQkzDJxSTigORAZIq4qTmDtYyV6DchZQSo03RN/f5+gPkjx9j1H82LrmM7NJ7lFfdPypdiBfZAzDwh8ddgGUDayfC886/yC2vn/KRMBaa75iqS/5MvzN8/53x3/dHq9n2JMKbkmXBn/QA3pMMXAn5Vr3fJsTmJa1Y1n1MbVDpTWDRek14Y+zL95O/Cq27Ofs1ke57WGhOWevxH52N+O7exnncrszSoYKQwpuPMq7HJ53Jb7oXudkrYnWUsBNA1yLH5S2libkxycWJgY9vVffW+sgzACwNO/CSAsHXdYUI2AOt4mTmO8A4FnRDeDPLoLmXQDwLsLIwjxd+F8LAEDxPACizW3EeYICFAN5V1iVQVZYlVxY/WzfsMFBZ7inbJe/HgL9gAY+hAbcbvfIyEhubu7GxgYAQC6XV1RUDEotLy8vIiIiISEhOzu7rq6uuro6NTU1NDQ0Li6usLCwr69vYGAgPj4+JSUlNTW1uLh4Y2MD+UNFUVSr1W1tbcnJySj3c3h4WBRF5Hv1haP5W+ZQH0E0SD8peWn9D0BAzTdC0/TMzExhYWFWVlZRUZFMJmNZ9kPo5490zg8I2kQRPoFEQSKTgumTFCRU8ybGQ8eglCb5+q0P6zASXKMBpGFjgKeSup/dyh+bvUX/BOTyTsMzKy+C8z44Oa91Dj0+Pbz1COjB9E9f4ioCfP55oAHQ9kf6wrzqWqC5BWfcTgrDGArZcVF9dxsFhjf0SdUDFx/n/7/fBX95MzE8u7VxclthZ0wEj7EiKeWQkpDCg8eh6ZiFRjuOlX7Q+JW1QsvPQ8DmCfw/LfzfixV+OWhD3E6QTwdImQcTisvRJddiitonliwSuQfrB9peUoj30yFe8W+vBm2wOMIxaONEjgLufnnr1YTvasYLdYJ8er81pTY4ry1hSNbUJ6uKqbh2MfI/iocje3eK+hTFlVPx15L+fj/v++KxhI7t1uKxovPxXyQ0BVVPJd9N+iGuOExuWTODIxswzR1O3Uu6FVUYUTlYnlgRm1KVoDAtH2Hy+e3BidWujYMpBlg2Dqb6ZxpnZf0Ds00Ds01y3TwO9IcO2dzWgB7f3tSMdYxV9Ex0qo0HFsKxvrc+udbfM92yuLOMAZIA1JZuvbA+/efQ72Kzb6tMSwHQ5n/3A/0PrQGGYerq6iIiImQyGQBgcXExJydndHRUqVT29vbGxMRERkb29/cvLy8vLi52dnaGhoYmJSWh3ILamtqUlJSmpqaOjo6UlJSGhgZkUQMAbGxsJCUl5ebm9vb2FhcXd3V1YRhmtVpXV1fHx8dVKpXZbD44OJifn5+ZmZmbm1taWnI6neiNs7OzNE3v7e2Njo6urq5qNBqj0ahUKmdmZubn57VaLQDAZDI1NzeXlJS0trbGxcV1dnZSFPWhdfWpn/+DgjaRB7wUs8Vw4klBVqc3ACx0EEqakwgOPCY3j+ENRpHAoJLXNwSbXtx6DGAvDnrPxPtRpnkzT0/mosKRF3AnhG5eCg8fkvOgwJcyRY9Nbq+NaUPnP7ZMQIPEcZmKT33xfczzP6lnBEdeOWdOCtUnJIOZVQAGEsj1YuuQMjqj/Xxo7t9+irgemZdR2TWxtosxsGQny0FUBg29EjBjJBsbA4dhnXiI2wQpyh2GWkkihWb5G9h8/Q9haYOWJIoSBOHIRtSPqS5Hld95Wtg4uIDBqvbQ1QstbS9iMp9a3hm0wW+RgFa4AOlLHJ3rFT9G/Ht44c81E9n53dH3Us/UjRUf0nI70BT2pFx88tWWc9YFtGawd8iuJ1WG5bTFK8h1K7A/H35+JfbryrGkNWN3TMGtxNxwmXbFDPR6cDirnQzLe3gv9VZxf27ZcH7fdtMOMdGxXPAg5fuHqT8kVd4Z3CzLbg4JSvrmTuJXjzJ+fJDyfXZzyPBWRcVgfHZzSMNUYlLNubvJ//kw9Wxu47Ouuebk8qc3on94kHR5ZH3cAWg3IBfUswVNaT8//jo67/qudR7mT/inzfr6Pk0FOgENvD8NOByO9vb20NDQ2pra/v7+wsLC+Pj4+fl5AIDVaq2oqMjNzbVarcj5aDAYoqKimpubeY53Op0NDQ1JSUkDAwMzMzPR0dGVlZUYhiGT2Pb2dmpqakFBQXNzc1dX1/LystForK2pjYqKiomJyc3NnZ2d7ejoiIuLS05ORgaziYkJh8NRVVVVUVGxsrKSnJwcHR1dUlLS19eHbIFhYWFZWVkrKysAAAzD1Gr11tbWxsZGdnZ2e3t7gHT3jYviA4I29O/bP9D+FX0/W9kxjjkx6ANtqKSBrywVDXkQfhlok2xjktkOuVn97WEvuEdP2ORe2OuHFtEZXgna0FGvvsAAaHvjIv3ND/BHbMgN7Y9FUFVQn6GLkxz3ZlHUA7DjpKeUhpLO2aCEyu9vppy5l/k4o6m6b3l6S2OjIDIRRZEjJTYzqa6o5yTHDk1PNoMUWiBRYqBIeqlg5ytBwHsBbcioxku0gjCxSwQ4zWG0MDIvvxSWcyEkt2dyU2N2cwA4GQ6DZX7fDNpeumkvqBTFtHm2HsQGA2gAgwNb62LZt8H/djbss8jiW7eTf7ga9WXrTPUhvYsBS1ZD4rWI89vmVQA4Kzgy84dplc8KW3I09KEdOGuHqy+E/VdoxoWsmpDw5CsVTfkmQu8ENgPQqSll3VTV4/yHN5IvnXnyZelo6oSmNrX1zvWUz1KbboUV/pDT+SC99c7t1M8LesMHdkrTW+6FFfxYOhQZU3m5ZDAqq/PuxZj/K6rii7iqKzcTv8tqjYssvB9ecL1rtU5u3bMD2gkIDa2VW1ey6mOyGp4oLQscoF95v15SS+BlQAPvRQM0TXd1dV2/fh2Vq0pNTU1JSVlaWqJp2uFwlJSUZGVl2e12BMWMRmN8fHx1dTXP8TRNl5WV3b9/PykpKTs7OyoqamxsDMMwmBVE04jdLTs7Ozw8PD4+vrOz02AwIEdqZWVlVlZWRUVFdXV1dnb28PCwXC6vrq6ur6+fmJjIyckZHh4eHx8PCQkpLi4uLS0tLCysqKiIi4traGiQy+VutxtNBgCgUqkqKirS0tLGx8cZhnkvCvkDn+SDg7bTfpG/k05feGSiJxxiFvi1USNvju+B8/T9SvZ1Tp/9Cw8nySp2+rGBPb+/Bl4CPfBei8iWeYzWIY5BKSWSxxD6KnlAUzBynuQADoCWBOtGorhrMqak5fuguH9cfnzjaVFO09S0wrauMiEqMl8cGFohx4vqBR34FqQ06ltv/p0Xjn/ji7fKEoVoUkqcYDiepFknyVlp0DWzdTE4/kZIfO/4IkZDGxsKUUAp2P56O20SJ1MnUO7qCxQfCLpJubKUQNpZY89i8/Wn54o60+Y1Qy0zZYmljxtGy02ihgLO4pasoNgbaucOAKzOrT6w72VXZOZUZh06Du2cs7a7+m7UxcdJl6u70saWWvePdlyMkwCEnbPv2RTjWwOjiu7R/Y7Y6ocXnv4juzcstT3ofMy/5/eFxVRfyWi/H1F2MaTg4rJl9AjsjKga7qR//zDnXETp9e6N+vq5ggsx/5rUfDWnJ+Rx0U+5HTHxFSG1EwVGoLUDXAJtlB04jby2qC3z2fNwHa6ERlP/u+brn6aswHhAA79CAwzD9PX1hYeH9/f3a7XaiYmJ9PT02dlZlmWtViuqf6DVahGF297eXlJSUnNzsyiKFoulsbExJiYmKyuro6NDLpdbLJB8ETWr1bq2tra8vDwxMZGcnBwTEzM2NpaWlpaamtrb21taWtre3t7Y2FheXn50dETT9OjoaHp6OoqWU6lUXV1dwcHB1dXVVVVVlVJLT0+fm5tD2RIMwxAEYbFYWltbCwoKent7dTodqm7sM4b8CpX8Yd/6wUHbh9YcwnMf+lN+2fk9j+df9ubAu34TDfiDD9SHcVbQlOQlHBMQYhMZGHkmQJJbab8AIL3EroUd3NCWdM/cjs3+4XbE7adZIamlBc3Dk3KDgQNWif7hl1+H70nv67zzud4KtMFrBcBFMIREfminQfv4yu3Y3OuR6ePzq3anx1fiy9ThJMeuT0OnTeq1oA0Wn/fRmiBTHwcdxPTQQt+5e9/XDpbZgH7pcDouP7yqp0SLqwngyqlKux56Zd+mpADu5G06hybreWZuaY7ecYSxrubeuvsRV/qn64zubUw4koq4wjIoOE+sKJZSSuNKe7LGdtuSGx5fePp56XBiTnfUzeRvM9oeJzUE10xnpDSF3Eu/tKCfsQHjhmMuvjrkfMQX4YVB67bl7vXW26k/xtfeTW8Ni3x+p3IkJ640tLQn74jT2QHukCxtDuDUkIeZVcnR2aH7tp0AaDttVQTGP4QGKIqqramNjo6Wy+UAgKWlpbS0tJGREQCA2WzOzc1NTk42m80ItGm12piYmMbGRsTl0dPTk5ubOzY2hjKQEFxDleanp6fLyspaW1unpqaysrLS09Pn5+czMzNR6FtxcXFvb29ZWVlBQcHh4aEoigqFIj4+/vbt262trRaLZXp6OiQkJCcnp6SkpL6+vq2tLScnZ35+HvHowpwtmh4YGIiNjY2Li2ttbVWr1YinLQDaXrNIPiBoe82nBnYFNPCRaMCHPHwdCNr8gslEWBQNlmYnIXUNTB0kGaB10JtGd/nQUlrjxP3MphtPi0ISc7NLayaXt/b0dpObg/WefAFpXvj3e1zyW4E2QRAYjicY3sUBIwl6ZjaDnqbfi07rGJlDpGQsLGvqTc6R0m986vKlkZ68urcBbQi6IZXzkB2FW1euJOXFt481O4FtQ7tRVF/QPdlp5+wYwGraq2IzYg5tBwLgKUCqDaqKhrLKxop9o5oCxMhsX3zGk+nVfrdopICNBgTGuhl416itg82Cuqyw1LuJz0MjC+4Wd6csGoa71+oTKp6k1sVktTzrWKp73p8XX/Z01bBqAbZ9WtW51Bpd9KRysPxIOFrRr6TUxKfWxaXVx2c1JI3IBip6nrdNtuppkwOQLkBigHABzEwbmwbrShtyjS4NB3ifil4wuZ1UU2AkoIFfrQGWZTs6OvLy8tbW1iiKkslk5eXlKCnBaDS2trZWV1e73W4E2qxWa2FhYU9Pj9VqxTBsYGCgqqoKBZkhQ5ePPk2lUjU1NeXk5BQWFhYUFAwPD1ssloqKioKCAmQ/m5+fb25ubm1t1Wg0oii6XK6mpqbU1NTNzU2GYXQ6XXV1dVFRUW1NbU9Pz/j4eHt7+9bWlq/4gclkKi8vj4+Pj46OTk1NHR0d9ScSeikz/Vcr6Q9yggBo+4PcyMBl/DIN+J6sqMN5bVooA0CUcARiWcOBiANgI4SFbV1B82BQetm3wQkXonKfFvfU9C5vq4w2F04wPAm5YCG+YVENdS9iew24+WUzf7t3nQra0G9Z30lIiTPWSEKv6E/BsbcjkjtHZhyS5U26lg8B2iA1rh9BrkDxNMkTRqdxXbm2odrEeExjO1IZ9vdNhzbCjrFunfVoc3fTybkoQJtws5vH5AfbO4dyXHC7eee+cW9LvXZkP2AATgOCAgQp4hjrRnsPbXtLismhpdalvRG5ednMH6oxxfzezOL+3NzutNq1u2OR79r39LTJxNmNnOWIMq5rZXra5ARuDBByk3JGMTu9M7Oh29K6dQqT6sCps0AoSUqCYwBnALV3pFiSzREc5gNtnJf/F8bCeqneUTx4gJLKt/wCnV+pAYZhNBqNSqVyOBzIWKXRaFA+gSAIBoPBYrGgcDFBEFD4v8FgYBgGlTrQaDQulwthNd9WFEWKog4ODmQyGaLt6/AJAAAgAElEQVR2c7lcAACNRrO9vS2Xyw8ODqxW68HBwdHREcMwGIYxDGO1Wg8PD9FHI9KQjY0NhUKh1WrNZrNCoTAajTzHOxwOlmVJkvQlIqysrBwcHAQsbW9cCaeCtpOxWQFn3xu1GTjgk9PAS6AN1gCAcV08QwvQGyhCCi8AgEMAciPePr31NL/9fGj2Xy6FXInLS2no71nc2bcwJA0hGs+J/kkqKDzuo1UIcn8gUnIBQC5oBwM6JlYvPYy5F5PZO73uJDma5XwuUZjo6sdleJr16KR1zX8EFRiQTJDICcOzAkXQblqkGMDRIoNSjhhRoAEUDvAQ/UinoEUGdSDWgUTGDCmSFKAoCZ/hglvqUJTIeATuotw8Roo4BWvZu2ngoKEFzkYDBy46rJTZBcnYYDwfBRiX6KYAg/iwCegHF2kAcMBLZcTgSwImtyLhCcAQgMJFEp0czYEWKVpkaJFhBVTf3uPk4QSB5Xkk6LLR9jQdfrRrJjCxj1YDyHb166fn80u+pvPSp7zmyNN2odqjp+31H3/pswIvRVEMgLbAMvhTa+Al0OZ7pjIegn5waCHmtrTNoytPMiu+uBHxTVDy3bSGnPbZjoVdtYu30oARAE3xPEpHPs5ekNjUPm7V+hcotDGgZWThXnTa7YjknqlVrQ0SyUIWNT+g5t8/DXD4Q7STfVQYiudRKSqRFQiMtEh5HQwPOAmxHac7oMRwVmBolqJZipfqjToJl4tykiLJAV5i7vaANi9iEykB1punRBFCNy+ko0WCFQhecAs8EljinWBxUiRZyLcikIDBRRIXSbfoxnjcwZC4ILp5AeNYG+XCRRpZWxG/t+/ktChhQVjqhWAFiuU9ywDCd0/jeB5iOIankbA85DRGiJnn/JKcPu6lEpjdn0QD3nX7sfz9k6j9nS7zVND2TmcJHBzQwEeiAQTC3n4yPtDmSz+gBfgktzh5ucrWO7ZaVNP1JLXoyuP4n8Ljw7LLmmdkSxoXrDoleT8FAEgeuFme5CFc8OVXMn5eUd9HvOvc3v4qftmRvsoHZifRPrl+MybnXnRa9+isk+QQeIUkca8HbccfjPywvqKrJzNw4QGooCdBu60Ok9VpIBgHA9wA0FbM4GIwyboGq57QsGA84tBmBIGhGZxhIYh0uG0uykkBgoORajQBiBeFISTLKCEA2AE8AShCssPRIgWLlnJSST1G2vKwQigNGAeL6e0GtUFldOo19kMnb8GBiwYiJsIjBAB0jgMLaYI0Q6J3btCcBuEaK7okcUNEyMNKfQIL5y2wEtEjrLD3MmhzYC5eKuPlJojTgO+xUgO9gAZ+Ww18LGDNO4/f9uo/jU8LgLZP4z4FZvk2GkBctYhcwxdD5nP0e87gjVpDj0zfW9AT2s4BlYVc37fWdkzHppTfCU168DQ9oaAyt76ta2Fl3WDR0TwuVcfACZEiBZYVUdICLUIDz8cP2lBJK1QWEyEzk51sG5y98DDuemRq5+g8zkIHMapUgNOcp+LcCejmARwenXoQm1QE5Zj82d/Shsg+eB6W6XRT1uW1meW1GRdtdtJH2weL1a3FY/ODNKBQYU8SMCTsQ2DEAPeuRran3aKBa217vrGrRmVUcIByiw4CuLziIIADAjhRhIjNU/WOkyCdmwAuqZiVW7K0EQIPRao8BihA6nFt92RnWVNxQXVOUX1ex0TDrlVGAwIHpIWx6d1H3VNNM1sjkj8UGuRICARdBLBRwOIVGwUdr9DJC92jAg/do4DipMlLblk3JTqRVLdUrCvXaBHaGuES9a3Gt1nfgWMCGvjAGvCCpY/l7we+3E/y9AHQ9knetsCkT2rAH35BK4r0UJQQm+SzhNSx0BuFCpOLgqcsAeaGhadgYjwLduygb9MeXTV1Jaby0v3kiGeFueVt3eOLa/vaA6cLA7AspRTtJEiszp5qHBw0H8Eysz7yZP+5fVTWNR7wJE8gFXCCQIvAQoLmke0LD5LvRiaNLizjgkjyvLcIiKccg6cog2Q7hCDjRPPB4ld2fHUGBYFjeBJj7ErNcnl99uhMHwmcWrssrzr28v0vn+WH7ugXGGADgNITu9Nbg/O74wrr6qZxoagtM78xdV032zJeFZl+f0U9sWddM1C7GNDLdHO7llULr5LpZqa3BldVqzqXmZbKNhCAcor2ffv2inpqWTWpMq9b6H0ttru6P7t6sLChkxOAdQD71M5wVM6jiOyH5T2FcUUR1yLON09UKBxLa0fTC+rp8a2h3MaE+tFCtXtzWTuxsD86utWxqpvYtsxPKbs3jJOHzJYB7E7tDqwdzc7sju46ZSqXbMuwsKoZ2zLOLKmGFKZFh7CvdazK9ZNb2vHMsuiUwhijUweJ8XwqfZVWT6g5MBDQQEADAQ2cHtMW0E1AA5+WBnygDdVY56TyA9DYA4twslBgmgDEbRzKCeWBgwK4AAwEWNl3Vg+v3U1r+PxB5r9eS/4prqa0dXpqeU9nZ+00dOAREj0bA6PjORpwjCT+FT78q3i8aGGCBQY+Ek3ykLJEpASSgSkWwEaCxsGlm9Elt6MLRhdWTU47KbDMyyXcPNDt2Cx04mJeidV8gz7QxgkCyVEYY+2fqCuuTlxTzguAWFUNJxfffxD7Y3jKT+NrjQzQHrgW85viHiT+9CT7dkp1RPlQ7u1nly6Eftk6W57fkhiUeKlt8nl+fezwSuOWaaJ+OLdz+vnIakNmVVho8tXY7PCBhQEz4yAAZwd2uWUjvznlbvylBwlXSjszljSjjZNld5OuBCXfzG4p3LLumoBuWtUfmnOjsCdlan8wty31i2t/Ta152jpXci/pfGT+g4L2lMjCmyV9cWPKxvC8K3eTfghKORNReDMo7fztpB/jKx9MHXRNHXSl1j+JKbsfVRxUN1XUuVKZXB2aUB4cWxoUnX+7sjdVph/pGC/Mqg5b1/bV9qffCD8zvT5Bw9opfsa2E1oNDAQ0ENBAQAMnNfA6S9sr6hB8LE+fkxcSGAloAMIjf8sWjC2CWI2GJGsCDslxRZqHpT1hYwDQEqBzQZdcO/VDSPb/vvzkVkpFaHFL2fj69IFTjwOcgyFNyFHISMYbBmYUwlirdwJtH9ONgYF4DOBcPDhwUK0jK/eish7G5vVPbeI8IAXWzcISVV5LGyq3+3rQBh2jPnz2yg4CbVJOgwTaOFtpfVp+VfyhWYGLlt7ZiqKmyPqhtIjMn/IbIgzMyuh67c/h/5XfGls7lpNW96R8IO1J3o078T8uHPaW9aZcjfiqY6YkpfxRXmN0/XDms+f3qwdS85qePC34Oa/pSUJRSGZNity8jQGXnj3sXWm+EXs2oTw4rSEivOBm+XDms5rQ8xFfZLcnjyvGzcBqAZopVUdI1uXbCT+k1IQ/TL12KexseV9BWX/qxfDPclpiWucLnhSeyWq92zSbcT7sP54UXCobiDsf9n9in9/Mag678+zb1vmC8d2mvPbo1LqQ67HfZjdHNk4V3k04E5x6qXows6gj4Wn+7Z65sty6yNSyUB29LtOPXbz/1cBMlwBzYwOg7WP6cgTmEtDAp6CBAGj7FO5SYI7vogEBkn/50jhZCN0EWIidB9CMRAFgprg9G9E6tfw4p/KbBylfBKXcTCrPbZ8c2Dzcc0MSCLcE0SDTq79ILlcpas2D297S0vYuc//gx3KCIAKI2DqnNy89jLsXnTEwtSqlU/AMjLCCIFWK0kOITUS+0dPhBdKzfxzby30E2pD7mOQoN2+v6cgrb0o7NCu0NmViftD1sH/E5l+/Fv7Phwk/bh4Ntk0V3I39flk3gAH1sm5AZhnPbozKrH1iBfKi1rhzD/62sN8zutmQUBwUkXX1af7N7oXnz57fuxjy/2XUBkfl3X32PGpBPY0DxwEhL+/PCUq+NKpsXdAPpNSFJ9WGPX0edC/lwqpp2g6sboBbwP7q0eCTnJ+Dnv1Y0JqQURPXs9CpsMlKu1IeZ11Z1PTJHSNPS86k1V/pXMq6n/xd23yO3DF0N/Hb2tHUCWV9XOnN6qHUke3a3OYnsSW3HiWfT6t61DZVFJJyuXGkWMdsL2kHc+ojk8qCk4ofdkxXW8G+nto8c/ufXWMtGEucrtUPvgwCHxDQQEADn6gGXgfaPtFLCkz7z6wBIPAiz6Fqx9CqhEjXAHDyQM+CfVwYk2tyWgYuR6V++zD289uPg7MLKwdHV470GgzHRBjRxcITIIHGEMgVJvgJrPgkIp+r/xYF2ntqax5DRsjv8Ls3xHIOAMBJ2klyBya8cXDh3tPsmNzqoYVNFwUtjz6CNA5e3bGxzWe8fMk96jWqeeMFfcdJ9Xa9e6U4Qun6EWijeJoSnY1dhQUVcUbXwehc3/WQ70ISzgcnng9Junju7l8bh/PaJopvPPl2dKNl5XC4ZbRoaLm+oCEuqfiRFl/Pro6+Fvatwjyzejj8MP7STyH/VT+cO6/qffb8/rXIzyr7EnLrY6t6CnatMgZgemavojcvLP1W31pj31pjSOaNjNroZ2VhoenXd2yrbkiZ63YCw/hWW3xBUFZVhNKyoCd2LYyJBFhNT05ExnUduaGjlhJKLpX3hHbP5d55+vW4rHbLOBiTe71uIH1W2Rqbd7OqJ7W2Pz2h8F5xS1xc/r2MiseNw3mhSdf6ZtvsQG/g5Dn1kRcefnY35tzK/qwLmHeMsxfufdk50ipKtVx91Lu/+yIJTCCggYAGPgkNBEDbJ3GbApN8Ww3wkrlI8n/CLEIaAEwEWjfYsnIDG9q02r4rkelngmN/jkh9Wljft7KtZRmbRKNKAYEUSYYnBQ5xQzCQMFfiboAQxhcrIHySoI1hYLoFJwI9Bmp7Zu9GZj5KyOubXTMTNC8Z16DDV4QZFZAdzS+szQfGfiVoQ1kaMLkSuFp6S4qrk1bk8w2d1YnZocNLjTpCtqGZis0JLqh/1jNTF58XFpP5MKkg/Fn+4+7J2uqOvKjUoKmNnufNGfejLu87NvYdGznVidE5j0bW2nWUvHehJiT1XFrVw4SikJq+sl3LDgkwu6CflQ/H5T5OLopOLoqOy308ttxV0Zb3LO+JQr9OwUJYPA7sG/szhdUJjb2FepeCBi43j7l5Z/tQeVrRE41Npse28mvCqjvjeqdKnqbfGl2s3zocy3oe3jpQNL3enlcZ0zpQ1DFSnpjzKK3oSXTq3cyymJahsozS+IWtOQK4nOCgaST3YcLZuIJguXHLDdwz230//Pw3mCorMohOBSH8t13fgeMCGgho4M+tgQBo+3Pf/z/Q1aNEBBYAUgJqdh44ADjAwdi2ubx/9XFO89XI/KthmTFZ1WVNfXKV3mYnGAFQAB5m4WgThWGQ+ouiIVkDBXgGRoqzEr0HK3lGpa2UPulhuDhpafNzy3r8sx+DglGlGlgZkBKbR7bvxpYHx+X3ji+aHBjF07RIQWLb3wS0SbGA7umVrpqWnOGpnrHZoZHZHj2mxoDVzOjGVod6pjo2D1en1kY6Bps7h1qmV0bN7qPVnYXqlrIF2fTM6nhDZ7WNMVkY08LO7MB8j8qqEAG375I3jhQ2jhQ2DVXNbk27RLeTcwmAteD6Bdl092Bb92DbysasizBvK1fHpvotdiN0EgOAM4TBppleGtpULuCsAxaW5QmMdm7uzo3NdR8a1GbX0eRiz+LmkOJwYXi6TalZJgTjyEz7yvak4mBldnVofWdGfbTVPdTU3lfX2Fk5NNk9vzE1OjdkdJhJQBkIedtYQUz2jdrefBtrt7H22t7ChzGXlVoZwZIB0PYxfDsCcwho4NPSQAC0fVr36083Wy8M8hB2iII31UAiuPJkCkh9zpMrAGwcUNnYdS3eMafMbBi58+z5+bDMe/GlScUdfdM7+wbK7vKSx9KMxU1YGMYpcji0uzA4oEhAMYASJW5XqYaohNg4Cb1xqM7BJwDaOElRaLlASjAAzE6if3r94sOUR0lVowtKNwMImiJZHJWQ8pnZkKXNZ1h8v5Y2TuQYQGgt2219lcNTPRjtxBi7FI7PukWXg3XisIInIwDOjltcuJ0TYR8AUWvSYjRGsLiDsFtxm42wk4CxEBZSul+YYDfguyZK7eCsGI+7GBxjCQay5sH3sgLDQ6JcgHzebpeDpVi4cgBwExTJkC7cSrIYw8MkFYanSRZnBIzmYZlFhoO+Y4y08IDESAsjYG7KaseMNO9iBIwHpJuyuyk7TjtduBUjHLAqF4u7KAyenMNl6rnShpTciti5zWEW8CrDfkphTE17AcY5KJ4OgLY/3b+zwAUHNPCrNRAAbb9ahYETfBgNeOEayiTgAQ/ZOqA5DYkAy1LCh7JUPJKUkj3tLDgiweSWLqdhICy1/Fpk5s8R6aGZ1c3j68sKjcbgIGiIAhAQQbNG/CA+ngtfWqhE4SHAY3z0p6gDhz6KSLXXaJ0TAMWJBAPj81A1KgMuVHZPfnn10eOE3LnVPVoAJOvRAyy3KqEbSZ0w/4D3JokfQzfvoH+w2in9Y6LdkzOUbJOsm7Lv7G3s7MncpJODfHnQD31S/MME/Y2afn3kteal99K8lGvitxdyvZx6s47vJrqh/vfUdwnoCnwvX9dBnC+sAItWsTxkJ8YZYk+j7OhvGZsdMth0HOCNNlPnUMehSUUJODTkwvegmhOQ5++lmaOXJ3UYGAloIKCBP7MGAqDtz3z3P+prl0CbRNgBOTsgyxoCbZB9Q4DPZ8lWAjEczkCS2C091TW3E1/c8DAp/1Z0ZnRuTXn3dMvExuyeVYMBNwMLPkoQT4rh8otS84cmPoJc1EG7XlTT6TjgxeN+x1e8CAiGt2MEycJL1tnJwobe88EJ9xPy+8fm3TiEujTjza6QeFK8WaLHiA3N36ccmAR6Isng5Ig/0jqpAR7wnMjRLIURLoxwkCzuhSavw0MvzcSHKT14+oWPOXmeF3b/Bi+QxlieZziW4Vib0+HAXGjl2V1OjUFLCjQDGD/QJnCCh07wJG77DSYc+IiABgIa+IQ0EABtn9DN+nNNVQJtXoo1SLRGQ9wmekgoMJLnJW6OfQZ0yTRZXfPXkqt/DMu6Hp3xNLeicXhxfteswYGeBnYpys2D1yTU5gMib9n5FPUO02ZZwcEAtZWq6hq/Fhr/KCFnel1pxRheohdm2N8NtEkcv9ACyImM1xh2Emz5j5xyB16wlqFj/N+F+qe898MP+34koOxdhmGgP5qjJGuuD7RBxBYAbR/+bgQ+IaCBP4gGAqDtD3Ij/4CXwXMSUJN4cQXIiyuK0CPKSCAMB+CIBd0ydXhV2+dhCf/3+fv/DEpMrB7qX1RsHtpMFHAIAJeOJKVYN6m8u+RKhWyw7yafom6RTREitp6p8/ejE/KrN1VHqGAXLwCGhV5JD5WJl5EYeo29btBXXvJJu9rJkTda2nj4sQLD0zBRF3AvHn8Scr0WeH3EoA067UURpYDwHM9IjWVZKaqP87O0BUDbK9daYDCggYAGXq2BU0HbyX/HaOTVpwmMBjTwnjQgCAIrNZ5nBI7iOZzlcZojSI4iJdOaXQBTCs3zobUbadVfPk79lyv3z8SmZ7YPLh1aTRRwCQAXYdUpuBUAKUri5cSSTBrvhtiOnXHv6QI/3GkQrwek9hBghVUzzlf3TJy7FxUUmzW9uU/ygGFFWMLLKy+BtlfWFX1Lr6jv38XbgTAIxRB6e7vj/XSGgJr/1m+n92wvDP0uLxBogyGRUuM5nud4QRAgIbNUWE3yhKKlCFVxmvwukw98aEADAQ18tBoIgLaP9tb8eSeGYRhFUYhJnwXQyOaGxBzivpscV+xnNnX+GBb/H1cjPr+fcj25vHp6c9WE6QiBkfI7aRGQPMBZKBQPExGlGgZSrD0M+kauqHfDbZ/KnQAAsCyLvHImQqzsHLsdkRyWnD+9ua+zkzQPMJyAke+vAm2vig+D1+1DY2/Z8cKm02xmx+MIprzd8X53wB+unWpp8zv+I+vCqL5jiBYAbR/Z7QlMJ6CBj14Dp4K2j37mv9EET3Olnfbx/s+20475cOMo4xKd//Wurg83h5OPYe+sXuvq8k5IEATkS4JOJRE4AVBT9MKRYVB5EF3R9M3juH+9Gvx1aGLM89bRtcNdPelGlUSl+ksUJ5KsQLICxYkU50km9CboSbNAZo8/qHsUxU6xLKs12at6pq5FZj5JLZpc3nJRvBOnKE4qdeBJV4TWuNPoPLy3Av71X88n+/5HevvHsOzkSvilI95zv/T30wRtpxnVXjn+0hUHXgY0ENDAn1wDAdD2hgXwa0DbyYfcBxxBT2BPASV4UR8baEPQDUg0Gn5K90NyXkYPaDECwEGBIxc3tq2qGJ4KzXv+Y1jst4/ibmeU5Q+tTBxieg6S6HKixPoBC7mLDMORNEuzHM1yDMczrCjRSIj+bFgeX9UfCLTBUqGih6KDk7IttCZ7x8jc2aCoRymF48tyXKL2oFnOA9ok5ynSSQC0+a3D36j7SmT2msHfaFqBjwloIKCBT0QDAdD2iht1GlDzjh8HoCDLgReOQBJ8ny3h/2/vPNyiyLKH/Y99+5sxh9ExjGmc2d0JuzOzYyCJSAYBBSOiokTJqclRkIwIohIEIyKSc+pY+XzPrdtdVEN3iwkJp5/ztLerqiu8VUy/c8O56oWkrP6FVJd5nmTetxGqKhFLPgaSlkxYHHLiMk4AVjAnMZPF6CtLG3ASmQRKFWTidpmDkjkCJJA4QTAJAiuJJBOHkYcpAwzqoPmtPrnq+aWUSp/wJN/weM+LUeFJRRWP33QMGEc5Uv2mkwcZMLKC0A5DHJk21JxnQc62IAi8uUcRdTXl3cYtX52LLJO7AycQNwWAYa2QUnr/D69Q/yu3KhofThqMyryijCgpLcUkMZusyPNZ6FQEHP+vhWpDm8X5PwHlb2HJBZs7XFMLHfiZzVVr6uLxYpAAEvhkAihtNhBa5MxezydF2khVjqSyE1pW3omyqOYOt/VbOD85uTJLuaogSoIlLPNBErWxCrkBi5cTpLLykXl5NKDF22xc3hdfJP9sz2NhJGDI9J6EBkf689Az5HmyhIwlZE0CQ3qhCTAwBU0vpyI1D9wuaX46E/3LmVs+VxLTius6eiYGZ6QJPcxxZOIpTh4QagSekedfMmc0lfOa0uRY9J12/VZcTSl8cQDLdQBSYQZkzAGtm+wdm4vNLv/L76rnldiKxodjs9MMiCxIdLYDRiRqrHgbGaygDtU523pQ59tJVRvaLKK02cRiXmjTzBwsdLQvXIcEkMD6I+BI2my6y3pApL5wKkvWSwSaxp0HRu43RVKxS3LIOdlpZnblXZ3qXbE9pcDxEms/eDLWjAZNuE6ScC5USXPHI8s8S3JtHPmJtVRvLP8dIz/b1FapvyrJ7oml0RpBjvxOGXQzcuMeP81yj3pmCxoHLiTUHD+beCwwwSkk/WpyY+nD/q6ByYFZrVYkSqcXSJMoaw6JsSVttL6NviuWtqCw/ES+3BHpnAezHDwfnInNLj/uE+Z96XbNo65Jg5EBUS+weoFVT1GllHlxYUO1cpJLlzZbT+OXljb1/pVTXjUFB35mc9WquTA8USSABJaFAEqbDczqnyI6q496iQAiT4aAcawlLA5HJuRRFsoFgSUTj9OQSJ3HoqDmYeudJJO1BDBgDouyKO5iljRJlHt3CfI7qYqTqObZuLxlWST/8JPfV0G+fBMI8hzsAlkukMpCSQQ9w08Z2IfPX8Xm3XUKTfqnV9TvfjFeN/Kyal5XtY+8HoUpjmTuMJGmZfJiJJYRBRISyU2K0kZSDYvkSXg1oo1IKfrTMzTkZlJL1xu9PDiDBUnHMUaRU0RNXbAnbY6NbUGXROu/C/K/E5b/VVCr1dLLS3k01XtbyvYraxubZuZg4co6ezwbJIAEvjYBR9L2tc/tqx3f6qdIzjhK+/XzojhnNEly85wEMMMyRoBpk0nLc7McO8Oz0ywzxZgmTIZxxjBmNNIYN5nGTSyNCYZfEPJyk7yN+t28vbyWHzfNxwQjTjDiJCtNcTDNw6xAMpNp5dSxBhOZHIfMDs6R2YJEXhB5VrRfofL5+coqprTeUmgsSEaAORAmJG5C4miuNR3AqzFjZlXbmcspR5zCdv9x9rDbhbN3Cgqf9LQN6yYBZiQ50ZoEZLYfkjefVFjKVZKk6lEeHsrKGUrJOy/Nzz41X1pQvab6+PkvfHn3KBss0NQecyZhcNoYn3fv4J/uAREJj18PS3L7uaU5XaKtospH9bOtPmsrV1P3uVQ6IFoK6m+p90bLX17a1Me3U7bT7Gtn62Vd7MDPbK5a1pPDgyEBJLDiCaC02bhFVj9Fcg8xeSNBAMnAchzAhM7QPTxxt74lr7wuJf9uenFVenFValGlEklF90gUViUUkYgvqIjLuxebW7E4onPK7ER5dI4S96JzzBGbWxmbWxmXV6VEfH5dQl5dgqY2WVNTXtMxPGpiGGBZXuTlDnM2ru+LLVogbXKPKyOQcQNzJNEajAO8ZoXH49rM+0/PXE895Hx+31/BJ4PT4os7Gt6MP582jtONJUkvcSaJ5USTKJLqIdKuKnGSYFYyS6uxuWXZ0nRM1q4HaaP5h00mEwAMzDCRaUV/e50PvBb/+PXwNCOPVCETwJOp33m5Q5tSXlBtrH4OUNrUNL5c2aaZOVj45c4E94wEkMBqJIDSZuOu2ZM2OhBPJ7Bdvf0Xb6V6n4/1v5ToERzlGRpL4kKc54U4j4skzlyK97iU4HEpwf1ywukrSR5XUz3D07wi0r2vZywIr4h0r4jURZEuL5ffr2V6qcI7IosGXegZnuEZnuV1NcsjLDXwapZ/WHxixt2pWcbIcKRjmfyycYVfaJGlhoNUtskDXVkgc0lNAIwCPJ2dKXrRHZZX/eflhL0u5348fSEoKqe08dWbYWFklsxhYADQCbyWZQ0cw4msIJAgM1fxvHnYKU+GZahe5g5/603aWJYVeHJzZ418XF7Vf70vB4THtb3uk+SBxQaWTLSKAlwAACAASURBVPYlh9nbUNq+0PP+Ebt14Gc2V33EIfArSAAJrGECKG02bu4CaSPdxUjbEPmZFAFmGK6x46VXWFxMZn3j05H61oH7T8caO8cbusYbnk/cfzHd+HKm8eXMg1ezja+1NO6/mrv/aq7+hbb+hbbupTpma1/M2I+52hfmqHs+R8O8kxf66mfams6ZmqcTdR1jdR1jDc+nHryavRJXFHgh9nHHSyPDySdLrM3GFX7CIvV4WDIZqDw2wrw/S6I1MjxUzlhikkhujvZ+XUVXz7nUjD3O7rudfP/pczU0uaTsyZvuCUaUJ5gS5CGQ8qBYMs+PPIEVS9p2eZaOn6X1QNRBVNImTwqkahtdwzVtgpykg473JK2XAKNT+syS6h/+9PCLSGp9PUgfTrKZJSeMPVdTHm/1U4A1bWoaX65s08wcLPxyZ4J7RgJIYDUSQGl7310zN/nNS9uEAYpq2/3DU6va+kcY6J9j5gS5PomHcQ4mBbmrGQez1jHHA40ZHmhMy53SJjiY4GCcXRiTDKhjygSTRhLTBvI+KseEAWYMYDLAxKR+koNhDioe9nqF3K6qf8Rw/OeTNtL1W+VqcuYOknSNZPFgRGnGYGA40lRHvUEHBIIRoHsYqpv0CVndp4Pzfve49c9TgWdvx5Y2Pup4OzBlEnU8mEQyaQHNGUabNalPEBGUJ2pc1g5573sQvuJ6OhCDEUBvEIgNA7yb5KI1dT87nw27mdj2oocMT5Gtzjz9A6lpo4prnjSJdjWT5WB+9PF7Jzwwu/JXvHI8NBJAAkgACagIoLSpYNgs0qRoctdsmgB2XAcFtV2+4emV7f0jjNivNb4ZMbb3zDzqmX7werKle+7xa92TVwuj7bVeiSfd+ifd+tY3htY3hic9JFrfGhdEW49RiY4eY0ePsb3b0N5t6OjWdXTrHnUzj7qZh8+mHz8d6Wx70983OsnDCJW24OjPLm3E2EiWNctgVloQGDnLGkl2YhJJ7rQ5ntSrDYvQMQLZ1a+vJdx388s+5p7mcTY3MvV+TUfv26m5WSNr5EkSCl4UaWIOdS80Rdo4wdx/TakWWkUTt9t8jj5lIS/brZElGe4kgMEpIVZT8x/PCL9raW3Pe/VGhmbWNRsbbS22SBtJZyzNh8ITje1T7gh+FwkgASTwVQigtL0Pu0raQM7aL0vbc+9wTUXb6IgJ+meljOLH524WhsSW+9wq8Y8qD7h9b3EERlUpERBdFRBd5R91zz/qnm80CZ+oigXhd7tCCf9bFf63Kvwiy/0iywNulvlFlntFVnpFVvrcKPO5kh0YllBS/WTcStoesvx88+iCNA3vu+CF6+XqFnnedlEPoh4EIwgMCZEhIzvlRPycPICgcxLKu/Th2a2uFzUuAXEnPW8GXkpLzWvqejs3rJUMAHNyDRxNX8JKwIgSI1q1birSppicIhnrWdpIehSDwJPsJ9A9yqcUNZ3wCQ+4mtzY/paV54Rg5S5uKG0Ln138jASQABJYWwRQ2t53P83SJk9RJZB+bWNayK9+5h2eU9E2PmKEvlkIv1PzL7dbv/onH/ZM+NE75UfvtMVx1CddHUd802nsdIra4bwwdjpFKbHrZBSN707c3n389u7jkd+duL3tRMy2EzEHTifuP3nj8F/n00tbRgVS01bZ3OtFatq+hLTpQdQSYyPVbCTdmiSSjmsGEwHy8DWbWjPoH1P/x9mM373jPS9mRaXUVjd3947qRrQGOQ8JaTzV86I8PQLJOYfS9r4njySnM28jo5ZkY0u/2/q3d3jY7eyWzv5ZA8FIX7TTm+xtpBbTIrskT566pk19UKt+bJaMHgsWqrfHMhJAAkgACXxdAnalbcF/u5WPX/d0l//oZOgBme6TdAcSeVLbMToHeVVdvlc1la3jQ0bonYUb6S1H3GJ/8s/6MTDvkF/uIb/8xXHEv5DGIb/8g/75B/zyaGw/lbrZJXFxbHVOVGKbU6IS20/Ebz0Zv8EpZYNTyq7T6TtORH//16U7xU9GRRjnoerhO9/gmOqGR5xAO/fLP+iWCcU/mh6xNMEgB0n8ZuJBx5FufH2z0PBs7k7p67+Csw443/rF605YdHlhZVfXi6mJWdAypM1UJDMpGeWQFo5qVA37tHduFvmgiVttb6U8nJ9Yp2h7719vKZU2gRd4EUwC9Awb43Pq/vYO97qYUNXyZnyGn9OShtFFYZY2+cQXGJuwxFZRBenXu3o8MhJAAkgACSwkgNK2kIjVZ7OxmaVN4DhWhJFZyK1s9w3PrGwbHjLB2zm4ltly0D3+UGD2gaCiH/wLf/AvXhwHAkqV2B9QvNe/iMZm98wNLqmLY5NLqhKbnVMtkbzFKWGTU9K3zmnfOmXsPK3ZfjJ2119X4kvaFkgbQ+oELZUwnyxthInAizxr4iUdDwM6eD0LZR3DoSlVP525vff4lR9P3TgfV1n/dKpnlDdxJEcHy8tTkhNp4wQwyHNQCZbe8ZZUFChtVk+b1Qc6CMNciwYwOCNdiSv45eTZgKvJbW+mR+fI/02w3GJjA9qybNnXQmlTbGyJBct+8F8kgASQABL4+gTsStvXP7WVcAZKtli5po1K29As5Fa1+l5Lrmx/N8TAGx1czWr+4Uzc3rNZ+88V/hBYfCDAHLLAFdJ3ZeGBgOIfAov3+hfQ2OyevsE1eXFscklWYrNzshJbnBK2OCXINW1pu9wzSU3bn1fuFLeNC/M1bZX3H1lJm9LK9rFIaY6JST33fHDm/svRmLInp26X7POOPegb91tg1I2syuaXQ72jOi0DRg6MAhgYYExyejV5CKsgTx5Pp7RSZzdQOq7Zm1KJzqmgVLbZO321f9jbZjUup8nYGIbpfjd6PaXiJ+cwz9DYjldjJoHMeqvkSbFZ02a5XkfSZtkG/0UCSAAJIIHVQQClzeF9siNt2dWt/uHJVe1vZWmTLmru7/OO3xOYSaTtbKHiZzal7YdAIm37A4r3+Bbu9S/adCpjcTXbBlU1G61vs1HT5py2wz1j+/GY3X9cji9qHeVhgoXqpl6foOh7DQ+NIieQuhjzy+FFkgo5ksZ2foyhnBVCzvhlApK8Qw/QNTB9t/nF5eSSk6Fxh85cOxIY65FSn9wy2DbCDGp5vQACSEajnmVZc54wkcymRTq/CWTCJVHkVVknZAUGy/wGcn2bvTNUjM3BQIS1JG1y3a5E55EiNgbwdnj8ZmLWXz5XQqNyH3T0jk0zgnxjWRFmdfwiY/uAmjZ7zHE5EkACSAAJrEwCKG0O74ucLVZOrkvsg9a0Dc5BdpUlT5sJXuvhfPaDvb4J+/wyDgcXHgjMPxRQqI4DgYUHAkkNHI19Z4v3nS3d41+y06tg8ynNRteMDS7plsjc4GI7NjlnypFOHe4bl8xvXDK3uWdtORG3489rcUXtDqTN7AFgTtBFL5gYHQnyicz0IBh1xlkBOL1Jy3Amk8BpOcEApB7x3uuJ64VNTmEJf/pHHj0V5h6REnX3YcmLwXYDvBVhWgQDmSFUTsFvbu4kbXaLdU0lhUr1j0P4S165ZqSNJrpjAYyCpOdAL0DLy4GraQVHnL0ik7K7341K8lhRgZcEXuIEEmppUzGX7ysBqKBWCkvGihsiASSABJDACiOA0ubwhixF2nQQkt241y95n0/mkaDCQwH5qiD2ppY2xdi+8y7cejpbNjaVpTlrNjgOl8xNzsTw/s9V83+ums2nNJuPxW//Izy2sGOEgzETVD5463U2qqK+WS+wPBncSYTMjrRJZtch63kBODnVmrlmbpIVnrwbKevoCUoqOuR5+buTIb/73ricVF76uOdR3/TrOX6ABzKtO5AkFJbhBUr/KtIR3tJdjSWTh9pQB+oQDuEveeWakTYBJBbEKcY0J5AxHG29kzcyS3/xDzsXn/qqf9BkMtFJ4gVeUAKlbcmPCW6IBJAAElj1BBxJm7plSimv+iv+oAuQpY3ko5crMTiOYyQYnIOsalVNmw7O5TzY55+yzyfzx+Ciw2cLlKD1bYulbadXwTaPnE1uWXQ8wXztmmNjc9ZssC9tYyxMWEsb+35pM89zIIosgMADM8sZhvTMg57R26WNbjdT97oGHz59/tTlmNs5d8sfPn/eP62VSLYOvSWMACzxDMlS00a9DaXtgx6y+Y0FEIyScU5kx3l4Omy8mlp++lJMcHRCy+tu8gyKIsMwiq7RwqdIm/JH7aAwf3JYQgJIAAkgga9NAKXN4R1YsrTt8U3a75t1JKhQMbbDgUU2pW1vQPHW09mb3LI2uKR/45T6rVPGl5A2ncAuQdpAkntNmWQJ69cbHvWNhCTk/tvv6o5jvntcgs4mFmY3dr6cMMzJaV3NZgakEmjhOFBz8yhKm8PH6X0rBRD0goEDeDqsv5RS8af/jXOx2a3v+ib0c4JcabrA2Gg2EMXbPrR51IGrKaved8q4HgkgASSABJaPgCNpW76zWLFHWlrz6LmcB7t9Eg/4aYi0BRapouRwYMmhsySUDm3f+xXSfmykmk3O3PFZpG2CgSkjVDeam0cXSxudNorlOTkEADInEgskf0fD2+m0ljfOMXnfe0Vsd7lw7ErKtezKouaOWQCtPNWBFsAoMqyg50QDJ5o4keVElo79pF3mrd7lznP2m0SVzlUkZ5jyUjdxqsvKBg4KH7q9g119lVWW4SJkQCgA9OsNt3KrfnQ5HxiV+6h3ygBglIxyjlxydqJqYla5EVpplVb3IxQpE1t3Yf4SFTNzUJjfGktIAAkgASTwtQmgtDm8A0uWtl3edw4GZJNqNofStiegYIdXjmXYAR1/8Hn6tNmUNp5UpVn1aaPqZuIlPQ8TRnjYPRmZW3f8ctIutwtbXC/9fTvvdlXnvVej73TiBMObJMkkCQYJDJJkEvWsqOUkHSeaGIllRImVSDp+K12jH1HaHD5Ti1dSaRNF0SgIb+fmrqbnHDt77UrK3Ue9M0NG0EocS3LdzTuuPBrX/KZUs1kP/kBpW4wZlyABJIAEVj0BlDaHt3Bp0nY+t3mX951DgbkLpO1QQPEhJWebPHp0t2+enE1XGS6aPl/N5pL5nlEIDvu02ZM2cwIOWaQAwMgyI+NjL3qHNJVtQdGFf/je/N034l/elwPjc4ue9r3UC5NyS6ggq55JEjiRFQQTJxpMoDOQMBmANYlkhngyIZWcFkQZiGAWOJQ2h8+UzZUAwHHcu7GJS+m5vwVcCInNaOudNABoRZgVOM6M1PxVlDabDHEhEkACSGDNE0Bpc3iL1dImmFN+DM1ap/zQwRKlba9/wQ4vjZyVbfmkjZO7oLFkxAAMTc097urOKLx7MSrlXy7B/3a/6BWeEltQ1/RqqFcr6IAMMpBnURBFYgnAkgnheVEwiIKOkQzU2Awg2JS2+So3lDaHzxRdSSzNUnfGkaEu8Kz7XXhcyp4/XIJiMx6/GRvVCkae3DW5ByGpLlX2alPazB3azFnxsKZNoYUFJIAEkMDaIYDS5vBeWifXlViOF4DMiFBpNXp0kbTJXdnkaraDfuYZEfYHFH/vU7DZPfNb5xR18+hGV818uORsdByums0uGRtdM75xy/nGLWfr6ewtJ+7IedqeTrIwbYKaB+bkunqJ40AUgVSGsQAGgOZXA5cSc13OR/0VcMPzamJSTnltc+vr/rHhyTkqYaTyTJRotg5lrgLZD8gndT82dZOc2tVsofycqT1s7X9VLhMkIscmXjIyHADoWKm56+2FWM2xgPCIBE3X22GiayIwgjlIdamkHuQxr23q67f0Y1MvwzISQAJIAAmsHQIobQ7v5YdKG+nQRoyNjD+wlrY9voU7zmRvdEtbUNM2b2yumvcYm0vOxg+XNl6uY2MAugZnLt7JC0ssji19VNXRNzipNRgMtDeVekzivA5Yl+g21svIJ+sm0cUwUdoWMyEdDQUwC5meg+bO7oDwuH+dOncpIf95zzDDkrx5BqPI8UBCIGERZZpOZf4+qPeO0qamgWUkgASQwNojgNLm8J7al7aAa2k17QOjDLwxqJpHraXtoF/hQb/C/X4F+/0Kvvcp2HpKmRt+vnn0i0qb3NZJmuEAYEJnej04+Wp4pn/aNM0QaaCzXCkDEu1p2bwg2Co5xKdk5H/fVutvPScQdZvj4cGzd+cik/86E3I5Lqv19aCRJ8ZmZCSWk40NpW39PRt4xUgACSABewRQ2uyRkZerpY0XaPPoiNw8ak/aaAUbrWmj0vaDP/G2HWeyN7vSarbUL908WlHfbEn5QZJIcDxDEnyQOQpIKxsnSAYTqzcyRqPRZDIxDMNxnFLZZkvMHC1ziA+lzQoPqPqlGRmSqLmtZzQyo/TXU2djs8v7JnQ6lrSKGowiS1pNUdqs6OEHJIAEkAASsCtt6txX6vL6QkbbsQR5nideAIYTeaDSFhiRXtsxOMZCj9Gqpk0WteKDfiQO+Zce9Cv+wb94j1f+FreMTS6plrnhv2xNW3ldk5ZnGFJlwwNIHMcRYeNZ4FjgTTQk83TtRMjUdWx276/sr9Lid7tfwBVWBGhLtPJuEuHVwIT3pds//HEqNDqjZ8LISGBkBEEkE1nwgvmd3EKRhDpxrlqi1X+bi5tHaQI2q/PAD0gACSABJLBqCaC0Obx1dqQtr7L97DXb0nbAt+CAb9EB3yJF2vZ45e84lbXZNe1LSNumE3e2/3UtrshqIEJZzYNZjuTmYMnkVOYeUSL5/TcBZwDWQN4FVhJZeYZQtQMoE40vwrJY1+iSRRviAnsESMoVo1HgSfXn45d9F2PSf3H2Cb6R2Nk3xcit1ZwgkT6CsrdRdUNpswcTlyMBJIAE1iEBu9K2DlnYuGS70tYafD29/unAOA9vTXA+t2WX950DgfmHzpZQY6PSdtCveK9n/s7Tmq2upJrts0jbRteMb90y/nEq5x+ncjafzlakbZyDSQaqm8jo0dLaBzO8SQ+sESQTgEmQc6oJQLyNJGpdIG3KUFFSsAGBLkJps4tmqStoMjaj0fiyd+BiXPZ/vC5FJOW2ve7TMiIrgZ7hQR4lqgzItQw+wJq2pRLG7ZAAEkACa5sAStt77i+dT0BuaZxvHs2rpNLWNy9tXokHAgsPB5QRXfMxx37P/F3umh2umVtdM7a4kJo2czinb7LEZheNKnI2uzgKedQClTbNP05pFGmLKW5XpM0rOLq0tnmGZ2VpAxOAQQBGzh8h8BZv402SqNS0obS95xn4lNVE+yUQQOJBouNCXvYORCZkHfO9GJFSNKwVWLmOTQSY1hoWzDCB0vYp5PG7SAAJIIG1RwCl7T33VJY2CXiOhLlPmyhLW2pdp5W0HQog0nbQp+iwtzn2nsr+zjVzp3PGNue0rU6pm50t4ZS+2RJbXDLM4azZ8r7Y7KKRa9rS/uFOYvPp3E0nErf/dTWmpHWUhwkGKpv7vIJji2tbZjheDwKpZqOp2kTSq10gIYm8QILkjlCCFUlTKWkttTVbpZwEFmva3vOk2FhNK2pNImh5TisJswAtb4fC4jS/uAbeySjqHRonGYzl1lKwqBuddoy+W/UgtLF7XIQEkAASQALriwBK23vut9y5WwCBIcEaRQFGZvncqsdnbxBpGxXMzaPfeyYeCij80b/8oE+JErtcs3c6Z213ytjqlL7VKZ1KG6lss1SzbXJO3+yS8aFBkuueSvvmVNpW9/xNJ5LnpY2FyubeMyGxxXXNU6SmTTCBROZCoB3bOSptxNuIupHXYmljUdre80B8yGpBIvN9TRqMc5LEADzsHTgfn/nn2Ygryfm9Q+NGo5Hj5GGiyvAEa3VDafsQ2LgtEkACSGDtE3AkbXTo2YL3tY9k4RUKIDEg6kHUS5yWl/iROVNudXPAzdSaLitpO+Jf+CNpHi054FNGY7tz9jYnzWanzM1OmZucMzc5zw8albN+kMGkG93SFkXKRjd7kSa3peZ866b51k2zza14y7H0HX/cjCtqH+VhjIOKlu4z5yKL6u9PCQY9GEykC5tZ2iw1bQukTaljMxck4OZDoqlxsaZt4TOxlM+0SVSuY5OmBGjvmwiLz/w78NLllNyOoUkyvRjHmUwmkcxbMf+yqmlbymFwGySABJAAElg3BFDa3nOrBdIliQFJD5Je4LUs8IM6U1ZNi//N9OqugRG5pi0sp2WP550f/XOP+pcc9Cki3ibHNmdSx0ZbQmntmipDmzn9x4cYW8pm1zS5CZVMjbDRVbPDtXj7/9J3//dmfOG8tHmcjyxqqJ8SdSht77m1X3i1WdokgQNibJfv5PziGhienNsxND4DYBTIGFKBF4xG47yyLahp+8JniLtHAkgACSCB1UXAkbStriv5LGerrlakFSAiGX3JcIKe1ljxAANGMbX68ZmI9LudQ/0sdM2KV4qe7PeKP+KZvs815YCHZr9Hzn6PnH2nNd+7ZnznnLbThcR2VxJbSWSoY7tbpiU0293eEztcNd+55HznoqFf2XIsc/Nvsdt/Dkspbh/QwSgD1Y8HvMLiiuofmICkaJth9XpeNPHAsCRlK2MSaLc2uYVUEASWhqqd9MP7tKn7un2We7D6d0JtjCT4EAQjQMfQeEBE/N8+F8KiMl4MzTIAWokkXOFFkmCF1LSJkpJiTV3TppY5MlmprVgKLWX/YD+jy1L2g9sgASSABJDA1yWA0mbFn0obmTSdzA4pmQTSl5++BLl/GACM8BB3t8X9uia/bajHCK8NcLOi69i1YtfwCqeL91yuVDldqaHx3+CS/wQV/Seo6Dc5fg0u+jW46N8hJer45VwZiZBy67j3S4iN+C34HomQ8n+fL/n3+bL/nq/9T0Dx375J2RXPJngYNUFF85B3WEpu5cNZgcwTz8k/9KRKR36RdB+cJAq0hRSlzerWf8YPAMCyrCRJcyautW/U+2b8vz0CM+41vRianeJAK5E8LFTaaIo8tVSpRyRY7pv8ry1jAwmWctrq/S9le9wGCSABJIAEViYBlDbLfZFrjGiKLDpZJydIk7O6vjFtz+BMb//4u4GJ1/0TvVNc2xAfWfDEM6okpfFN08Bs06CuspfJap3Je6QrfWIqbjGUtOhKWnSlj/TlT4zlT4xlrSRK2kgUtxuL2xh1lHSYbEQ7W2IrijrYog4+v5PPecbmdPEZLabsxpni+70dPdq3U9DWw2nK3p0OzEzKbX7ep309MNs3ph8c073pHR8YnmMYYnAcR0YhYE2b5a5/5n+p9ItyFZrACz0Do+djs464nb2Ulv9Oz8p1bJKWIxmPySQHlpdaqlDaPvMtwd0hASSABNYQAZQ2y81USRvNwsDyQv/oVFxGmf/luMAL0eeuxvuGRp0Ji/UMz/jdL2q/84WTFxMDotJ9bqa6X9e4RxR4XC08e7PC72qhX3i+Oa4W+l4p8L5Kwiu84IwcHtcK5CjyuFbkca3gTEThUsIzotBT3vL09WL366UuN4tdbhafvlHhFVEacF0TfD09+FpOaESJT0jeH05RJ85EhkcXBl9NuRCRcul6on9w+KWrMRmakpHROZDIhEgcJ5Cpq7B51HLzP8O/8ryutB+bSRAYAZ6/6bt8K/FfzgEXEvN7Zk0jRo7WsfFyxzXJlrRJcio3pYUUa9o+w33BXSABJIAE1hABlDbJ3I9NkpOgyu+cQKZ+YjnpVd+oz5W4vwNuhMXmBd/OCorKCYrJDYzND44tDIstuhxXdCUuLzyp6EpS2cX4kvO3Ci7Gll6MLb0QXXIhuuRibOnl2PKLceVh8eWhd8rP3bkXknAvKKGKhlt43j+9onYfC93vdEmJ3cdCv/tfyK/+McFJ1WfvVKojKL6SRsidmqAEc4TcqTl3pyr0TvnF+LIrsWXXosuvRd0j79Fl12JKrsUUXYspOH/5ztXrKSed/a9dTxgf15E5y0VL86jF2+z3aVM96dh3TYah7vU4X5ZIzdmc1jhrMLAABoCqx11nLtz+3TU4Jq2ws3twUs/pOTKMl5W3NOfy4EESRBJ2Xsr+7azHxUgACSABJLC+CKC02ZA2XpyXtnM306+lVz3pZztHpY4RsXNUIDHCPu83veg3PO83vBpmXg0zz/tNrT1znf3Gzn7j03emp+9MHf3M0wH+6QDfMci3DYqtQ+LjYbFlGFqGoa6HyWp8F5Za63o50yMiR4lT4Rr/6JKEyhcNvdzDIVDi0SAo8XgIlGgdhNYhaB0S2wbFrn7+RR8N9kUfief97Is+06s+Q9OTnvMXo2PvZI+PG0jljYTS9vF/5IpIqQu8bGOMYJ4+42nfiP+1uH+6hdxMK3s7PG0wijo9r9WRClxeME/9TmZIWLK0CUvquvbxF4XfRAJIAAkggVVBAKXNStpIZyPSSRwYUWJEqfvd6OXI9Jt3yp71mkbmoH8CBqagbxreTUHvuNg7zveO8wPT0DcDbyfEl0OmnjGhZ0zoHhVJjEtvJuDNBHTbiqcDfNOLmZq2kYauSXU0v5ztGhR6Z+HV+Hy8nAAlXk3C4uiWD/R2HGj0jkHvGCn3joszJmh7NnQpPD4to4TWtKG0fcpfptrVaJnaFyM/OXoJnrwcDI/THPMOvZ6c/3pszigBL5HRu0ZG4lgQeZS2T8GP30UCSAAJrGsCKG0WaQNJkIixLZC2tOy681cy88ueNndM1jT317aQqHncV/ekv66DRGPXcMOz4dqOwYpHb2vaB2raB6paB6taB2vah2o7huejfbROFbWtI5Ut/RUP+6oeDVY/HqJR0vCm4mFf9eOhmifDysa17aNKVHeM1jwdo1HdOWaJkZpOc9Q9Hal7OlLfQUIuDNW0vNYU1PgFXc0rrByfmKPdpEiHNhpytzZsHl36fwMUaaM9z2gnNlYeWTwnQUNbd1B4wn9dz8Zklr2d0hkAdDyRNvoi/dhQ2pbOGrdEAkgACSABawJ2pc1qRJslj9SazPOk/AwrBTq7EycIjAQ1jwcCr+R6nks7H1kSGJ53NiIv4Hqef4TGJyLLJyLD+3qGz41M35uagFt5XtcyMNAKxQAAIABJREFUPcMzvCOyfK7nKOEdka2Ez7Vs+VtZ3uGZtOB3XeN/I4eG33WyT/qurCUfVeF1Q+NzM4eGV2SOV2SeEj438xaH/w1NyPVEN6+gsKuRj9q6OLn9TpLmhyAIZBJSq5f144GfFhJQHhIljR/Lc3qen5Pg0Zu+c5HJB393uxaf+6xvSpRTrrBApE0QSUg0kQwtmIcbmDO0KX9u6uMpx8LmUTUWLCMBJIAE1i0BlDalpk0QwBy8xPMSz4ksI8GYDmqeDCfkNt1IuheX0xif1xSf1xST1xCdU387t/52Xm10fl1MQWNcUdOtnLrI7Nrbufej8xqj8xpjchtjcpuic+7LUW/eXv7KrZya23m1lu82xBSQiM6vo0voKlqOzq9Tx+2CuqjCBnMUNEYtjKaoAhoPowpIxOY33ErNz8gve9L5clprEIlA8IJA0s9Z0upaGRvNVbFu/xiWcuFqkRIBdAYDw5Hn5NGbQb/r8X94hkRnlQ3NiTS9n5EkM7YyNpL9D6VtKaBxGySABJAAElhEwK60LdpyzS6w/AwL8phR4m1U2nhRZCUgg/4Apg0wNGkamjQNTzHDU8zAlKF/Uk9jYMowOG0cmWP7x3UkL9qE0bzlBDs8wQ6NM4MTxsEJsvG7KX3vtLZ3Wvt2ao4W3s3o+mb1NN7N6HqntfRdWftuRkejf0ZHY2BWPx8zxsFpEgMzNJiBGWZgmqPRN8MNzDD9U9pJg5HMiyCQ6+LIv2Zpk1tFUdo+7MG2PC3E9VmeYzh2em62pfN50M2U3z0vRqQXvpszGgCMJDkzGZdAKtcki6gJcspmlbQ5Prb6WI63xLVIAAkgASSwHgigtKlr2jha2aZIGy+KDMeDnArVPKRUkocpCGDiJaOsP4wosRL5hTZyopERWE6iGUPIOw8sR1KHUEsyCoJe4vQSpxNYWjCAYASRhgHIWvqurDWAYADBJM0HKxGVtBmMBAvCCKAXJT3PmyR5tKJK2iz92FDabP+ZKz0BqDmRDGpyJwFBhk8XGjmekaCl83nwtej9/3G7lVn2bo5hAUzyRBRkGitGUIyNto0uqGmzfWzLUpQ2Cwn8FwkgASSABAgBlDblORBIZy9LC6mlQJTO/BLJuD9eNIc8vHTepUySZJLIgFM7ITCinQCRsYRaztTbc4KkhHICCwpU4xgARh79qv7IgCirnshLtLee+h2lzXJ/Vf8SP5Mryug4A15+BsjtF8iYAqMgzRlNjChxAJUtne5ht37zCE7Ou/tujPRjAwCTRO41J5CZJ0RlFzSpriVzrupoVkW1qKnLVhvhBySABJAAEliXBFDalNtuU9oEZTWd21u01FBRqVJr1uKytXgJnGAjqE7Rd3vbWyaeMkuAaMn1RYYi8maJtFgaUUCrfVo+kglVyRzlCwKlTX2HzWXSqEk6oxFJY2k+NRBA5IDnTYKg4wSTSIaFPnj6yj30xj/dzyWWNvQMjQlkRnfyojeajs8152OT84KYm0tlb7NxVHmRWtTUZXvb43IkgASQABJYPwQcSZv6N0Mpr200ymUqBfX1UsGh1rNapM1cxybL2kJBs/VZfb3rtqyWNpICBgQeONr4rDMYTCJMslD39E1ARPyvpwKupeT3zTJ6ntSpEdkTRU6wZFThBfOcB/LMB8oQ0QVtr8rD5qCwbu8FXjgSQAJIAAkoBFDaFBSksPhXU716sbQxorqF1KqsrjaTG8tsVLNxgmBVK6ZqQlVXyy29pk29N3WZiqYtSVu4TH2967cs5+agNW1U2ljgWJIil2FEQccTYwu6lfqbR3BU9t3ukelpE6mBI3eT50wmE8dxSiY8lLb1+xThlSMBJIAEPjcBR9L2uY+1RvZHxY5qkFqMFpcXtER+9Mf59lBLwgjz5JXyOERBNWuqeW4ksGGf853z1sh9+JKXIYOlkGnK5WlOrwV2GkwMwMPnPWcuRLqev5lY2vBiVEsGqsgVbKIomvPeWVewKd72oTVtX/IKcd9IAAkgASSw+gigtH3wPUNp+2Bkq/ILpI8jrXzVcdy0wM0B9PPsk3cj526n/OV9Prmk7s2USU87v0mgrrFULG1BAaVtVT4IeNJIAAkggRVDAKXtg28FStsHI1t9XxAEMEokGDpk1AQwJEH5y56QpIK/AiOic8rfjM4YZWNjJJLthVXNLbHA1ZSPKG2r70HAM0YCSAAJrCQCKG0ffDdQ2j4Y2Wr7gpzwhZG9jUibADApQdWr/jORSb/5Xo5IK+2f47ScnPiD4+m4XV6cr2xTLG1BAaVttT0IeL5IAAkggZVFAKXtI+8HVbelv9s7jL092Nte3ZtNXf7g/dg9wPpaYZubRMaPalmWFRgA0AliaVPbsXO39/ztk3PvQd/YrEkk2ZUZjiezTMip+yzNo6TjIknNooQKJ5U2ZYFyaGUJFpAAEkACSAAJOCCA0uYAjqNVyi/uEgv29mXv6/a2V4uauvzB+7F7gPW1wiY3nhgbr+dFXp7eoPZxl8/VmP/6XrmdXdk3NsuLwPICNTYyRsTqtVRpUx93fRHHq0UCSAAJIIGPJYDS9pHk1D+6SynbO4y979rbXi1q6vIH78fuAdbXCjvcBJNo5AEmGah+0ht0M8Mt5GZC8b1+rd5kMTYqbWTOA6sXStv6en7wapEAEkACy0kApe0jadv5sbeda8NBug17+7F7WqpsFChtdikteYU9/mQ2KoDq1m6f8KRj/jc0VY8mGNEEYBJIHRvD8SxL2kaxpm3JpHFDJIAEkAAS+FQCdqVN3WlaXf7UA+L3kcBKIqCWNgBgec7Ikn5sWg5anr/zuhz5H6+ggqYnA3oOAAyswAny9AicxHGSyEkSb24etYw5UPVmk7u12fvbUR/XHg9737W3PS5HAkgACSCBtU0ApW1t31+8uvcQUMsTy3McGSoKJhEaO/v+9rnwh2dQfGHpgIGZFiSWZNAlxqYEStt74OJqJIAEkAAS+KwE7ErbZz0K7gwJrFACVNroTBK0js3IMo2tT0+FRu772ys2t2JanvGABdBxgpHjOUE1MFT+Gu3SRmva5ClerSvb7Fy3WhbtbIKLkQASQAJIAAlYEUBps8KBH9YbAUXaWACJ1rG1Pj1/PfpYwJWsmscvh+d0HBg5Usdm5PhprQ6lbb09IXi9SAAJIIGVQwClbeXcCzyTr0AAAIy83IsNYJqH+s4e1+Dw434XkvPu9o7McAC8BIJqjlereWDNU72KkqCMIF04way9S1LXtNkr2/suLkcCSAAJIIH1SQClbX3ed7xqQkAASW80GliOA9ACND5753r+5lFn/8TiemJsPNE1g1FUj9JFacNHBwkgASSABL4WAUfSZrMC4GudKB4XCXxeAvTxnjOaTCKMzJkqmlp9L9/+3T0wJv/eiAk4IMbGcsCwZOSB4m2OpY2X+AVh75xt/nE5WGhvP7gcCSABJIAE1g8BlLb1c6/xSq0ICCDxACzAhJEva2jxOHfVOyxCU3l/nIdhHccCGIzE2ADmjU0SQZE2ibaN8mAZgkBaSBcYGy/xVodUfXDgZzZXqb6KRSSABJAAElinBBxJ2zpFgpe91gkIvCDwJLWHCDArQFF986mzF//y8C+uf9Q7qZuVJ4onCT4kIC2kkpW0ke8oIQAIQLOpUWby7PKC+t0eS5tm5mChvf3gciSABJAAElg/BFDa1s+9xis1E9AZTJwgAcCsns28W3cy8KLL2UvZFQ29k7o5AYwAjESMjQxBkENpG5UUXaMFlDZ8ppAAEkACSGAZCaC0LSNsPNQKICBIpKaMDBpluIaW1r+8zx8PCs+uaho1ATU2VgIezLqG0rYC7hieAhJAAkgACZgJoLTho7COCFAJ4wGMArR0PPMMuvinR1BBQ4cWiKiZ69hkpRNV3oY1bevoEcFLRQJIAAmsYAIobSv45uCpSZKSAG2JBZvMRFEUeIHlBUYgujY8ra940O5x/sY/T3gVVTWPzrKcPD08GTEq91ij3d2UtlDZ4sxvisDJPdskdYc2mkNkQb80m+eDC5EAEkACSAAJfAQBlLaPgIZfWT4CS3Q1ZTObZyZIYOIlkwh6AUZmjOV1TZ4hV50DLudWNo3PmkAec8CKxNiotCm6Rgs2pU3u30akTf1aYGwCqFdiGQkgASSABJDAJxFAafskfPjlL01AsbElFmyeDw8wK8EkQN+cUPGg/eyF8DN+QQVllQaGDEcQJDJL1QJRU39EabNJFRciASSABJDAMhNAaVtm4Hi4DyOwRFdTNlPvnaRYk18swDjAax0UN78MuZngE3yhsrpeP6cFUZBEs7FRM1O7mlJGaVNTxTISQAJIAAl8LQJ2pY121ln8/rVOFI+7PgkoNrbEgpoSADAMw7IsLxtbdnOf28V470u3CytqR0ZGyNgDkVG6rykF6mpqUbMqi+Z+bMqfhvqItHlUvQTLSAAJIAEkgAQ+FwGUts9FEvfzRQgs0dWUzRafBADoeCh58u7f3jf+8LuWW90yqecYhgEyVRW3wNVs1q6htC2mikuQABJAAkhg+QnYlbblPxU84loisLhLvtIrf0HnfcdXrdjYEgvqvXEcJ/DC5ORkTWPLfzzDfvW8nFPXMawnDmbkRJ1Ox3GcYmkLClaipv6ANW1qxFhGAkgACSCBZSSA0raMsNfToRxLm9K2qC7YxLNEV1M2o5ODkuwbEmhN3MDYdP7dGo+gSycDrmZXt74Y1Zvk+UYZCVg5y675POWy2tvUnmZVRmmzeZ9wIRJAAkgACXx5AihtX57xOjuCRdfmp+DU6ecAyDhNjmfIpOoCCeAXBl2+4F3k2Q8KAIk36UlXNoBhPWiqHv1w3P/gMf+yBy+HtSR97riBTAZvkgS9YDKJRpacB5k5nsyCYJlWdN7SJHriqgXr7G7i5SIBJIAEkMDKIYDStnLuxRo5E1naBAE4SwhGlvT3py9am0UUTl2vJcputKi6Sz0tAZ3MwPE7yZ0mjxjVm8SeMV1WTet//G7+GhhX3jU7LZgPSE+DJ94mmSSBlURZ2oi3KZl1zedK9oXStkYeS7wMJIAEkMAaIOBI2ixVJpK6sAauGS/hixKg0saDkQc9DwwPkgRgZGFOD1oDmHhzMBzQoEsMAhgE0IsLQyvA0kPPw4xe1LIwOCPdffj6RHDs36GpKY1DL/QwJcKMESZ0oOVgQg/TBnJydCQCS2raSKC0fdEHA3eOBJAAEkACn0gApe0TAeLXFxKQpY1jYI4FHQukLXJ4Uvek4115VXvR3Sf5pY/yyhZGzt1H2eUkshZF5t2WpUdWWUtWSWNBTVtSQaN/ROY/PcJP38hPqutPrO5JKm7Pr3xZVPkqu6Q9Lb+lqOrZ487J3hGWJQ2jxNhYSURpW3gv8TMSQAJIAAmsJAKOpG0lnSeey6ohQGvajNysSSQDNScNxriUPO/Aa94Bt/xC4n2CYr2CreJMSKxHSKz7OdtxKiTmg8LjXLTHuWj3c7Gnzsc7n09yCk1xCk05eT7ZNSTRLSjudNCdMyHJZ0KSPc+lnQ5Kvp1U8aJnkDaGcoKgjG+VSOWg7ddSbsN7R1csZSe4DRJAAkgACSCBBQRQ2hYAwY+fSoA2prMCY+AYoyA9fd3n4X/hUkRq9YM3dQ/76x7217ZYRXVLf9Wj/nuPbUfFo3cfEm/LW3rKW3oqHr0lO2wdqGwbrGofqmwbrGgflD8OV3eMlz8evdsydiPtgVtgdM39xzqDgUxmZT1PqG1ls0yx4JgRSptjPrgWCSABJIAEPo4AStvHccNv2SVApE0eUsAKpF9bbdNTV5/Q8voOXs61MWOAaePCmDTBBENijF0Yoyb4gGBglIExkznIPlmYlBcO8PCOgwEOhgQYEmFYhHtPp12DbqfnldJxEmQshOqF0qaCgUUkgASQABJYEQRQ2lbEbVhLJ0GlDYDM6ckC1D166eZzpby+kwwyEODVsPHVMPNqmKPxYlh4MSw8HxGej3Bdozaic4T9gBjmO4d5uv3TYaZriHk6aOgaMLQP6h8NG5uHDI+G9W2jxkEeRkVoGRDPXEnKyC/T6nVY07aWnkC8FiSABJDAWiWA0rZW7+xXvS459QYvkaGaJXVPnH1u3Gt6qxVhUA/33+ivZjWHJjdcTn94NbP1cmb75cz2S1ntlzStF7Ify9FyIXs+LmY10wjLbApLawxOrPWPr/KNved7p8o/odo/oVaOev8EOe7c91dFQEJjQEKTHA8vZL8ISGgKiq/Ob3z7ZoQxADS81rtdTEjLL53TaWXFFGnDLn1X41PXuqmXYxkJIAEkgASQwHISQGlbTtrr6FgAZMqBWV4qrn/i5BtZ3tQ/K8GAAe5UvfjrUs6vwRl/hBb891zhf88V/36u9Pdzpb+eL/01tPiXsMJfwgp/DZ2P387l0/g1JO+Xszk/+WYc8kr9wSPx+1Px35+K3+WeQGOne5J1pOx0T9l1Ot0c7pkHfYr2uKYddo0JiynrHTIyAA3dWpS2dfRE4qUiASSABFY/AZS21X8PV+QVqKXthF/k3WYibX1GiKt49t/QrH8Fpv4WkvOzX9bPfrk/+eX/5Ff4oxxH/AuP+JvLdMlRn3waR7zzjpzJ+cEt43uX1J0nErcci99yLH7zsfiNx0lsOJGgjm9OJJBwSqTx7cnkrU6pW/6K2n/8ZujtYpS2FfnI4EkhASSABJDAewigtL0HEK7+OAKKtBU2PJGl7d0MEGmLKe8i0haQ/ltIzlGfzKPemiM+OUe8Cw57Fx32LjnoQ+Kwtyo8iw/LcehM0UH3gn3O2btOZOw4lrbzZMZ3Tlk7nbO2u2RtdSWxRRWb3LJIuGs2uWs2nNZsPqXZ5py243jCT6fiIpLq3g6SGUjrX825ht3B5tGPu7/4LSSABJAAElh+AnalTZ22QF1e/lPEI65GAnQgwiwvydJ2426zWdpSG3p+C8k84pX4a1Duv/xz/uWf97N/wc9+JUf97h31q/pRjqN+VUr85FNJ44hn+T7Xwu+d8nYdz9l5whJOududc7e6kNjiOh+b3HI3uuR865rzjYvm/1w1G1wytzmTKrq9/7t5Ofbe20GjLG06lLbV+GjhOSMBJIAE1i0BlLZ1e+u/5IXTgQgCzPIg92m7Ud78ljaPLpQ2v4Kf/YscSNuPsrQd9ao45FG2xzl/1/GcHcc1O0/kfHcyd6dsbGZpc87faoktLvlbXPI3O+dtdMnb4JyzwTlnk5Nmm5NGkbaeAYMRoO6l1jk0IS3/Lg5E+JKPAu4bCSABJIAEPhsBu9L22Y6AO1qHBKyl7YRPRHnzWy1AvwmSG3p+PaeqaVOkzb/sqF/5j/4kjvrNx4++d3/0vXvYu2Sfe94uZ82OE+k7TqTvdDY3jG53zrYEqXKjYa54c87Z4pS3+WTO5pN5W0/kUGnb8/f1i3H3egZ0RoCaV1qnMJS2dfh04iUjASSABFYrAZS21XrnVvR5U2kT6ejRR8e9r95t6tYBDBrN0nbQJ/lfIblHA/KOBlhq2vxLjvqX/RhgjqP+ZfTjEb/Sgz5FP3gVfOeaud0pbdvJ1O1OaSRcMuQgfdoWe9t259xtTjnbnIiu0djmpNnlmkqlrXtQp0dpW9EPEJ4cEkACSAAJ2CCA0mYDCi76VALW0nbM60rFg25GhHEDpN1/+0to9j7/lB/DCg6G5B8OLjx6tvjngNKfA0qPBi6Mw4ElB3wL9nrl7jyVsc05ZcvJlK1OqVudUrc5p21zztjiYo6tLtmLQu7l5pyzxRJbXbK/d0v7/njkhTuVb4aMBoCabt3Ji4nq5lF7Vw0SKGFvG1yOBJAAEkACSOBLE0Bp+9KE1+X+LdKm5aSS+ofHPS9WNL5kBZgyQnrD23+HZe8JSDl4oWD/ufyDwcVHAxca25GzpTQOB5bs98nffTpru2vaVqdkRdpI/g6LsW1xyVhkbNnzLaTOOZtdcja7aLa6Zu06ZZa27mEjqWlDaVuXzyZeNBJAAkhg9RJwJG3qBPFKefVeKp758hGwlra/PS5U3n/JSzBtIjVtS5e2I2dL93jn7nDP2OycvMkpaZNTymbnVBpbXDI2W2KLa7bN2OyiUWKLLG27j0eGJVRSaatCaVu+BwKPhASQABJAAp+BAErbZ4CIu1hIQJY2OiNCSf1DWdqeW0tbmlzTVmizpu3HoLIfg8poZdt3HllbXdOosamlTTE2uaCWs3mBU4xts4sGpW3hPcLPSAAJIAEksNoIOJK21XYteL4rhoBK2orrH81LGyPXtIXm7glIOxxWdCDEStqopVFjOxxU+oN/4R7v3J2nNVtc0jY5pZBwTldis0vGRlcSG1zSN8qZ2Da4ZG5wyVSLmrr8Sc2j6slHRUlJW7hicOOJIAEkgASQwLoggNK2Lm7zcl8klTYyehTmpQ1gmiF92n45n7vP3yxth4PmRyEo0nY4qPRAQPFen7xdZzTb3TI3O6fSOjbF2DY5p1Njo9K2wSXzW6cMKm2bnDM3OdtQN5S25X4G8HhIAAkgASTwuQmgtH1uorg/SZI+QdqOnCV1bNTYdrhnKNVsRN1UNW0obfigIQEkgASQwHojgNK23u74Ml0vADASTFtq2ioan7MAk+z7a9oOB5bs9cnb7ZkjGxsZeaB0ZftEafv4lB/YPLpMTw0eBgkgASSABBwRQGlzRAfXfTQBRdoKG57878wli7RJSvPoj6FFB4MLafPoPwNIjo/DQSRIVzav/O88ss0Noy6pm5SQa9o2uKTTfmwbXTXfupGgDaP0faOrRokFfdq+d0vbeyzyUrw5T1vta53zBas8bcoQaQGsrlvtbFYr8AMSQAJIAAkggWUkgNK2jLDX06EcSNtv53P3+6VRaTtytvifAaWKtB06W7LPN3+3Z96OU1lbXTNINZtibC7m5tGPkLYtzprtLlkobevpAcRrRQJIAAmsQQIobWvwpq6ES/o4afvBv3C3Z87O02T8wRaXNJS2lXAr8RyQABJAAkhghRBAaVshN2JNnYYAZCiCEWBKANo8evfBcxPp00aaR+3VtNFqth3uGUo1m5W0WUYhfHRN2x5Xc/Po20GjCQCbR9fUM4cXgwSQABJYBwTsSpuSjGpBYR0wwUv8VAJqaStoaPvzzJW7jS9laRMUaTt6vuhwcKG6eXR/QOEur5ytp9K3uGVsdk0zN4xaXE0ehUDSedC+a7Q32+J3pUPbRldVxl25eXSPa9q+vyOvxFVSaat/pXMNs9unjfZvoyCwT9unPhD4fSSABJAAEvgcBFDaPgdF3Ic1AXvSNsHZlbZDAcXf++btOJO17XTG0qXtG3kgglrdUNqsbwV+QgJIAAkggbVDwK60rZ1LxCtZLgIgCiAKkiQtkLa/PK9WNL0yAUxwQtp9klx3v1+aUtP2cwCZMP4Hf1LNJhtb2nw1m2XwgTrZB20etSdqdDlVN2X0KB2IoNS09QwYTABY07ZczwUeBwkgASSABD4PAZS2z8MR9yJJEpU26m08gAFgiofC+o5jXuEVD7oNACMMpDX0/3I+f79fxs/ni44EkebRnwNJ7PPO+c4ji8wN75qyySXZatCo9QBSpU/bt645NDa65Chhc+FmF81Wl+w9rmk//I80j77p1xqJtM25XUxIy787o9OLAKwEPIA664eS+AObR/HxRgJIAAkggZVAAKVtJdyFVX8Oiq5ZKtsEHkAHMM1Bce2zk17X7zX26iQYNEBy/dC/z+X94JP+c0j+0bP5R88W/hxIYp+PZrdHxs5TaVvdUrafSt1+Kp3GFrc0GlTmNjilyJG2yUmzwTlHHd+45HzjQpbQwv+55ND4f66ksNUtZ8fxpB9PRF2+Xfayb1oLUNetdbuSlFpYPmMwEWmTgwdZ3SQQJDKYgt4YkECJVX+r8AKQABJAAkhg1RJAaVu1t24lnbjF1ehk6qSFlJNr2mZZKKt55up5o+p+r56HAZ1Z2g56p/4rOP9oYI45AvL2e2Xsdk/+zi1xm0vCdtek7a5J21wStrjOB5W5He5pO0+n7zyd+d3p/O9OF+6Yj+LtHiR2nCbvW8+Q2KKEZ/53Pvm73ZP/fTr2emJlZ//4FEBtz7TblYSkgrtTeiMvz99AjY3Ut1FjQ2lbSc8YngsSQAJIAAk4krYFTUXq8XQIDglQAkTXQKRlQa6gEuR2Rl5O+aFloby6090rorbxjYGHQR2k1g38GpJzyDv538G5+04n0NjrkbDDKWbzsVsb/7rxf3/c+Oavm9/+L3LD37c2HI/acDxq44noTSdjNp2M2XgidsOxGBobj8dvPJ6w8VjShuNJG48lbTyWsuH4fHxzIkWJf5xI+cfJhA1uMRtOXtnjdPFstObJ4NA4QHXvuGt4bEpBKW0e5UXiajRoHZvlsiSlmg0k66kS8CFAAkgACSABJLCMBFDalhH2mjwUaQgl0iZIpIXRJLuaUS6Q5lEWSmpeuHpHVj54pxVITVtq3cBvIZojXom/Bmf9fi7bErk/BaQf8k4+cCaZaNyZxH1nEvd6JOz1SNh9+s7u03d2ucfvco/ffTpRib2nU/aeTvn+dNpedxoZe90zvj+9MHZ7ZOz2yPjuTMpuv4TdZ24e9Yq8mFrROjozAVD3bsYjIimtuGbGBCIAJ3drYyW5c5tc0zaf7AabR9fko4sXhQSQABJYbQQcSdtquxY832UlYG4SJdIGvAiTWtPwLPNumh0xwZs5GAN4a4C3Osiqfvunb2JmzcDTUWjug7zHU7mPZ3Ifz+U+nktpHKOR+mA84+FsxsNZzSNtVstc+kNtatNsatNs8oOZxMap5ObZtEe6zFZjZqsx47GeRtZjJusxk/5Qn3R/Jrl+OqVhLqVhLun+wkhsnEt6oEts1ia3zKS3TOc8nMlvHns8yLUPC9n1fZ5XcxOLnzS/mn43B72z8GqcvPdr4c0Iw7DyVYnESEko3kY/yu/LihsPhgSQABJAAuueAErbun8EPhYAlTaRZ6m0TejY8sa2C7Ga83F5QTFCLkwBAAAJL0lEQVS5flGZflGac3fu/S8wZed/LrpcKAiKq/e4VnQmovhMRLHn9VLP66UeN0o9btw9c7PcK7LC+9Y9r8hKn9vVPtE1frH1frH3/WLve8c0eEXXecc0+N95QMM3vtE3vtH/zgPf+Eav27VnIqu9btf6xjT4x9z3jyFfWRy+MQ0+0TVeURXet8q9b1b6Xa+4EFsRfKPAPTjjv27RJ/0TAm4UhsXfC7pd4n+9wP96QeDNoltplX39ExLLAYDAsPPGJlkcDqXtYx8b/B4SQAJIAAl8NAGUto9Gh18kBKi0sRJMaPnribk/O591vZzoGZnpFHrL/Uq8d0T26Uu5py/l+9wo87pe7HYpRwnXixqXsKyTYRoaJ0Kzjp/TnAzNORGW43Qxz+ligdPFgpOXCpwuF/0ZkvWT550fXG7tdbphiYjvT4R/9+fFw263jodmu18r8Qi3EWfCSyxR4B2R7R2R7RNeHHi1NPhqTuCF9KBz2SGhuYFXcv2v5fhfy/G5kuV9OdPzUsZvp8LdAyM7u3okQSSd2OT3eW/DmjZ88JEAEkACSOArEUBp+0rg18phBV4AAFaECa144Vb6qZCokif9ze8M9c+Hm1+PN3RNPnipf9Ir3X+ur26frO2cqe+are+abXg2d/+5tvGV6cFrpqmbffCaqX9lqH2uq39lqHuhr31uqOrSVXXpKrt0Dd1cTuPglfRGz4hCj6v55gjPdTqf5haWFpH5oKJ9qvENq0RTN6vEw9csiZdM80tt84uJpufjDzrnmjvnHndOPn0x9+yZoaN99mHnxINnY03PJx+/1j18oX34Qnslpjz4YsrDlk5JEImxwXy+D6JuKG1r5dHF60ACSAAJrDoCKG2r7pZ9/RNWDyvmRZEkOROBEeFabE7wteSnvbpRA/RPiSQm4d0U9E1D/wx5V8r9M2TJe6NvBga08GpEevhyurZ1pOJhnyV6Kx72POgc7erT905KQ1pQYnAOlBiaBRojs2COGRidJjFuiTEtM6I1jGq5KQMMTEDvMGTmtd2ILHjdPSiKvCQJHM+QURbz8fX54xkgASSABJDA+iSA0rY+7/snXbW1tJE0GVTa0nOr/UOjcosfPmwbqH/yrq7VHPVtfQ1tg/WtA3VP+utbBxraBhvahhfFYEN7/3yQbQbvdww1d401d401dozdbx+53z7S2GEuk/209zc+HXrQNfiga7Cxc0COvvtPe5V40NGrRFN7b1N733y0DTS1DZCFnd0POl80dfY8fjHU/HS0prk/6JLmYnjWyLhWEFgAEaXtk54V/DISQAJIAAl8PgIobZ+P5brZk1raWEnk5Zo2VoTOl4MRUZmhl+6EhqdfiCkKiS2jcT7+bmj8vfNxFSGx5efjKkLj71miKjS+ylK+F3qnfD7kbc7HVQRFlwZFl56PqyDlqLtnb5edjSo5G1VyIbEq9E452X9cSVjC3QuJ5SSSysISS2lcSChV4tKdUjnuXrpjifiKS3JcTii/kFB6KbE8PLX6wp0K/+t5bqHJeVVdJg54hiXNo6r2UCVz27q51XihSAAJIAEksIIIoLStoJuxWk5lgbSxkkjSm4kwZ5Iamruycquik0rDE8svJ92jcSW5+mpKzZXk6suJVbR8NaXGTlRdTalSVoWn1l5LqwtPraXfvZpScy2tji4JT629nl4fqbkfqbl/I7P2WnoVjfC0yvC0ChoRqRWWqLyeokT19RQ5kmuvJ9deT22ISKm/ntpwO+vB9Yzaa+n38h+8ejakFYBIG08yf2A/ttXyYOJ5IgEkgATWOAG70raggkH5uMZ54OUtgYBF2gQBlJBIfRuASYDRKWPTk+7uQd2rQQON7mH9mxFj97D+5aD25aD21ZBu6dE9rP/A0HYPk3ijirdD2reDelUY3w7SYHoHpTcDUs+Q1D8u9U9wYzpxhgUtJ7ESCLzAcdwSeOAmSAAJIAEkgASWgwBK23JQXmPHsJY2TgBOtjezt7EARh50DBgsYWTBxIGRBb2JhLJ8KQUjS774YcGBUQ6GBXMwwCphAlYdDDBGslYgo2DnXyKAABIvirxonqRrjd1EvBwkgASQABJYdQTsStuquxI84WUjoJI2amxmb1MmXOfl1lJeABqkY5g8CzvdjhfJDAo2wrK9+YvyNsp8oDYKIgiLQz1/qAhkFlHZv0AgFmaO+ROlagbk/Ba9SBY6+bVsYPFASAAJIAEkgAQcEEBpcwAHV9kmYE/aSNUUAA21YylGJApkGgU6HfvCXVsEi2qW8r5IpVQLlKmllIJqJSkqy2mBzEm1KEjqNXlLAI6TOE4SeBB4omsCL6C0LbxN+BkJIAEkgAS+HgGUtq/Hfi0cWenTRguS2ecks7rNOxyYV9EGR/pOlWj+XVY6KnbKQkeQFnueo62lxcamqCEtmA8tADU2lDaHOHElEkACSAAJLDcBlLblJr7GjqcaiyDQS6PexpNaN4mVg5bN73IvMdvSppiaqrCcuFSHtSou5zngsZAAEkACSAAJ2CPgSNosrWCW6hO5ssTejnD5+iSgfkgoAZS29fkk4FUjASSABJDAlyaA0valCa/x/TuWNqs6NrnuzVHzqFX1lvnDcuKzdXyybDnPAY+FBJAAEkACSMAeAUfSZu87uBwJOCCg1jgqbeol6rKDnSir7ImUveXKF7GABJAAEkACSGCNEUBpW2M39OtfjlrLUNq+/v3AM0ACSAAJIIG1QgClba3cyRVzHShtK+ZW4IkgASSABJDAmiKA0rambudKuBiUtpVwF/AckAASQAJIYO0RQGlbe/d0RVyRWt3U5RVxcngSSAAJIAEkgARWIQGUtlV401bDKatFTV1eDeeO54gEkAASQAJIYCUSQGlbiXdlDZyTWtTU5TVwaXgJSAAJIAEkgAS+CgGUtq+Cfe0fVC1q6vLav3K8QiSABJAAEkACX4aAXWkDUbIZX+Y0cK9IAAkgASSABJAAEkACjgigtDmig+uQABJAAkgACSABJLBCCNiVthVyfngaSAAJIAEkgASQABJAApIkobThY4AEkAASQAJIAAkggVVAAKVtFdwkPEUkgASQABJAAkgACaC04TOABJAAEkACSAAJIIFVQMCRtKkzNSjlVXBNeIpIAAkgASSABJAAElhzBP4/KqIYcjE4VvsAAAAASUVORK5CYII=;" vertex="1" parent="1">
          <mxGeometry x="60" y="70" width="828" height="443" as="geometry" />
        </mxCell>
      </root>
    </mxGraphModel>
  </diagram>
</mxfile>
